<svg xmlns="http://www.w3.org/2000/svg" viewBox="0 0 24 24"><path fill="#2196F3" d="m12 24-.191-.025C11.71 23.949 2 21.276 2 12.175V4.174a.75.75 0 0 1 .489-.703l9.25-3.424a.742.742 0 0 1 .521 0l9.25 3.424c.295.109.49.389.49.703v8.001c0 9.102-9.71 11.774-9.809 11.8L12 24z"/><path fill="#1D83D4" d="M12 0a.757.757 0 0 0-.261.047l-9.25 3.424A.75.75 0 0 0 2 4.174v8.001c0 9.102 9.71 11.774 9.809 11.8L12 24V0z"/><path fill="#FAFAFA" d="M11.081 15.981a.75.75 0 0 1-.562-.899l1.5-6.5a.756.756 0 0 1 .899-.563.75.75 0 0 1 .562.899l-1.5 6.5a.749.749 0 0 1-.899.563zM15.25 15a.751.751 0 0 1-.502-1.308L16.629 12l-1.881-1.692a.75.75 0 0 1 1.004-1.116l2.5 2.25a.753.753 0 0 1 0 1.116l-2.5 2.25a.749.749 0 0 1-.502.192zm-6.5 0a.749.749 0 0 1-.502-.192l-2.5-2.25a.753.753 0 0 1 0-1.116l2.5-2.25a.751.751 0 0 1 1.004 1.116L7.371 12l1.881 1.692A.75.75 0 0 1 8.75 15z"/><path fill="#DADADA" d="M12.769 12H11.23l-.711 3.082a.749.749 0 0 0 .732.918.75.75 0 0 0 .73-.582L12.769 12zm5.731 0h-1.871l-1.881 1.692a.75.75 0 0 0 1.004 1.116l2.5-2.25A.753.753 0 0 0 18.5 12zM7.371 12H5.5c0 .212.09.415.248.558l2.5 2.25a.749.749 0 0 0 1.06-.056.751.751 0 0 0-.056-1.06L7.371 12z"/></svg>