<svg xmlns="http://www.w3.org/2000/svg" width="161.357" height="127.329" viewBox="0 0 161.357 127.329"><defs><style>.a{fill:#e2e2e2;}.b{fill:#c13d1a;}.c{fill:#c62020;}.d{fill:#dd2323;}.e{fill:#fa3535;}.f{fill:#737b83;}.g{fill:#86909a;}.h{fill:#bdc9d6;}.i{fill:#fff;}</style></defs><g transform="translate(-119.354 -404.882)"><g transform="translate(-319.402 157.407)"><path class="a" d="M438.757,350.611l10.965-6.331,10.965,6.331-10.965,6.331Z" transform="translate(0 -17.138)"/><path class="a" d="M467.039,334.064,478,327.733l10.965,6.331L478,340.395Z" transform="translate(-5.007 -14.208)"/><path class="a" d="M495.236,317.911,506.2,311.58l10.965,6.331L506.2,324.242Z" transform="translate(-9.999 -11.349)"/><g transform="translate(438.757 247.475)"><g transform="translate(23.275 32.286)"><path class="b" d="M478,326.8V293.037l-10.965-6.331V320.47Z" transform="translate(-467.039 -286.706)"/><path class="c" d="M480.363,293.037l10.965-6.331V320.47L480.363,326.8Z" transform="translate(-469.398 -286.706)"/><path class="d" d="M478,326.8V293.037l-10.965-6.331V320.47Z" transform="translate(-467.039 -286.706)"/></g><g transform="translate(0 54.344)"><path class="d" d="M449.722,346.526V327.533L438.757,321.2v18.992Z" transform="translate(-438.757 -314.872)"/><path class="c" d="M452.081,327.533l10.965-6.331v18.992l-10.965,6.331Z" transform="translate(-441.116 -314.872)"/><path class="e" d="M438.757,319.841l10.965-6.331,10.965,6.331-10.965,6.331Z" transform="translate(-438.757 -313.51)"/></g><g transform="translate(46.481)"><path class="d" d="M506.2,307.924V261.5l-10.965-6.331v46.426Z" transform="translate(-495.236 -248.837)"/><path class="c" d="M508.56,261.5l10.965-6.331v46.426l-10.965,6.331Z" transform="translate(-497.595 -248.837)"/><path class="e" d="M495.236,253.806l10.965-6.331,10.965,6.331L506.2,260.137Z" transform="translate(-495.236 -247.475)"/></g><path class="e" d="M467.039,285.344,478,279.013l10.965,6.331L478,291.675Z" transform="translate(-443.764 -253.059)"/></g></g><g transform="translate(-229.616 302.243)"><g transform="translate(149 -16)"><path class="a" d="M306.125,221.236c-9.8-5.658-25.689-5.658-35.488,0s-9.8,14.831,0,20.489,25.689,5.658,35.489,0S315.925,226.894,306.125,221.236Zm-9.587,14.954c-4.505,2.6-11.808,2.6-16.313,0s-4.505-6.818,0-9.419,11.808-2.6,16.313,0S301.042,233.589,296.538,236.19Z"/><path class="c" d="M266.935,217.884l8.952.139a9.516,9.516,0,0,1,2.827-2.377c4.922-2.842,12.663-3.061,18.025-.663l5.32-5,8.19.127c-.4-.265-.82-.525-1.259-.779-11.382-6.571-29.836-6.572-41.218,0a21.621,21.621,0,0,0-5.121,3.99Z"/><path class="d" d="M310.249,197.109v13l-8.19-.128v-13Z"/><path class="c" d="M296.739,201.984v13l5.319-5v-13Z"/><path class="c" d="M275.887,205.024v13l11.775-9.6,9.077,6.556v-13l-8.358-4.055s-11.506,3.523-12.1,3.672S275.887,205.024,275.887,205.024Z"/><path class="c" d="M266.935,204.885v13l8.951.14v-13Z"/><path class="c" d="M262.651,200.32v13l4.285,4.565v-13Z"/><path class="e" d="M266.935,204.885l8.952.139a9.516,9.516,0,0,1,2.827-2.377c4.922-2.842,12.663-3.061,18.025-.663l5.32-5,8.19.127c-.4-.264-.82-.526-1.259-.779-11.382-6.571-29.836-6.572-41.218,0a21.621,21.621,0,0,0-5.121,3.99Z"/><path class="f" d="M299.436,203.583v11.95l7.748-1.857s-.455-6.992-.62-7.179S299.436,203.583,299.436,203.583Z"/><path class="f" d="M293.572,215.533v13l.837.892,5.463-3.15s-.848-9.923-.947-10.122A51.729,51.729,0,0,0,293.572,215.533Z"/><path class="g" d="M304.12,212.177l-4.684,4.4c3.9,3.087,3.44,7.44-1.387,10.227a16.657,16.657,0,0,1-4.477,1.723l4.842,5.158-4.291,4.035a38.983,38.983,0,0,0,14.868-4.6c9.784-5.649,11.149-14.313,4.11-20.809Z"/><path class="g" d="M294.124,224.726v13l10.623-4.1,12.776-12.189-.047-13.8-13.517,10.714Z"/><path class="h" d="M304.12,199.178l-4.684,4.4c3.9,3.087,3.44,7.44-1.387,10.227a16.657,16.657,0,0,1-4.477,1.723l4.842,5.158-4.291,4.035a38.982,38.982,0,0,0,14.868-4.6c9.784-5.649,11.149-14.313,4.11-20.809Z"/><path class="g" d="M294.089,233.623l-4.268-4.547a20.406,20.406,0,0,1-11.107-2.267c-3.136-1.811-4.428-4.282-3.88-6.638l-10.162-.159-3.908-4.163c-3.418,5.866-1.086,12.6,7.009,17.277,5.947,3.434,13.826,5.07,21.618,4.915Z"/><path class="g" d="M289.391,225.042v13l-30.148-16.707V208.329l4.4,1.78Z"/><path class="f" d="M294.089,220.624v13l-4.7,4.418v-13Z"/><path class="h" d="M294.089,220.623l-4.268-4.546a20.406,20.406,0,0,1-11.107-2.267c-3.136-1.811-4.428-4.282-3.88-6.638l-10.162-.159-3.908-4.163c-3.418,5.866-1.086,12.6,7.009,17.277,5.947,3.434,13.826,5.07,21.618,4.915Z"/></g></g><g transform="translate(30.964 21.657)"><g transform="translate(176.801 383.225)"><g transform="translate(0 0)"><path class="c" d="M525.875,175.827,498.133,159.81a1.423,1.423,0,0,0-1.434-.115l0-.018-2.691,1.555s1.192.434,1.891.69v20.2a5.346,5.346,0,0,0,2.232,4.265L524.65,201.7v2.371l2.718-1.565-.015-.006a1.977,1.977,0,0,0,.754-1.779V180.092A5.345,5.345,0,0,0,525.875,175.827Z" transform="translate(-493.161 -159.55)"/><path class="e" d="M522.825,204.559l-27.742-16.017a5.344,5.344,0,0,1-2.232-4.265V163.649c0-1.644,1-2.4,2.232-1.687l27.742,16.017a5.346,5.346,0,0,1,2.232,4.265v20.628C525.058,204.516,524.058,205.271,522.825,204.559Z" transform="translate(-492.851 -160.123)"/></g><g transform="translate(7.818 17.813)"><path class="i" d="M507.262,187.354c0,1.194-.838,1.678-1.872,1.081a4.138,4.138,0,0,1-1.872-3.242c0-1.194.838-1.678,1.872-1.08A4.138,4.138,0,0,1,507.262,187.354Z" transform="translate(-503.518 -183.857)"/><path class="i" d="M515,191.822c0,1.193-.838,1.678-1.872,1.08a4.136,4.136,0,0,1-1.872-3.242c0-1.193.838-1.678,1.872-1.08A4.136,4.136,0,0,1,515,191.822Z" transform="translate(-505.585 -185.05)"/><path class="i" d="M522.737,196.289c0,1.194-.838,1.678-1.872,1.08a4.137,4.137,0,0,1-1.872-3.241c0-1.194.839-1.678,1.872-1.081A4.138,4.138,0,0,1,522.737,196.289Z" transform="translate(-507.652 -186.243)"/></g></g><g transform="translate(214.801 407.288)"><g transform="translate(0 0)"><path class="g" d="M504.333,140.436,476.59,124.419a1.423,1.423,0,0,0-1.434-.115l0-.018-2.691,1.554,1.891.691v20.2A5.348,5.348,0,0,0,476.59,151l26.517,15.309v2.371l2.718-1.566-.015-.005a1.977,1.977,0,0,0,.754-1.779V144.7A5.344,5.344,0,0,0,504.333,140.436Z" transform="translate(-471.618 -124.159)"/><path class="h" d="M501.282,169.169,473.54,153.152a5.347,5.347,0,0,1-2.232-4.265V128.258c0-1.644,1-2.4,2.232-1.687l27.742,16.017a5.344,5.344,0,0,1,2.232,4.265v20.629C503.515,169.125,502.516,169.88,501.282,169.169Z" transform="translate(-471.308 -124.732)"/></g><g transform="translate(7.818 17.813)"><path class="i" d="M485.719,151.963c0,1.194-.838,1.678-1.872,1.081a4.137,4.137,0,0,1-1.872-3.242c0-1.194.838-1.678,1.872-1.08A4.138,4.138,0,0,1,485.719,151.963Z" transform="translate(-481.976 -148.466)"/><path class="i" d="M493.457,156.431c0,1.193-.838,1.677-1.872,1.08a4.138,4.138,0,0,1-1.872-3.242c0-1.193.838-1.678,1.872-1.08A4.137,4.137,0,0,1,493.457,156.431Z" transform="translate(-484.043 -149.659)"/><path class="i" d="M501.194,160.9c0,1.194-.838,1.678-1.872,1.08a4.136,4.136,0,0,1-1.872-3.241c0-1.194.838-1.678,1.872-1.081A4.136,4.136,0,0,1,501.194,160.9Z" transform="translate(-486.11 -150.852)"/></g></g></g><rect class="a" width="36" height="3" rx="1.5" transform="translate(210.146 438.652) rotate(30)"/><rect class="a" width="36" height="3" rx="1.5" transform="translate(246.146 460.652) rotate(30)"/></g></svg>