<svg xmlns="http://www.w3.org/2000/svg" xmlns:xlink="http://www.w3.org/1999/xlink" width="198.423" height="187.798" viewBox="0 0 198.423 187.798">
  <defs>
    <clipPath id="clip-path">
      <path id="Path_16314" data-name="Path 16314" d="M159.777,322.8l-15.635,8.392a3.182,3.182,0,0,1-.334.154c-2.37.931-6.015-.917-8.3-2.338-1.229-.766-2.062-1.409-2.086-1.428l15.635-8.392c.024.018.857.661,2.086,1.427,2.281,1.422,5.927,3.269,8.3,2.338A3.1,3.1,0,0,0,159.777,322.8Z" transform="translate(-133.426 -319.19)" fill="#fa3535"/>
    </clipPath>
    <clipPath id="clip-path-2">
      <path id="Path_16327" data-name="Path 16327" d="M166.4,322.5l-15.636,8.392c1.289-.692,1.988-2.245,2.075-4.625l15.635-8.392C168.386,320.256,167.688,321.809,166.4,322.5Z" transform="translate(-150.763 -317.875)" fill="#d82c2c"/>
    </clipPath>
  </defs>
  <g id="Group_10097" data-name="Group 10097" transform="translate(-106.14 -83.001)">
    <g id="Group_10134" data-name="Group 10134" transform="translate(135.057 187.65)">
      <g id="Group_10104" data-name="Group 10104">
        <g id="Group_10100" data-name="Group 10100" transform="translate(0 0.731)">
          <g id="Group_10099" data-name="Group 10099">
            <g id="Group_10098" data-name="Group 10098">
              <path id="Path_16178" data-name="Path 16178" d="M294.6,262.45c1.383.8,1.39,2.092.016,2.89L205.2,317.309a5.5,5.5,0,0,1-4.99,0l-45.661-26.362c-1.382-.8-1.389-2.092-.016-2.891l89.424-51.967a5.5,5.5,0,0,1,4.99,0Z" transform="translate(-153.506 -235.49)" fill="#86909a"/>
            </g>
          </g>
        </g>
        <g id="Group_10103" data-name="Group 10103" transform="translate(0.081)">
          <g id="Group_10102" data-name="Group 10102">
            <g id="Group_10101" data-name="Group 10101">
              <path id="Path_16179" data-name="Path 16179" d="M294.719,261.423c1.382.8,1.39,2.092.016,2.89l-89.424,51.967a5.5,5.5,0,0,1-4.99,0l-45.66-26.362c-1.382-.8-1.39-2.092-.016-2.89l89.424-51.967a5.5,5.5,0,0,1,4.99,0Z" transform="translate(-153.62 -234.463)" fill="#bdc9d6"/>
            </g>
          </g>
        </g>
      </g>
      <g id="Group_10133" data-name="Group 10133" transform="translate(10.436 53.076)">
        <g id="Group_10132" data-name="Group 10132">
          <g id="Group_10122" data-name="Group 10122">
            <g id="Group_10121" data-name="Group 10121" style="isolation: isolate">
              <path id="Path_16274" data-name="Path 16274" d="M168.225,306.018l.247.088.3.1.6.21.6.21.3.105.319.112-.7.779-1.712-1.482C168.185,306.1,168.206,306.061,168.225,306.018Z" transform="translate(-168.165 -306.018)" fill="#7e7ae6"/>
              <path id="Path_16275" data-name="Path 16275" d="M171.265,307.183c.1.034,2.978.975,3.1,1.044-.064.112-.11.126-.3.234a1.818,1.818,0,0,0-.908,1.388,1.5,1.5,0,0,0,.257.791c-.923-.8-1.92-1.879-2.843-2.679C170.469,307.72,171.047,307.152,171.265,307.183Z" transform="translate(-168.854 -306.353)" fill="#fff"/>
              <g id="Group_10120" data-name="Group 10120" transform="translate(4.298 1.952)">
                <path id="Path_16276" data-name="Path 16276" d="M174.2,310.3c-.006.537.364.762.827.5a1.841,1.841,0,0,0,.85-1.439c.006-.536-.363-.762-.826-.5A1.841,1.841,0,0,0,174.2,310.3Z" transform="translate(-174.203 -308.76)" fill="#fff"/>
              </g>
            </g>
          </g>
          <g id="Group_10131" data-name="Group 10131" transform="translate(4.063 1.856)">
            <g id="Group_10130" data-name="Group 10130" style="isolation: isolate">
              <g id="Group_10124" data-name="Group 10124" transform="translate(0 1.758)">
                <g id="Group_10123" data-name="Group 10123">
                  <path id="Path_16277" data-name="Path 16277" d="M207.5,330.614,173.872,311.1l.474.667,33.628,19.519Z" transform="translate(-173.872 -311.095)" fill="#f43232"/>
                </g>
              </g>
              <g id="Group_10126" data-name="Group 10126" transform="translate(0 0.546)">
                <g id="Group_10125" data-name="Group 10125">
                  <path id="Path_16278" data-name="Path 16278" d="M207.969,328.911l-33.629-19.519-.469,1.212L207.5,330.123Z" transform="translate(-173.872 -309.392)" fill="#fa3535"/>
                </g>
              </g>
              <g id="Group_10128" data-name="Group 10128" transform="translate(0.469)">
                <g id="Group_10127" data-name="Group 10127">
                  <path id="Path_16279" data-name="Path 16279" d="M209.1,328.144l-33.628-19.519-.945.546,33.629,19.519Z" transform="translate(-174.53 -308.626)" fill="#fa3535"/>
                </g>
              </g>
              <g id="Group_10129" data-name="Group 10129" transform="translate(33.629 19.519)">
                <path id="Path_16280" data-name="Path 16280" d="M221.578,336.589l-.469,1.212.474.667.945-.546.47-1.212-.475-.667Z" transform="translate(-221.11 -336.044)" fill="#fff"/>
              </g>
            </g>
          </g>
        </g>
      </g>
    </g>
    <g id="Group_10091" data-name="Group 10091" transform="translate(121.717 83.001)">
      <g id="Group_9927" data-name="Group 9927">
        <g id="Group_9906" data-name="Group 9906" transform="translate(42.235 100.893)">
          <path id="Path_16002" data-name="Path 16002" d="M202.107,226.58s-4.759,13,0,15.747l2.3,1.328.007,0,9.023,5.212a1.409,1.409,0,0,1,0,2.667l-12.674,7.321a5.011,5.011,0,0,1-4.6-.039l-6.435-3.806-.065.031c-.739-.461-1.431-.893-2.053-1.284l-.283-.167c-.026-.016-.043-.036-.069-.053-1.3-.819-2.188-1.38-2.188-1.38s-4.026-2.948-4.026-13.422Z" transform="translate(-181.045 -225.259)" fill="#e8e8e8"/>
          <path id="Path_16003" data-name="Path 16003" d="M181.044,236.87c0,10.475,4.026,13.421,4.026,13.421s.881.557,2.193,1.38a.334.334,0,0,1,.07.058l.278.162q.939.592,2.053,1.288l.07-.035.743.441,5.684,3.364a5.005,5.005,0,0,0,4.605.035l12.668-7.32c1.276-.73,1.276-1.926,0-2.668l-5.7-3.295-3.317-1.914h-.012c-.824-.476-1.612-.928-2.3-1.334-4.652-2.68-.232-15.1-.012-15.719v-.012h-.011Z" transform="translate(-181.044 -224.724)" fill="#fff"/>
          <path id="Path_16004" data-name="Path 16004" d="M181.044,236.87c0,10.475,4.026,13.421,4.026,13.421s.881.557,2.193,1.38a.334.334,0,0,1,.07.058l.278.162q.939.592,2.053,1.288l.07-.035.743.441,17.261-9.883-3.317-1.914h-.012c-.824-.476-1.612-.928-2.3-1.334-4.652-2.68-.232-15.1-.012-15.719l-.011-.012Z" transform="translate(-181.044 -224.724)" fill="#e6e6e6"/>
        </g>
        <g id="Group_9926" data-name="Group 9926">
          <g id="Group_9914" data-name="Group 9914">
            <g id="Group_9913" data-name="Group 9913" style="isolation: isolate">
              <g id="Group_9907" data-name="Group 9907" transform="translate(95.132)">
                <path id="Path_16005" data-name="Path 16005" d="M258.3,83.281l3.348,1.946a2.933,2.933,0,0,0-2.958.29l-3.348-1.946A2.932,2.932,0,0,1,258.3,83.281Z" transform="translate(-255.347 -83.001)" fill="#e8e8e8"/>
              </g>
              <g id="Group_9908" data-name="Group 9908" transform="translate(0.206 133.079)">
                <path id="Path_16006" data-name="Path 16006" d="M126.566,274.547l-3.348-1.946a2.91,2.91,0,0,1-1.212-2.665l3.348,1.946A2.91,2.91,0,0,0,126.566,274.547Z" transform="translate(-122.006 -269.936)" fill="#e8e8e8"/>
              </g>
              <g id="Group_9909" data-name="Group 9909" transform="translate(0 60.279)">
                <path id="Path_16007" data-name="Path 16007" d="M125.271,242.42l-3.348-1.946-.206-72.8,3.348,1.946Z" transform="translate(-121.717 -167.674)" fill="#e8e8e8"/>
              </g>
              <g id="Group_9910" data-name="Group 9910" transform="translate(4.142 0.57)">
                <path id="Path_16008" data-name="Path 16008" d="M130.882,138.28l-3.348-1.946L218.524,83.8l3.348,1.946Z" transform="translate(-127.534 -83.802)" fill="#e8e8e8"/>
              </g>
              <g id="Group_9911" data-name="Group 9911" transform="translate(0 53.103)">
                <path id="Path_16009" data-name="Path 16009" d="M125.065,166.716l-3.348-1.946a9.129,9.129,0,0,1,4.141-7.176l3.348,1.946A9.129,9.129,0,0,0,125.065,166.716Z" transform="translate(-121.717 -157.594)" fill="#e8e8e8"/>
              </g>
              <g id="Group_9912" data-name="Group 9912" transform="translate(3.348 1.946)">
                <path id="Path_16010" data-name="Path 16010" d="M221.551,86.3c2.3-1.325,4.163-.263,4.171,2.376l.206,72.8a9.132,9.132,0,0,1-4.144,7.175l-90.99,52.533c-2.294,1.325-4.161.261-4.169-2.376l-.206-72.8a9.13,9.13,0,0,1,4.141-7.176Z" transform="translate(-126.42 -85.734)" fill="#e8e8e8"/>
              </g>
            </g>
          </g>
          <g id="Group_9916" data-name="Group 9916" transform="translate(3.351 1.861)">
            <g id="Group_9915" data-name="Group 9915">
              <path id="Path_16011" data-name="Path 16011" d="M221.556,86.185c2.3-1.326,4.163-.263,4.17,2.374l.206,72.8a9.131,9.131,0,0,1-4.143,7.175L130.8,221.07c-2.3,1.325-4.161.261-4.169-2.376l-.206-72.8a9.13,9.13,0,0,1,4.142-7.174Z" transform="translate(-126.424 -85.615)" fill="#121212"/>
            </g>
          </g>
          <g id="Group_9917" data-name="Group 9917" transform="translate(3.533 71.876)">
            <path id="Path_16012" data-name="Path 16012" d="M225.982,183.965l.017,5.809a9.132,9.132,0,0,1-4.144,7.175l-90.99,52.533c-2.294,1.325-4.161.261-4.168-2.376l-.017-5.809Z" transform="translate(-126.68 -183.965)" fill="#f5f5f5"/>
          </g>
          <g id="Group_9922" data-name="Group 9922" transform="translate(7.837 6.718)">
            <g id="Group_9919" data-name="Group 9919">
              <g id="Group_9918" data-name="Group 9918">
                <path id="Path_16013" data-name="Path 16013" d="M224.24,92.438l.178,62.647L132.9,207.921l-.178-62.647Z" transform="translate(-132.725 -92.438)" fill="#fa3535"/>
              </g>
            </g>
            <g id="Group_9921" data-name="Group 9921" transform="translate(19.853 0.014)" opacity="0.1">
              <g id="Group_9920" data-name="Group 9920">
                <path id="Path_16014" data-name="Path 16014" d="M232.281,92.458l.178,62.647-17.151,9.9-54.7-31.17Z" transform="translate(-160.611 -92.458)" fill="#c62020"/>
              </g>
            </g>
          </g>
          <g id="Group_9923" data-name="Group 9923" transform="translate(87.632 81.02)">
            <path id="Path_16015" data-name="Path 16015" d="M255.363,196.809l.034,14.44-10.551,6.092-.034-14.44Z" transform="translate(-244.812 -196.809)" fill="#fa3535"/>
          </g>
          <g id="Group_9925" data-name="Group 9925" transform="translate(91.34 81.493)">
            <g id="Group_9924" data-name="Group 9924">
              <path id="Path_16016" data-name="Path 16016" d="M252.694,197.473l.009,3.658-2.673,1.543-.009-3.658Z" transform="translate(-250.021 -197.473)" fill="#1777f3"/>
            </g>
          </g>
        </g>
      </g>
      <g id="Group_10090" data-name="Group 10090" transform="translate(47.727 121.02)">
        <g id="Group_9928" data-name="Group 9928" transform="translate(0 0.982)">
          <path id="Path_16017" data-name="Path 16017" d="M274.465,268.473a.892.892,0,0,1,.01,1.689l-58.382,33.928a3.211,3.211,0,0,1-2.915,0l-23.812-13.748a.892.892,0,0,1-.009-1.689l58.382-33.927a3.215,3.215,0,0,1,2.915,0Z" transform="translate(-188.758 -254.376)" fill="#e8e8e8"/>
        </g>
        <g id="Group_9929" data-name="Group 9929">
          <path id="Path_16018" data-name="Path 16018" d="M274.465,267.094a.892.892,0,0,1,.01,1.689L216.093,302.71a3.211,3.211,0,0,1-2.915,0l-23.812-13.748a.892.892,0,0,1-.009-1.688l58.382-33.928a3.212,3.212,0,0,1,2.915,0Z" transform="translate(-188.758 -252.997)" fill="#fff"/>
        </g>
        <g id="Group_10089" data-name="Group 10089" transform="translate(3.315 1.369)">
          <g id="Group_9931" data-name="Group 9931" transform="translate(12.579 24.368)">
            <g id="Group_9930" data-name="Group 9930">
              <path id="Path_16019" data-name="Path 16019" d="M216.832,290.433a.213.213,0,0,1,0,.4L213.79,292.6a.763.763,0,0,1-.693,0l-1.578-.911a.213.213,0,0,1,0-.4l3.044-1.768a.767.767,0,0,1,.694,0Z" transform="translate(-211.167 -289.233)" fill="#e8e8e8"/>
              <path id="Path_16020" data-name="Path 16020" d="M213.361,292.81a.91.91,0,0,1-.451-.112l-1.578-.911a.415.415,0,0,1,0-.758l3.044-1.768a.965.965,0,0,1,.9,0l1.578.911a.415.415,0,0,1,0,.758L213.81,292.7A.908.908,0,0,1,213.361,292.81Zm-1.856-1.4a.188.188,0,0,0,.033.023l1.578.911a.56.56,0,0,0,.488,0l3.044-1.768a.2.2,0,0,0,.031-.023.173.173,0,0,0-.033-.024l-1.578-.911a.563.563,0,0,0-.488,0l-3.044,1.768A.2.2,0,0,0,211.5,291.407Z" transform="translate(-211.084 -289.149)" fill="#fff"/>
            </g>
          </g>
          <g id="Group_9933" data-name="Group 9933" transform="translate(8.386 26.805)">
            <g id="Group_9932" data-name="Group 9932">
              <path id="Path_16021" data-name="Path 16021" d="M210.942,293.857a.212.212,0,0,1,0,.4l-3.044,1.769a.765.765,0,0,1-.694,0l-1.578-.911a.213.213,0,0,1,0-.4l3.044-1.768a.765.765,0,0,1,.694,0Z" transform="translate(-205.277 -292.656)" fill="#e8e8e8"/>
              <path id="Path_16022" data-name="Path 16022" d="M207.47,296.233a.915.915,0,0,1-.45-.112l-1.578-.911a.414.414,0,0,1,0-.757l3.044-1.769a.965.965,0,0,1,.9,0l1.578.911a.415.415,0,0,1,0,.758l-3.044,1.769A.913.913,0,0,1,207.47,296.233Zm-1.856-1.4a.2.2,0,0,0,.033.023l1.578.912a.566.566,0,0,0,.488,0L210.758,294a.269.269,0,0,0,.031-.022.172.172,0,0,0-.033-.023l-1.578-.911a.566.566,0,0,0-.488,0l-3.044,1.769A.269.269,0,0,0,205.614,294.83Z" transform="translate(-205.194 -292.572)" fill="#fff"/>
            </g>
          </g>
          <g id="Group_9935" data-name="Group 9935" transform="translate(4.193 29.242)">
            <g id="Group_9934" data-name="Group 9934">
              <path id="Path_16023" data-name="Path 16023" d="M205.051,297.28a.212.212,0,0,1,0,.4l-3.043,1.769a.765.765,0,0,1-.694,0l-1.578-.911a.213.213,0,0,1,0-.4l3.044-1.768a.763.763,0,0,1,.693,0Z" transform="translate(-199.387 -296.079)" fill="#e8e8e8"/>
              <path id="Path_16024" data-name="Path 16024" d="M201.58,299.656a.912.912,0,0,1-.45-.111l-1.579-.911a.415.415,0,0,1,0-.758l3.043-1.768a.966.966,0,0,1,.9,0l1.578.911a.415.415,0,0,1,0,.758l-3.044,1.768A.905.905,0,0,1,201.58,299.656Zm-1.856-1.4a.236.236,0,0,0,.033.023l1.579.911a.568.568,0,0,0,.488,0l3.043-1.769a.173.173,0,0,0,.031-.022.188.188,0,0,0-.033-.023l-1.578-.911a.566.566,0,0,0-.488,0l-3.043,1.769A.181.181,0,0,0,199.724,298.254Z" transform="translate(-199.304 -295.995)" fill="#fff"/>
            </g>
          </g>
          <g id="Group_9937" data-name="Group 9937" transform="translate(0 31.678)">
            <g id="Group_9936" data-name="Group 9936">
              <path id="Path_16025" data-name="Path 16025" d="M199.162,300.7a.213.213,0,0,1,0,.4l-3.044,1.769a.764.764,0,0,1-.694,0l-1.578-.911a.213.213,0,0,1,0-.4l3.044-1.769a.768.768,0,0,1,.693,0Z" transform="translate(-193.497 -299.501)" fill="#e8e8e8"/>
              <path id="Path_16026" data-name="Path 16026" d="M195.69,303.079a.913.913,0,0,1-.45-.112l-1.578-.911a.415.415,0,0,1,0-.758l3.044-1.769a.965.965,0,0,1,.9,0l1.578.911a.415.415,0,0,1,0,.758l-3.044,1.769A.911.911,0,0,1,195.69,303.079Zm-1.856-1.4a.175.175,0,0,0,.033.023l1.578.912a.568.568,0,0,0,.488,0l3.043-1.769a.184.184,0,0,0,.031-.022.187.187,0,0,0-.033-.023l-1.578-.911a.563.563,0,0,0-.488,0l-3.044,1.769A.272.272,0,0,0,193.834,301.676Z" transform="translate(-193.414 -299.418)" fill="#fff"/>
            </g>
          </g>
          <g id="Group_9939" data-name="Group 9939" transform="translate(2.537 33.143)">
            <g id="Group_9938" data-name="Group 9938">
              <path id="Path_16027" data-name="Path 16027" d="M204.149,303.582a.212.212,0,0,1,0,.4l-3.044,1.768a.765.765,0,0,1-.694,0l-3-1.733a.213.213,0,0,1,0-.4l3.043-1.769a.767.767,0,0,1,.694,0Z" transform="translate(-197.061 -301.559)" fill="#e8e8e8"/>
              <path id="Path_16028" data-name="Path 16028" d="M200.678,305.959a.913.913,0,0,1-.451-.112l-3-1.733a.449.449,0,0,1-.248-.379.443.443,0,0,1,.245-.378l3.044-1.769a.963.963,0,0,1,.9,0l3,1.733a.449.449,0,0,1,.248.38.444.444,0,0,1-.245.378l-3.045,1.769A.9.9,0,0,1,200.678,305.959Zm-3.28-2.225a.188.188,0,0,0,.033.023l3,1.733a.563.563,0,0,0,.488,0l3.044-1.768A.2.2,0,0,0,204,303.7a.213.213,0,0,0-.033-.023l-3-1.733a.564.564,0,0,0-.487,0l-3.044,1.769A.22.22,0,0,0,197.4,303.734Z" transform="translate(-196.978 -301.476)" fill="#fff"/>
            </g>
          </g>
          <g id="Group_9941" data-name="Group 9941" transform="translate(17.492 33.621)">
            <g id="Group_9940" data-name="Group 9940">
              <path id="Path_16029" data-name="Path 16029" d="M225.157,304.253a.213.213,0,0,1,0,.4l-3.044,1.769a.767.767,0,0,1-.694,0l-3-1.733a.212.212,0,0,1,0-.4l3.043-1.768a.767.767,0,0,1,.694,0Z" transform="translate(-218.068 -302.23)" fill="#e8e8e8"/>
              <path id="Path_16030" data-name="Path 16030" d="M221.685,306.63a.917.917,0,0,1-.451-.111l-3-1.733a.415.415,0,0,1,0-.758l3.043-1.768a.966.966,0,0,1,.9,0l3,1.733a.415.415,0,0,1,0,.759l-3.043,1.768A.905.905,0,0,1,221.685,306.63Zm-3.28-2.225a.19.19,0,0,0,.033.023l3,1.733a.566.566,0,0,0,.488,0l3.043-1.769a.183.183,0,0,0,.032-.023.211.211,0,0,0-.033-.023l-3-1.733a.565.565,0,0,0-.488,0l-3.043,1.768A.215.215,0,0,0,218.406,304.405Z" transform="translate(-217.985 -302.147)" fill="#fff"/>
            </g>
          </g>
          <g id="Group_9943" data-name="Group 9943" transform="translate(12.547 31.87)">
            <g id="Group_9942" data-name="Group 9942">
              <path id="Path_16031" data-name="Path 16031" d="M218.211,301.793a.213.213,0,0,1,0,.4l-3.043,1.769a.765.765,0,0,1-.694,0l-3-1.733a.212.212,0,0,1,0-.4l3.043-1.769a.766.766,0,0,1,.695,0Z" transform="translate(-211.122 -299.77)" fill="#e8e8e8"/>
              <path id="Path_16032" data-name="Path 16032" d="M214.739,304.171a.913.913,0,0,1-.45-.112l-3-1.733a.415.415,0,0,1,0-.758l3.043-1.769a.964.964,0,0,1,.9,0l3,1.733a.415.415,0,0,1,0,.758l-3.043,1.769A.912.912,0,0,1,214.739,304.171Zm-3.28-2.225a.212.212,0,0,0,.033.023l3,1.733a.566.566,0,0,0,.488,0l3.043-1.769a.289.289,0,0,0,.032-.022.2.2,0,0,0-.033-.024l-3-1.733a.563.563,0,0,0-.488,0l-3.044,1.768A.2.2,0,0,0,211.459,301.946Z" transform="translate(-211.039 -299.687)" fill="#fff"/>
            </g>
          </g>
          <g id="Group_9945" data-name="Group 9945" transform="translate(6.567 30.802)">
            <g id="Group_9944" data-name="Group 9944">
              <path id="Path_16033" data-name="Path 16033" d="M209.809,300.292a.213.213,0,0,1,0,.4l-3.044,1.768a.765.765,0,0,1-.694,0l-3-1.733a.212.212,0,0,1,0-.4l3.043-1.769a.765.765,0,0,1,.694,0Z" transform="translate(-202.721 -298.27)" fill="#e8e8e8"/>
              <path id="Path_16034" data-name="Path 16034" d="M206.338,302.67a.91.91,0,0,1-.451-.112l-3-1.733a.45.45,0,0,1-.248-.379.444.444,0,0,1,.245-.379l3.044-1.768a.962.962,0,0,1,.9,0l3,1.733a.415.415,0,0,1,0,.759l-3.043,1.768A.913.913,0,0,1,206.338,302.67Zm-3.28-2.225a.188.188,0,0,0,.033.023l3,1.733a.563.563,0,0,0,.488,0l3.043-1.768a.181.181,0,0,0,.032-.023.174.174,0,0,0-.033-.023l-3-1.733a.561.561,0,0,0-.488,0l-3.043,1.769A.176.176,0,0,0,203.059,300.445Z" transform="translate(-202.638 -298.186)" fill="#fff"/>
            </g>
          </g>
          <g id="Group_9947" data-name="Group 9947" transform="translate(31.582 30.058)">
            <g id="Group_9946" data-name="Group 9946">
              <path id="Path_16035" data-name="Path 16035" d="M244.948,299.248a.212.212,0,0,1,0,.4l-3.043,1.769a.764.764,0,0,1-.695,0l-3-1.733a.212.212,0,0,1,0-.4l3.044-1.769a.763.763,0,0,1,.693,0Z" transform="translate(-237.86 -297.226)" fill="#e8e8e8"/>
              <path id="Path_16036" data-name="Path 16036" d="M241.477,301.625a.917.917,0,0,1-.451-.111l-3-1.733a.415.415,0,0,1,0-.757l3.043-1.769a.966.966,0,0,1,.9,0l3,1.733a.414.414,0,0,1,0,.758l-3.043,1.768A.905.905,0,0,1,241.477,301.625ZM238.2,299.4a.236.236,0,0,0,.033.023l3,1.733a.567.567,0,0,0,.488,0l3.043-1.769a.266.266,0,0,0,.031-.022.175.175,0,0,0-.033-.023l-3-1.733a.566.566,0,0,0-.488,0l-3.044,1.768A.2.2,0,0,0,238.2,299.4Z" transform="translate(-237.777 -297.142)" fill="#fff"/>
            </g>
          </g>
          <g id="Group_9949" data-name="Group 9949" transform="translate(35.62 27.712)">
            <g id="Group_9948" data-name="Group 9948">
              <path id="Path_16037" data-name="Path 16037" d="M250.619,295.952a.212.212,0,0,1,0,.4l-3.043,1.768a.764.764,0,0,1-.695,0l-3-1.733a.213.213,0,0,1,0-.4l3.043-1.768a.765.765,0,0,1,.694,0Z" transform="translate(-243.532 -293.93)" fill="#e8e8e8"/>
              <path id="Path_16038" data-name="Path 16038" d="M247.149,298.329a.915.915,0,0,1-.451-.111l-3-1.733a.415.415,0,0,1,0-.758l3.043-1.768a.965.965,0,0,1,.9,0l3,1.733a.415.415,0,0,1,0,.758l-3.043,1.768A.905.905,0,0,1,247.149,298.329Zm-3.28-2.224a.233.233,0,0,0,.033.023l3,1.733a.565.565,0,0,0,.488,0l3.043-1.769a.27.27,0,0,0,.031-.022.2.2,0,0,0-.033-.024l-3-1.733a.564.564,0,0,0-.487,0l-3.044,1.769A.17.17,0,0,0,243.869,296.1Z" transform="translate(-243.449 -293.846)" fill="#fff"/>
            </g>
          </g>
          <g id="Group_9968" data-name="Group 9968" transform="translate(10.596 23.777)" style="isolation: isolate">
            <g id="Group_9951" data-name="Group 9951" transform="translate(8.059)">
              <g id="Group_9950" data-name="Group 9950">
                <path id="Path_16039" data-name="Path 16039" d="M226.789,290.425a.212.212,0,0,1,0,.4l-3.044,1.768a.76.76,0,0,1-.694,0l-3-1.733a.212.212,0,0,1,0-.4l3.043-1.768a.765.765,0,0,1,.694,0Z" transform="translate(-219.701 -288.403)" fill="#e8e8e8"/>
                <path id="Path_16040" data-name="Path 16040" d="M223.318,292.8a.917.917,0,0,1-.451-.111l-3-1.733a.415.415,0,0,1,0-.758l3.044-1.768a.965.965,0,0,1,.9,0l3,1.733a.414.414,0,0,1,0,.757l-3.043,1.769A.906.906,0,0,1,223.318,292.8Zm-3.28-2.224a.21.21,0,0,0,.033.023l3,1.733a.567.567,0,0,0,.488,0l3.043-1.769a.182.182,0,0,0,.031-.022.207.207,0,0,0-.033-.024l-3-1.733a.563.563,0,0,0-.488,0l-3.043,1.768A.18.18,0,0,0,220.038,290.578Z" transform="translate(-219.618 -288.319)" fill="#fff"/>
              </g>
            </g>
            <g id="Group_9953" data-name="Group 9953" transform="translate(14.039 1.068)">
              <g id="Group_9952" data-name="Group 9952">
                <path id="Path_16041" data-name="Path 16041" d="M235.19,291.926a.212.212,0,0,1,0,.4l-3.044,1.769a.763.763,0,0,1-.693,0l-3-1.733a.212.212,0,0,1,0-.4l3.044-1.769a.762.762,0,0,1,.694,0Z" transform="translate(-228.101 -289.903)" fill="#e8e8e8"/>
                <path id="Path_16042" data-name="Path 16042" d="M231.718,294.3a.917.917,0,0,1-.451-.111l-3-1.733a.415.415,0,0,1,0-.758l3.044-1.768a.96.96,0,0,1,.9,0l3,1.733a.414.414,0,0,1,0,.757l-3.044,1.769A.905.905,0,0,1,231.718,294.3Zm-3.28-2.225a.172.172,0,0,0,.033.023l3,1.734a.564.564,0,0,0,.487,0l3.044-1.769a.142.142,0,0,0,.031-.022.234.234,0,0,0-.033-.023l-3-1.733a.565.565,0,0,0-.488,0l-3.044,1.769A.172.172,0,0,0,228.439,292.078Z" transform="translate(-228.018 -289.819)" fill="#fff"/>
              </g>
            </g>
            <g id="Group_9955" data-name="Group 9955" transform="translate(4.029 2.341)">
              <g id="Group_9954" data-name="Group 9954">
                <path id="Path_16043" data-name="Path 16043" d="M221.129,293.714a.212.212,0,0,1,0,.4l-3.044,1.769a.767.767,0,0,1-.694,0l-3-1.733a.212.212,0,0,1,0-.4l3.043-1.768a.765.765,0,0,1,.694,0Z" transform="translate(-214.041 -291.692)" fill="#e8e8e8"/>
                <path id="Path_16044" data-name="Path 16044" d="M217.658,296.092a.917.917,0,0,1-.451-.112l-3-1.733a.415.415,0,0,1,0-.758l3.043-1.769a.965.965,0,0,1,.9,0l3,1.733a.415.415,0,0,1,0,.758l-3.043,1.768A.907.907,0,0,1,217.658,296.092Zm-3.28-2.225a.171.171,0,0,0,.033.023l3,1.733a.562.562,0,0,0,.488,0l3.044-1.769a.165.165,0,0,0,.031-.022.173.173,0,0,0-.033-.023l-3-1.733a.563.563,0,0,0-.488,0l-3.043,1.768A.181.181,0,0,0,214.378,293.867Z" transform="translate(-213.958 -291.608)" fill="#fff"/>
              </g>
            </g>
            <g id="Group_9957" data-name="Group 9957" transform="translate(19.016 2.801)">
              <g id="Group_9956" data-name="Group 9956">
                <path id="Path_16045" data-name="Path 16045" d="M242.181,294.359a.213.213,0,0,1,0,.4l-3.044,1.769a.765.765,0,0,1-.694,0l-3-1.733a.212.212,0,0,1,0-.4l3.044-1.769a.765.765,0,0,1,.694,0Z" transform="translate(-235.093 -292.337)" fill="#e8e8e8"/>
                <path id="Path_16046" data-name="Path 16046" d="M238.71,296.737a.919.919,0,0,1-.451-.112l-3-1.733a.415.415,0,0,1,0-.758l3.044-1.769a.963.963,0,0,1,.9,0l3,1.733a.415.415,0,0,1,0,.758l-3.044,1.769A.912.912,0,0,1,238.71,296.737Zm-3.28-2.225a.145.145,0,0,0,.033.023l3,1.733a.565.565,0,0,0,.488,0L242,294.5a.15.15,0,0,0,.031-.022.162.162,0,0,0-.033-.023l-3-1.733a.563.563,0,0,0-.488,0l-3.043,1.769A.126.126,0,0,0,235.431,294.512Z" transform="translate(-235.01 -292.253)" fill="#fff"/>
              </g>
            </g>
            <g id="Group_9959" data-name="Group 9959" transform="translate(10.009 3.41)">
              <g id="Group_9958" data-name="Group 9958">
                <path id="Path_16047" data-name="Path 16047" d="M229.53,295.215a.213.213,0,0,1,0,.4l-3.043,1.768a.767.767,0,0,1-.694,0l-3-1.733a.212.212,0,0,1,0-.4l3.044-1.769a.767.767,0,0,1,.694,0Z" transform="translate(-222.441 -293.193)" fill="#e8e8e8"/>
                <path id="Path_16048" data-name="Path 16048" d="M226.058,297.592a.916.916,0,0,1-.45-.111l-3-1.733a.415.415,0,0,1,0-.759l3.043-1.768a.966.966,0,0,1,.9,0l3,1.733a.449.449,0,0,1,.248.379.444.444,0,0,1-.246.379l-3.043,1.768A.906.906,0,0,1,226.058,297.592Zm-3.279-2.224a.215.215,0,0,0,.033.023l3,1.733a.565.565,0,0,0,.488,0l3.043-1.768a.281.281,0,0,0,.031-.022.174.174,0,0,0-.033-.024l-3-1.733a.565.565,0,0,0-.488,0l-3.044,1.769A.2.2,0,0,0,222.779,295.368Z" transform="translate(-222.358 -293.109)" fill="#fff"/>
              </g>
            </g>
            <g id="Group_9961" data-name="Group 9961" transform="translate(0 4.683)">
              <g id="Group_9960" data-name="Group 9960">
                <path id="Path_16049" data-name="Path 16049" d="M215.47,297a.213.213,0,0,1,0,.4l-3.044,1.769a.765.765,0,0,1-.694,0l-3-1.733a.212.212,0,0,1,0-.4l3.043-1.769a.765.765,0,0,1,.694,0Z" transform="translate(-208.381 -294.981)" fill="#e8e8e8"/>
                <path id="Path_16050" data-name="Path 16050" d="M212,299.38a.91.91,0,0,1-.451-.111l-3-1.733a.415.415,0,0,1,0-.758l3.044-1.769a.966.966,0,0,1,.9,0l3,1.733a.415.415,0,0,1,0,.758l-3.043,1.769A.912.912,0,0,1,212,299.38Zm-3.28-2.224a.238.238,0,0,0,.033.023l3,1.733a.566.566,0,0,0,.488,0l3.043-1.769a.152.152,0,0,0,.032-.022.173.173,0,0,0-.033-.023l-3-1.733a.567.567,0,0,0-.488,0l-3.043,1.769A.143.143,0,0,0,208.719,297.156Z" transform="translate(-208.298 -294.897)" fill="#fff"/>
              </g>
            </g>
            <g id="Group_9963" data-name="Group 9963" transform="translate(14.976 5.148)">
              <g id="Group_9962" data-name="Group 9962">
                <path id="Path_16051" data-name="Path 16051" d="M236.506,297.657a.212.212,0,0,1,0,.4l-3.044,1.769a.762.762,0,0,1-.694,0l-3-1.733a.212.212,0,0,1,0-.4l3.044-1.769a.765.765,0,0,1,.694,0Z" transform="translate(-229.418 -295.635)" fill="#e8e8e8"/>
                <path id="Path_16052" data-name="Path 16052" d="M233.035,300.034a.92.92,0,0,1-.451-.111l-3-1.733a.414.414,0,0,1,0-.757l3.044-1.769a.965.965,0,0,1,.9,0l3,1.733a.415.415,0,0,1,0,.758l-3.043,1.769A.912.912,0,0,1,233.035,300.034Zm-3.28-2.224a.234.234,0,0,0,.033.023l3,1.733a.565.565,0,0,0,.488,0l3.043-1.769a.183.183,0,0,0,.031-.022.194.194,0,0,0-.033-.024l-3-1.733a.563.563,0,0,0-.488,0l-3.043,1.768A.149.149,0,0,0,229.756,297.81Z" transform="translate(-229.335 -295.551)" fill="#fff"/>
              </g>
            </g>
            <g id="Group_9965" data-name="Group 9965" transform="translate(5.98 5.752)">
              <g id="Group_9964" data-name="Group 9964">
                <path id="Path_16053" data-name="Path 16053" d="M223.87,298.5a.213.213,0,0,1,0,.4l-3.043,1.768a.765.765,0,0,1-.694,0l-3-1.733a.213.213,0,0,1,0-.4l3.044-1.768a.765.765,0,0,1,.694,0Z" transform="translate(-216.781 -296.482)" fill="#e8e8e8"/>
                <path id="Path_16054" data-name="Path 16054" d="M220.4,300.881a.917.917,0,0,1-.451-.111l-3-1.733a.415.415,0,0,1,0-.759l3.043-1.768a.964.964,0,0,1,.9,0l3,1.733a.414.414,0,0,1,0,.758l-3.043,1.768A.905.905,0,0,1,220.4,300.881Zm-3.28-2.224a.215.215,0,0,0,.033.023l3,1.733a.567.567,0,0,0,.488,0l3.043-1.769a.2.2,0,0,0,.031-.022.174.174,0,0,0-.033-.024l-3-1.733a.566.566,0,0,0-.488,0l-3.044,1.769A.2.2,0,0,0,217.119,298.657Z" transform="translate(-216.698 -296.398)" fill="#fff"/>
              </g>
            </g>
            <g id="Group_9967" data-name="Group 9967" transform="translate(10.936 7.496)">
              <g id="Group_9966" data-name="Group 9966">
                <path id="Path_16055" data-name="Path 16055" d="M230.831,300.955a.212.212,0,0,1,0,.4l-3.043,1.768a.762.762,0,0,1-.695,0l-3-1.733a.212.212,0,0,1,0-.4l3.043-1.768a.764.764,0,0,1,.694,0Z" transform="translate(-223.743 -298.933)" fill="#e8e8e8"/>
                <path id="Path_16056" data-name="Path 16056" d="M227.36,303.332a.91.91,0,0,1-.451-.112l-3-1.733a.414.414,0,0,1,0-.757l3.043-1.769a.965.965,0,0,1,.9,0l3,1.733a.415.415,0,0,1,0,.758l-3.043,1.768A.906.906,0,0,1,227.36,303.332Zm-3.279-2.224a.235.235,0,0,0,.033.023l3,1.733a.567.567,0,0,0,.488,0l3.044-1.769a.205.205,0,0,0,.031-.022.246.246,0,0,0-.033-.024l-3-1.733a.563.563,0,0,0-.488,0l-3.043,1.768A.17.17,0,0,0,224.081,301.108Z" transform="translate(-223.66 -298.849)" fill="#fff"/>
              </g>
            </g>
          </g>
          <g id="Group_9970" data-name="Group 9970" transform="translate(36.723 17.82)">
            <g id="Group_9969" data-name="Group 9969">
              <path id="Path_16057" data-name="Path 16057" d="M252.17,282.058a.212.212,0,0,1,0,.4l-3.044,1.769a.768.768,0,0,1-.693,0l-3-1.733a.212.212,0,0,1,0-.4l3.043-1.768a.766.766,0,0,1,.695,0Z" transform="translate(-245.082 -280.035)" fill="#e8e8e8"/>
              <path id="Path_16058" data-name="Path 16058" d="M248.7,284.435a.912.912,0,0,1-.45-.111l-3-1.733a.415.415,0,0,1,0-.758l3.044-1.768a.964.964,0,0,1,.9,0l3,1.733a.415.415,0,0,1,0,.758l-3.043,1.768A.906.906,0,0,1,248.7,284.435Zm-3.28-2.225a.206.206,0,0,0,.033.024l3,1.733a.564.564,0,0,0,.487,0l3.043-1.769a.181.181,0,0,0,.032-.023.191.191,0,0,0-.033-.023l-3-1.733a.563.563,0,0,0-.488,0l-3.044,1.768A.275.275,0,0,0,245.419,282.21Z" transform="translate(-244.999 -279.952)" fill="#fff"/>
            </g>
          </g>
          <g id="Group_9972" data-name="Group 9972" transform="translate(51.771 18.325)">
            <g id="Group_9971" data-name="Group 9971">
              <path id="Path_16059" data-name="Path 16059" d="M273.307,282.767a.212.212,0,0,1,0,.4l-3.044,1.769a.765.765,0,0,1-.694,0l-3-1.733a.212.212,0,0,1,0-.4l3.043-1.769a.765.765,0,0,1,.694,0Z" transform="translate(-266.219 -280.744)" fill="#e8e8e8"/>
              <path id="Path_16060" data-name="Path 16060" d="M269.836,285.144a.917.917,0,0,1-.451-.111l-3-1.733a.415.415,0,0,1,0-.758l3.044-1.769a.962.962,0,0,1,.9,0l3,1.733a.415.415,0,0,1,0,.758l-3.043,1.769A.912.912,0,0,1,269.836,285.144Zm-3.28-2.224a.242.242,0,0,0,.033.023l3,1.733a.563.563,0,0,0,.488,0l3.044-1.769a.024.024,0,1,0,0-.046l-3-1.733a.561.561,0,0,0-.487,0l-3.045,1.768A.16.16,0,0,0,266.557,282.92Z" transform="translate(-266.136 -280.661)" fill="#fff"/>
            </g>
          </g>
          <g id="Group_9974" data-name="Group 9974" transform="translate(45.772 17.187)">
            <g id="Group_9973" data-name="Group 9973">
              <path id="Path_16061" data-name="Path 16061" d="M264.88,281.168a.212.212,0,0,1,0,.4l-3.044,1.768a.76.76,0,0,1-.694,0l-3-1.733a.212.212,0,0,1,0-.4l3.043-1.768a.765.765,0,0,1,.694,0Z" transform="translate(-257.792 -279.146)" fill="#e8e8e8"/>
              <path id="Path_16062" data-name="Path 16062" d="M261.409,283.545a.917.917,0,0,1-.451-.111l-3-1.733a.415.415,0,0,1,0-.758L261,279.174a.965.965,0,0,1,.9,0l3,1.733a.415.415,0,0,1,0,.758l-3.043,1.768A.906.906,0,0,1,261.409,283.545Zm-3.28-2.224a.209.209,0,0,0,.033.023l3,1.733a.567.567,0,0,0,.488,0l3.043-1.769a.182.182,0,0,0,.031-.022.2.2,0,0,0-.033-.024l-3-1.733a.565.565,0,0,0-.488,0l-3.043,1.769A.181.181,0,0,0,258.129,281.321Z" transform="translate(-257.709 -279.062)" fill="#fff"/>
            </g>
          </g>
          <g id="Group_9976" data-name="Group 9976" transform="translate(38.801 12.069)">
            <g id="Group_9975" data-name="Group 9975">
              <path id="Path_16063" data-name="Path 16063" d="M255.089,273.979a.212.212,0,0,1,0,.4l-3.043,1.768a.765.765,0,0,1-.694,0l-3-1.733a.213.213,0,0,1,0-.4l3.044-1.768a.765.765,0,0,1,.694,0Z" transform="translate(-248.001 -271.956)" fill="#e8e8e8"/>
              <path id="Path_16064" data-name="Path 16064" d="M251.618,276.356a.913.913,0,0,1-.451-.112l-3-1.733a.415.415,0,0,1,0-.758l3.043-1.768a.964.964,0,0,1,.9,0l3,1.733a.415.415,0,0,1,0,.759l-3.044,1.768A.9.9,0,0,1,251.618,276.356Zm-3.28-2.225a.228.228,0,0,0,.033.024l3,1.733a.567.567,0,0,0,.488,0l3.043-1.769a.183.183,0,0,0,.032-.023.308.308,0,0,0-.033-.023l-3-1.733a.563.563,0,0,0-.488,0l-3.043,1.768A.184.184,0,0,0,248.339,274.131Z" transform="translate(-247.918 -271.873)" fill="#fff"/>
            </g>
          </g>
          <g id="Group_9978" data-name="Group 9978" transform="translate(42.831 9.728)">
            <g id="Group_9977" data-name="Group 9977">
              <path id="Path_16065" data-name="Path 16065" d="M260.749,270.69a.213.213,0,0,1,0,.4l-3.043,1.768a.766.766,0,0,1-.695,0l-3-1.733a.213.213,0,0,1,0-.4l3.044-1.769a.768.768,0,0,1,.693,0Z" transform="translate(-253.661 -268.668)" fill="#e8e8e8"/>
              <path id="Path_16066" data-name="Path 16066" d="M257.278,273.067a.908.908,0,0,1-.451-.112l-3-1.733a.415.415,0,0,1,0-.758l3.043-1.768a.966.966,0,0,1,.9,0l3,1.733a.415.415,0,0,1,0,.759l-3.044,1.768A.906.906,0,0,1,257.278,273.067ZM254,270.843a.158.158,0,0,0,.032.023l3,1.733a.565.565,0,0,0,.488,0l3.043-1.768a.22.22,0,0,0,.031-.022.209.209,0,0,0-.033-.024l-3-1.733a.565.565,0,0,0-.488,0l-3.043,1.769A.149.149,0,0,0,254,270.843Z" transform="translate(-253.578 -268.584)" fill="#fff"/>
            </g>
          </g>
          <g id="Group_9980" data-name="Group 9980" transform="translate(44.781 13.137)">
            <g id="Group_9979" data-name="Group 9979">
              <path id="Path_16067" data-name="Path 16067" d="M263.49,275.48a.212.212,0,0,1,0,.4l-3.043,1.769a.765.765,0,0,1-.694,0l-3-1.733a.212.212,0,0,1,0-.4l3.043-1.769a.762.762,0,0,1,.694,0Z" transform="translate(-256.401 -273.457)" fill="#e8e8e8"/>
              <path id="Path_16068" data-name="Path 16068" d="M260.018,277.857a.915.915,0,0,1-.45-.111l-3-1.733a.415.415,0,0,1,0-.758l3.043-1.769a.966.966,0,0,1,.9,0l3,1.733a.414.414,0,0,1,0,.757l-3.043,1.769A.916.916,0,0,1,260.018,277.857Zm-3.279-2.225a.17.17,0,0,0,.033.024l3,1.733a.563.563,0,0,0,.488,0l3.044-1.768a.2.2,0,0,0,.031-.023.213.213,0,0,0-.033-.023l-3-1.733a.565.565,0,0,0-.488,0l-3.043,1.769A.221.221,0,0,0,256.739,275.632Z" transform="translate(-256.318 -273.374)" fill="#fff"/>
            </g>
          </g>
          <g id="Group_9982" data-name="Group 9982" transform="translate(40.752 15.479)">
            <g id="Group_9981" data-name="Group 9981">
              <path id="Path_16069" data-name="Path 16069" d="M257.83,278.769a.213.213,0,0,1,0,.4l-3.043,1.768a.768.768,0,0,1-.695,0l-3-1.733a.212.212,0,0,1,0-.4l3.043-1.768a.765.765,0,0,1,.694,0Z" transform="translate(-250.741 -276.746)" fill="#e8e8e8"/>
              <path id="Path_16070" data-name="Path 16070" d="M254.358,281.146a.914.914,0,0,1-.45-.111l-3-1.733a.415.415,0,0,1,0-.759l3.043-1.768a.962.962,0,0,1,.9,0l3,1.733a.415.415,0,0,1,0,.757l-3.043,1.769A.906.906,0,0,1,254.358,281.146Zm-3.279-2.224a.237.237,0,0,0,.033.023l3,1.733a.567.567,0,0,0,.488,0l3.043-1.769a.184.184,0,0,0,.031-.022.143.143,0,0,0-.033-.024l-3-1.733a.567.567,0,0,0-.488,0L251.11,278.9A.169.169,0,0,0,251.079,278.922Z" transform="translate(-250.658 -276.663)" fill="#fff"/>
            </g>
          </g>
          <g id="Group_9991" data-name="Group 9991" transform="translate(37.692 19.535)" style="isolation: isolate">
            <g id="Group_9984" data-name="Group 9984" transform="translate(4.04)">
              <g id="Group_9983" data-name="Group 9983">
                <path id="Path_16071" data-name="Path 16071" d="M259.205,284.466a.212.212,0,0,1,0,.4l-3.044,1.768a.764.764,0,0,1-.694,0l-3-1.733a.213.213,0,0,1,0-.4l3.043-1.769a.769.769,0,0,1,.694,0Z" transform="translate(-252.117 -282.443)" fill="#e8e8e8"/>
                <path id="Path_16072" data-name="Path 16072" d="M255.734,286.843a.913.913,0,0,1-.451-.112l-3-1.733a.414.414,0,0,1,0-.757l3.044-1.769a.963.963,0,0,1,.9,0l3,1.733a.416.416,0,0,1,0,.759l-3.045,1.768A.9.9,0,0,1,255.734,286.843Zm-3.28-2.225a.187.187,0,0,0,.033.023l3,1.733a.566.566,0,0,0,.488,0l3.044-1.769a.271.271,0,0,0,.031-.022.206.206,0,0,0-.033-.024l-3-1.733a.565.565,0,0,0-.488,0l-3.043,1.769A.184.184,0,0,0,252.455,284.618Z" transform="translate(-252.034 -282.36)" fill="#fff"/>
              </g>
            </g>
            <g id="Group_9986" data-name="Group 9986" transform="translate(10.042 1.137)">
              <g id="Group_9985" data-name="Group 9985">
                <path id="Path_16073" data-name="Path 16073" d="M267.636,286.063a.212.212,0,0,1,0,.4l-3.043,1.769a.766.766,0,0,1-.695,0l-3-1.733a.212.212,0,0,1,0-.4l3.043-1.769a.765.765,0,0,1,.694,0Z" transform="translate(-260.548 -284.041)" fill="#e8e8e8"/>
                <path id="Path_16074" data-name="Path 16074" d="M264.165,288.441a.917.917,0,0,1-.451-.112l-3-1.733a.415.415,0,0,1,0-.757l3.043-1.769a.964.964,0,0,1,.9,0l3,1.733a.415.415,0,0,1,0,.759l-3.043,1.768A.913.913,0,0,1,264.165,288.441Zm-3.28-2.225a.237.237,0,0,0,.033.023l3,1.733a.565.565,0,0,0,.488,0l3.043-1.768a.18.18,0,0,0,.032-.023.173.173,0,0,0-.033-.023l-3-1.733a.567.567,0,0,0-.488,0l-3.043,1.769A.2.2,0,0,0,260.885,286.216Z" transform="translate(-260.465 -283.957)" fill="#fff"/>
              </g>
            </g>
            <g id="Group_9988" data-name="Group 9988" transform="translate(0 2.348)">
              <g id="Group_9987" data-name="Group 9987">
                <path id="Path_16075" data-name="Path 16075" d="M253.53,287.764a.212.212,0,0,1,0,.4l-3.043,1.768a.766.766,0,0,1-.695,0l-3-1.733a.213.213,0,0,1,0-.4l3.043-1.769a.769.769,0,0,1,.694,0Z" transform="translate(-246.442 -285.741)" fill="#e8e8e8"/>
                <path id="Path_16076" data-name="Path 16076" d="M250.059,290.141a.917.917,0,0,1-.451-.111l-3-1.733a.415.415,0,0,1,0-.758l3.043-1.768a.963.963,0,0,1,.9,0l3,1.733a.414.414,0,0,1,0,.757l-3.043,1.769A.905.905,0,0,1,250.059,290.141Zm-3.279-2.224a.192.192,0,0,0,.033.023l3,1.733a.565.565,0,0,0,.488,0l3.044-1.768a.2.2,0,0,0,.031-.023.247.247,0,0,0-.033-.023l-3-1.733a.566.566,0,0,0-.488,0l-3.043,1.769A.17.17,0,0,0,246.78,287.917Z" transform="translate(-246.359 -285.658)" fill="#fff"/>
              </g>
            </g>
            <g id="Group_9990" data-name="Group 9990" transform="translate(6.003 3.484)">
              <g id="Group_9989" data-name="Group 9989">
                <path id="Path_16077" data-name="Path 16077" d="M261.963,289.36a.212.212,0,0,1,0,.4l-3.043,1.769a.766.766,0,0,1-.695,0l-3-1.733a.212.212,0,0,1,0-.4l3.043-1.769a.765.765,0,0,1,.694,0Z" transform="translate(-254.875 -287.337)" fill="#e8e8e8"/>
                <path id="Path_16078" data-name="Path 16078" d="M258.492,291.737a.909.909,0,0,1-.45-.112l-3-1.733a.415.415,0,0,1,0-.758l3.043-1.769a.964.964,0,0,1,.9,0l3,1.733a.448.448,0,0,1,.248.38.443.443,0,0,1-.245.378l-3.043,1.769A.906.906,0,0,1,258.492,291.737Zm-3.279-2.225a.158.158,0,0,0,.033.023l3,1.733a.567.567,0,0,0,.488,0l3.043-1.768a.2.2,0,0,0,.031-.023.172.172,0,0,0-.033-.023l-3-1.733a.568.568,0,0,0-.488,0l-3.044,1.769A.22.22,0,0,0,255.213,289.512Z" transform="translate(-254.792 -287.253)" fill="#fff"/>
              </g>
            </g>
          </g>
          <g id="Group_10004" data-name="Group 10004" transform="translate(20.965 19.094)" style="isolation: isolate">
            <g id="Group_9993" data-name="Group 9993" transform="translate(0 0.401)">
              <g id="Group_9992" data-name="Group 9992">
                <path id="Path_16079" data-name="Path 16079" d="M228.612,283.588a.212.212,0,0,1,0,.4l-3.044,1.769a.763.763,0,0,1-.693,0l-1.578-.911a.212.212,0,0,1,0-.4l3.043-1.768a.765.765,0,0,1,.694,0Z" transform="translate(-222.947 -282.387)" fill="#e8e8e8"/>
                <path id="Path_16080" data-name="Path 16080" d="M225.141,285.964a.91.91,0,0,1-.451-.112l-1.578-.911a.414.414,0,0,1,0-.757l3.044-1.769a.966.966,0,0,1,.9,0l1.578.911a.415.415,0,0,1,0,.758l-3.043,1.769A.913.913,0,0,1,225.141,285.964Zm-1.856-1.4a.237.237,0,0,0,.033.023l1.578.911a.563.563,0,0,0,.488,0l3.043-1.768a.307.307,0,0,0,.032-.023.188.188,0,0,0-.033-.023l-1.578-.911a.565.565,0,0,0-.488,0l-3.043,1.768A.2.2,0,0,0,223.285,284.562Z" transform="translate(-222.864 -282.303)" fill="#fff"/>
              </g>
            </g>
            <g id="Group_9995" data-name="Group 9995" transform="translate(5.748)">
              <g id="Group_9994" data-name="Group 9994">
                <path id="Path_16081" data-name="Path 16081" d="M238.109,283.846a.212.212,0,0,1,0,.4l-3.044,1.769a.765.765,0,0,1-.694,0l-3-1.733a.213.213,0,0,1,0-.4l3.044-1.769a.765.765,0,0,1,.694,0Z" transform="translate(-231.021 -281.824)" fill="#e8e8e8"/>
                <path id="Path_16082" data-name="Path 16082" d="M234.638,286.224a.913.913,0,0,1-.451-.112l-3-1.733a.415.415,0,0,1,0-.758l3.044-1.769a.963.963,0,0,1,.9,0l3,1.733a.415.415,0,0,1,0,.758l-3.044,1.769A.9.9,0,0,1,234.638,286.224ZM231.359,284a.167.167,0,0,0,.033.024l3,1.732a.565.565,0,0,0,.488,0l3.043-1.768a.148.148,0,0,0,.031-.023.162.162,0,0,0-.033-.023l-3-1.733a.566.566,0,0,0-.488,0l-3.043,1.769A.15.15,0,0,0,231.359,284Z" transform="translate(-230.938 -281.74)" fill="#fff"/>
              </g>
            </g>
            <g id="Group_9997" data-name="Group 9997" transform="translate(11.728 1.069)">
              <g id="Group_9996" data-name="Group 9996">
                <path id="Path_16083" data-name="Path 16083" d="M246.51,285.347a.212.212,0,0,1,0,.4l-3.043,1.769a.765.765,0,0,1-.694,0l-3-1.734a.212.212,0,0,1,0-.4l3.043-1.769a.766.766,0,0,1,.695,0Z" transform="translate(-239.422 -283.325)" fill="#e8e8e8"/>
                <path id="Path_16084" data-name="Path 16084" d="M243.038,287.725a.913.913,0,0,1-.45-.112l-3-1.733a.414.414,0,0,1,0-.758l3.043-1.769a.964.964,0,0,1,.9,0l3,1.733a.415.415,0,0,1,0,.758l-3.043,1.768A.905.905,0,0,1,243.038,287.725Zm-3.28-2.225a.174.174,0,0,0,.033.023l3,1.733a.564.564,0,0,0,.487,0l3.043-1.769a.237.237,0,0,0,.032-.022.187.187,0,0,0-.033-.023l-3-1.733a.565.565,0,0,0-.488,0l-3.043,1.768A.2.2,0,0,0,239.759,285.5Z" transform="translate(-239.338 -283.241)" fill="#fff"/>
              </g>
            </g>
            <g id="Group_9999" data-name="Group 9999" transform="translate(1.719 2.342)">
              <g id="Group_9998" data-name="Group 9998">
                <path id="Path_16085" data-name="Path 16085" d="M232.449,287.136a.212.212,0,0,1,0,.4l-3.044,1.768a.765.765,0,0,1-.694,0l-3-1.733a.213.213,0,0,1,0-.4l3.044-1.769a.765.765,0,0,1,.694,0Z" transform="translate(-225.361 -285.113)" fill="#e8e8e8"/>
                <path id="Path_16086" data-name="Path 16086" d="M228.978,289.513a.92.92,0,0,1-.451-.111l-3-1.733a.415.415,0,0,1,0-.758l3.044-1.769a.965.965,0,0,1,.9,0l3,1.733a.414.414,0,0,1,0,.758l-3.044,1.769A.9.9,0,0,1,228.978,289.513Zm-3.28-2.225a.172.172,0,0,0,.033.023l3,1.734a.567.567,0,0,0,.488,0l3.043-1.769a.149.149,0,0,0,.031-.023.153.153,0,0,0-.033-.023l-3-1.733a.563.563,0,0,0-.488,0l-3.043,1.769A.24.24,0,0,0,225.7,287.288Z" transform="translate(-225.278 -285.03)" fill="#fff"/>
              </g>
            </g>
            <g id="Group_10001" data-name="Group 10001" transform="translate(7.698 3.41)">
              <g id="Group_10000" data-name="Group 10000">
                <path id="Path_16087" data-name="Path 16087" d="M240.85,288.637a.212.212,0,0,1,0,.4l-3.044,1.769a.763.763,0,0,1-.693,0l-3-1.733a.212.212,0,0,1,0-.4l3.044-1.769a.765.765,0,0,1,.694,0Z" transform="translate(-233.761 -286.614)" fill="#e8e8e8"/>
                <path id="Path_16088" data-name="Path 16088" d="M237.378,291.014a.905.905,0,0,1-.45-.112l-3-1.733a.449.449,0,0,1-.248-.379.444.444,0,0,1,.245-.379l3.044-1.769a.964.964,0,0,1,.9,0l3,1.733a.415.415,0,0,1,0,.758l-3.043,1.769A.9.9,0,0,1,237.378,291.014Zm-3.28-2.225a.174.174,0,0,0,.033.023l3,1.733a.564.564,0,0,0,.487,0l3.044-1.769a.219.219,0,0,0,.031-.022.186.186,0,0,0-.033-.023l-3-1.733a.561.561,0,0,0-.488,0l-3.044,1.769A.2.2,0,0,0,234.1,288.789Z" transform="translate(-233.678 -286.53)" fill="#fff"/>
              </g>
            </g>
            <g id="Group_10003" data-name="Group 10003" transform="translate(12.686 5.137)">
              <g id="Group_10002" data-name="Group 10002">
                <path id="Path_16089" data-name="Path 16089" d="M247.856,291.062a.212.212,0,0,1,0,.4l-3.043,1.769a.766.766,0,0,1-.695,0l-3-1.733a.212.212,0,0,1,0-.4l3.044-1.769a.763.763,0,0,1,.693,0Z" transform="translate(-240.767 -289.039)" fill="#e8e8e8"/>
                <path id="Path_16090" data-name="Path 16090" d="M244.384,293.439a.917.917,0,0,1-.451-.112l-3-1.733a.415.415,0,0,1,0-.758l3.044-1.769a.965.965,0,0,1,.9,0l3,1.733a.414.414,0,0,1,0,.758l-3.043,1.769A.913.913,0,0,1,244.384,293.439Zm-3.28-2.225a.19.19,0,0,0,.033.024l3,1.733a.57.57,0,0,0,.488,0l3.043-1.769a.162.162,0,0,0,.031-.022.175.175,0,0,0-.033-.023l-3-1.733a.563.563,0,0,0-.488,0l-3.044,1.768A.377.377,0,0,0,241.1,291.214Z" transform="translate(-240.684 -288.956)" fill="#fff"/>
              </g>
            </g>
          </g>
          <g id="Group_10006" data-name="Group 10006" transform="translate(25.159 17.057)">
            <g id="Group_10005" data-name="Group 10005">
              <path id="Path_16091" data-name="Path 16091" d="M234.5,280.165a.212.212,0,0,1,0,.4l-3.043,1.769a.765.765,0,0,1-.694,0l-1.578-.911a.212.212,0,0,1,0-.4l3.043-1.768a.765.765,0,0,1,.694,0Z" transform="translate(-228.837 -278.964)" fill="#e8e8e8"/>
              <path id="Path_16092" data-name="Path 16092" d="M231.03,282.541a.907.907,0,0,1-.45-.112L229,281.519a.415.415,0,0,1,0-.759l3.043-1.768a.965.965,0,0,1,.9,0l1.578.912a.414.414,0,0,1,0,.757l-3.043,1.769A.906.906,0,0,1,231.03,282.541Zm-1.855-1.4a.237.237,0,0,0,.033.023l1.578.911a.563.563,0,0,0,.488,0l3.044-1.768a.2.2,0,0,0,.031-.023.212.212,0,0,0-.033-.024l-1.578-.911a.563.563,0,0,0-.488,0l-3.043,1.768A.17.17,0,0,0,229.175,281.139Z" transform="translate(-228.754 -278.88)" fill="#fff"/>
            </g>
          </g>
          <g id="Group_10008" data-name="Group 10008" transform="translate(49.812 14.839)">
            <g id="Group_10007" data-name="Group 10007">
              <path id="Path_16093" data-name="Path 16093" d="M270.555,277.87a.212.212,0,0,1,0,.4l-3.043,1.769a.762.762,0,0,1-.694,0l-3-1.733a.213.213,0,0,1,0-.4l3.044-1.768a.765.765,0,0,1,.694,0Z" transform="translate(-263.467 -275.848)" fill="#e8e8e8"/>
              <path id="Path_16094" data-name="Path 16094" d="M267.084,280.247a.911.911,0,0,1-.451-.112l-3-1.733a.414.414,0,0,1,0-.757l3.043-1.769a.966.966,0,0,1,.9,0l3,1.733a.415.415,0,0,1,0,.758l-3.044,1.768A.9.9,0,0,1,267.084,280.247Zm-3.28-2.224a.191.191,0,0,0,.033.023l3,1.733a.563.563,0,0,0,.488,0l3.043-1.769a.238.238,0,0,0,.032-.022.2.2,0,0,0-.033-.024l-3-1.733a.563.563,0,0,0-.488,0L263.836,278A.147.147,0,0,0,263.8,278.023Z" transform="translate(-263.384 -275.764)" fill="#fff"/>
            </g>
          </g>
          <g id="Group_10010" data-name="Group 10010" transform="translate(74.889 11.828)">
            <g id="Group_10009" data-name="Group 10009">
              <path id="Path_16095" data-name="Path 16095" d="M304.25,272.756a.212.212,0,0,1,0,.4l-3.044,1.769a.763.763,0,0,1-.693,0l-1.47-.849a.213.213,0,0,1,0-.4l3.043-1.768a.762.762,0,0,1,.695,0Z" transform="translate(-298.693 -271.617)" fill="#e8e8e8"/>
              <path id="Path_16096" data-name="Path 16096" d="M300.778,275.133a.917.917,0,0,1-.451-.112l-1.469-.849a.415.415,0,0,1,0-.758l3.044-1.768a.964.964,0,0,1,.9,0l1.47.849a.415.415,0,0,1,0,.758l-3.043,1.769A.913.913,0,0,1,300.778,275.133Zm-1.748-1.341a.205.205,0,0,0,.033.024l1.469.849a.566.566,0,0,0,.488,0l3.043-1.769a.153.153,0,0,0,.032-.022.241.241,0,0,0-.033-.023l-1.47-.849a.567.567,0,0,0-.488,0l-3.043,1.769A.22.22,0,0,0,299.031,273.792Z" transform="translate(-298.61 -271.534)" fill="#fff"/>
            </g>
          </g>
          <g id="Group_10037" data-name="Group 10037" transform="translate(37.739 3.771)" style="isolation: isolate">
            <g id="Group_10012" data-name="Group 10012" transform="translate(23.16)">
              <g id="Group_10011" data-name="Group 10011">
                <path id="Path_16097" data-name="Path 16097" d="M286.13,262.323a.213.213,0,0,1,0,.4l-3.044,1.768a.763.763,0,0,1-.693,0l-3-1.733a.213.213,0,0,1,0-.4l3.044-1.768a.76.76,0,0,1,.694,0Z" transform="translate(-279.041 -260.3)" fill="#e8e8e8"/>
                <path id="Path_16098" data-name="Path 16098" d="M282.658,264.7a.916.916,0,0,1-.45-.111l-3-1.733a.415.415,0,0,1,0-.758l3.043-1.768a.968.968,0,0,1,.9,0l3,1.733a.415.415,0,0,1,0,.758l-3.044,1.768A.9.9,0,0,1,282.658,264.7Zm-3.279-2.225a.174.174,0,0,0,.033.023l3,1.733a.566.566,0,0,0,.488,0l3.043-1.768a.179.179,0,0,0,.032-.023.215.215,0,0,0-.033-.023l-3-1.733a.564.564,0,0,0-.488,0l-3.043,1.768A.225.225,0,0,0,279.379,262.475Z" transform="translate(-278.958 -260.217)" fill="#fff"/>
              </g>
            </g>
            <g id="Group_10014" data-name="Group 10014" transform="translate(8.386 1.102)">
              <g id="Group_10013" data-name="Group 10013">
                <path id="Path_16099" data-name="Path 16099" d="M263.952,263.05a.213.213,0,0,1,0,.4l-3.044,1.768a.765.765,0,0,1-.694,0l-1.578-.911a.212.212,0,0,1,0-.4l3.044-1.769a.763.763,0,0,1,.693,0Z" transform="translate(-258.288 -261.849)" fill="#e8e8e8"/>
                <path id="Path_16100" data-name="Path 16100" d="M260.481,265.426a.913.913,0,0,1-.45-.111l-1.578-.911a.415.415,0,0,1,0-.758l3.043-1.769a.964.964,0,0,1,.9,0l1.578.911a.414.414,0,0,1,0,.757l-3.044,1.769A.905.905,0,0,1,260.481,265.426Zm-1.856-1.4a.171.171,0,0,0,.033.023l1.578.911a.565.565,0,0,0,.488,0l3.043-1.769a.149.149,0,0,0,.031-.023.2.2,0,0,0-.033-.023l-1.578-.911a.563.563,0,0,0-.488,0L258.656,264A.2.2,0,0,0,258.625,264.024Z" transform="translate(-258.205 -261.765)" fill="#fff"/>
              </g>
            </g>
            <g id="Group_10016" data-name="Group 10016" transform="translate(13.151 1.273)">
              <g id="Group_10015" data-name="Group 10015">
                <path id="Path_16101" data-name="Path 16101" d="M272.069,264.111a.213.213,0,0,1,0,.4l-3.044,1.769a.764.764,0,0,1-.694,0l-3-1.733a.212.212,0,0,1,0-.4l3.044-1.769a.763.763,0,0,1,.693,0Z" transform="translate(-264.981 -262.089)" fill="#e8e8e8"/>
                <path id="Path_16102" data-name="Path 16102" d="M268.6,266.489a.91.91,0,0,1-.451-.112l-3-1.733a.415.415,0,0,1,0-.758l3.043-1.769a.966.966,0,0,1,.9,0l3,1.733a.415.415,0,0,1,0,.758l-3.044,1.769A.913.913,0,0,1,268.6,266.489Zm-3.28-2.225a.171.171,0,0,0,.033.023l3,1.733a.563.563,0,0,0,.488,0l3.044-1.769a.151.151,0,0,0,.031-.022.175.175,0,0,0-.033-.023l-3-1.733a.563.563,0,0,0-.488,0l-3.044,1.769A.163.163,0,0,0,265.318,264.264Z" transform="translate(-264.898 -262.005)" fill="#fff"/>
              </g>
            </g>
            <g id="Group_10018" data-name="Group 10018" transform="translate(19.131 2.341)">
              <g id="Group_10017" data-name="Group 10017">
                <path id="Path_16103" data-name="Path 16103" d="M280.47,265.612a.213.213,0,0,1,0,.4l-3.044,1.769a.767.767,0,0,1-.693,0l-3-1.733a.213.213,0,0,1,0-.4l3.044-1.769a.767.767,0,0,1,.694,0Z" transform="translate(-273.381 -263.59)" fill="#e8e8e8"/>
                <path id="Path_16104" data-name="Path 16104" d="M277,267.989a.917.917,0,0,1-.45-.111l-3-1.733a.449.449,0,0,1-.248-.38.443.443,0,0,1,.245-.378l3.044-1.769a.967.967,0,0,1,.9,0l3,1.733a.415.415,0,0,1,0,.758l-3.044,1.769A.911.911,0,0,1,277,267.989Zm-3.279-2.224a.21.21,0,0,0,.033.023l3,1.733a.565.565,0,0,0,.488,0l3.044-1.769a.275.275,0,0,0,.031-.022.173.173,0,0,0-.034-.024l-3-1.733a.566.566,0,0,0-.488,0l-3.044,1.769A.148.148,0,0,0,273.719,265.765Z" transform="translate(-273.298 -263.506)" fill="#fff"/>
              </g>
            </g>
            <g id="Group_10020" data-name="Group 10020" transform="translate(4.193 3.539)">
              <g id="Group_10019" data-name="Group 10019">
                <path id="Path_16105" data-name="Path 16105" d="M258.063,266.473a.213.213,0,0,1,0,.4l-3.043,1.768a.765.765,0,0,1-.694,0l-1.578-.911a.212.212,0,0,1,0-.4l3.043-1.769a.766.766,0,0,1,.695,0Z" transform="translate(-252.398 -265.272)" fill="#e8e8e8"/>
                <path id="Path_16106" data-name="Path 16106" d="M254.591,268.849a.912.912,0,0,1-.45-.111l-1.578-.912a.414.414,0,0,1,0-.757L255.6,265.3a.966.966,0,0,1,.9,0l1.578.911a.415.415,0,0,1,0,.758l-3.043,1.769A.906.906,0,0,1,254.591,268.849Zm-1.855-1.4a.169.169,0,0,0,.033.023l1.578.911a.565.565,0,0,0,.488,0l3.043-1.768a.182.182,0,0,0,.032-.023.211.211,0,0,0-.033-.023l-1.578-.911a.567.567,0,0,0-.488,0l-3.043,1.769A.15.15,0,0,0,252.736,267.447Z" transform="translate(-252.315 -265.188)" fill="#fff"/>
              </g>
            </g>
            <g id="Group_10022" data-name="Group 10022" transform="translate(9.122 3.614)">
              <g id="Group_10021" data-name="Group 10021">
                <path id="Path_16107" data-name="Path 16107" d="M266.409,267.4a.212.212,0,0,1,0,.4l-3.043,1.769a.764.764,0,0,1-.694,0l-3-1.733a.213.213,0,0,1,0-.4l3.044-1.769a.763.763,0,0,1,.693,0Z" transform="translate(-259.321 -265.378)" fill="#e8e8e8"/>
                <path id="Path_16108" data-name="Path 16108" d="M262.938,269.778a.918.918,0,0,1-.451-.112l-3-1.733a.415.415,0,0,1,0-.758l3.044-1.769a.963.963,0,0,1,.9,0l3,1.733a.449.449,0,0,1,.248.38.444.444,0,0,1-.245.378l-3.044,1.769A.913.913,0,0,1,262.938,269.778Zm-3.28-2.225a.173.173,0,0,0,.033.023l3,1.733a.569.569,0,0,0,.488,0l3.043-1.769a.144.144,0,0,0,.031-.022.172.172,0,0,0-.033-.023l-3-1.733a.563.563,0,0,0-.488,0l-3.043,1.768A.31.31,0,0,0,259.658,267.553Z" transform="translate(-259.238 -265.294)" fill="#fff"/>
              </g>
            </g>
            <g id="Group_10024" data-name="Group 10024" transform="translate(24.078 2.314)">
              <g id="Group_10023" data-name="Group 10023">
                <path id="Path_16109" data-name="Path 16109" d="M290.415,265.573a.212.212,0,0,1,0,.4l-6.041,3.511a.762.762,0,0,1-.694,0l-3-1.733a.212.212,0,0,1,0-.4l6.042-3.511a.763.763,0,0,1,.693,0Z" transform="translate(-280.33 -263.551)" fill="#e8e8e8"/>
                <path id="Path_16110" data-name="Path 16110" d="M283.947,269.692a.917.917,0,0,1-.451-.111l-3-1.733a.415.415,0,0,1,0-.758l6.041-3.511a.966.966,0,0,1,.9,0l3,1.733a.415.415,0,0,1,0,.758l-6.041,3.511A.912.912,0,0,1,283.947,269.692Zm-3.28-2.224a.209.209,0,0,0,.033.023l3,1.733a.567.567,0,0,0,.488,0l6.041-3.511a.209.209,0,0,0,.031-.022.173.173,0,0,0-.033-.024l-3-1.733a.563.563,0,0,0-.488,0l-6.042,3.51A.2.2,0,0,0,280.667,267.468Z" transform="translate(-280.247 -263.467)" fill="#fff"/>
              </g>
            </g>
            <g id="Group_10026" data-name="Group 10026" transform="translate(15.102 4.683)">
              <g id="Group_10025" data-name="Group 10025">
                <path id="Path_16111" data-name="Path 16111" d="M274.81,268.9a.213.213,0,0,1,0,.4l-3.044,1.769a.763.763,0,0,1-.693,0l-3-1.733a.212.212,0,0,1,0-.4l3.044-1.769a.765.765,0,0,1,.694,0Z" transform="translate(-267.721 -266.879)" fill="#e8e8e8"/>
                <path id="Path_16112" data-name="Path 16112" d="M271.338,271.278a.916.916,0,0,1-.45-.111l-3-1.733a.449.449,0,0,1-.248-.38.444.444,0,0,1,.245-.378l3.044-1.769a.964.964,0,0,1,.9,0l3,1.733a.415.415,0,0,1,0,.758l-3.044,1.769A.91.91,0,0,1,271.338,271.278Zm-3.279-2.224a.17.17,0,0,0,.033.023l3,1.733a.565.565,0,0,0,.488,0l3.044-1.769a.024.024,0,1,0,0-.046l-3-1.732a.563.563,0,0,0-.488,0l-3.044,1.769A.149.149,0,0,0,268.059,269.054Z" transform="translate(-267.638 -266.795)" fill="#fff"/>
              </g>
            </g>
            <g id="Group_10028" data-name="Group 10028" transform="translate(0 5.976)">
              <g id="Group_10027" data-name="Group 10027">
                <path id="Path_16113" data-name="Path 16113" d="M252.172,269.9a.212.212,0,0,1,0,.4l-3.043,1.769a.765.765,0,0,1-.694,0l-1.578-.911a.212.212,0,0,1,0-.4l3.044-1.769a.763.763,0,0,1,.693,0Z" transform="translate(-246.508 -268.695)" fill="#e8e8e8"/>
                <path id="Path_16114" data-name="Path 16114" d="M248.7,272.272a.917.917,0,0,1-.451-.111l-1.578-.911a.447.447,0,0,1-.247-.38.443.443,0,0,1,.245-.378l3.043-1.769a.966.966,0,0,1,.9,0l1.578.912a.414.414,0,0,1,0,.757l-3.044,1.769A.913.913,0,0,1,248.7,272.272Zm-1.856-1.4a.187.187,0,0,0,.033.023l1.579.911a.564.564,0,0,0,.487,0l3.044-1.769a.145.145,0,0,0,.031-.022.234.234,0,0,0-.033-.023l-1.578-.911a.563.563,0,0,0-.488,0l-3.044,1.769A.163.163,0,0,0,246.845,270.87Z" transform="translate(-246.425 -268.611)" fill="#fff"/>
              </g>
            </g>
            <g id="Group_10030" data-name="Group 10030" transform="translate(20.152 6.373)">
              <g id="Group_10029" data-name="Group 10029">
                <path id="Path_16115" data-name="Path 16115" d="M281.9,271.274a.212.212,0,0,1,0,.4l-3.044,1.769a.765.765,0,0,1-.694,0l-3-1.733a.212.212,0,0,1,0-.4l3.043-1.769a.764.764,0,0,1,.694,0Z" transform="translate(-274.816 -269.252)" fill="#e8e8e8"/>
                <path id="Path_16116" data-name="Path 16116" d="M278.433,273.652a.91.91,0,0,1-.451-.112l-3-1.733a.415.415,0,0,1,0-.758l3.044-1.769a.966.966,0,0,1,.9,0l3,1.733a.415.415,0,0,1,0,.758l-3.043,1.769A.905.905,0,0,1,278.433,273.652Zm-3.28-2.225a.189.189,0,0,0,.033.023l3,1.733a.563.563,0,0,0,.488,0l3.044-1.768a.2.2,0,0,0,.031-.023.176.176,0,0,0-.033-.023l-3-1.733a.565.565,0,0,0-.488,0l-3.044,1.769A.218.218,0,0,0,275.154,271.427Z" transform="translate(-274.733 -269.169)" fill="#fff"/>
              </g>
            </g>
            <g id="Group_10032" data-name="Group 10032" transform="translate(26.002 4.556)">
              <g id="Group_10031" data-name="Group 10031">
                <path id="Path_16117" data-name="Path 16117" d="M295.171,268.723a.212.212,0,0,1,0,.4l-8.094,4.7a.768.768,0,0,1-.693,0l-3-1.733a.212.212,0,0,1,0-.4l8.094-4.7a.765.765,0,0,1,.694,0Z" transform="translate(-283.033 -266.7)" fill="#e8e8e8"/>
                <path id="Path_16118" data-name="Path 16118" d="M286.65,274.034a.918.918,0,0,1-.451-.111l-3-1.733a.448.448,0,0,1-.248-.38.442.442,0,0,1,.245-.378l8.093-4.7a.966.966,0,0,1,.9,0l3,1.733a.414.414,0,0,1,0,.757l-8.094,4.7A.906.906,0,0,1,286.65,274.034Zm-3.28-2.225a.168.168,0,0,0,.033.024l3,1.733a.565.565,0,0,0,.488,0l8.094-4.7a.024.024,0,1,0,0-.046l-3-1.733a.562.562,0,0,0-.488,0l-8.094,4.7A.265.265,0,0,0,283.37,271.81Z" transform="translate(-282.95 -266.617)" fill="#fff"/>
              </g>
            </g>
            <g id="Group_10034" data-name="Group 10034" transform="translate(16.113 8.72)">
              <g id="Group_10033" data-name="Group 10033">
                <path id="Path_16119" data-name="Path 16119" d="M276.23,274.572a.213.213,0,0,1,0,.4l-3.044,1.769a.765.765,0,0,1-.694,0l-3-1.733a.212.212,0,0,1,0-.4l3.044-1.769a.763.763,0,0,1,.693,0Z" transform="translate(-269.142 -272.549)" fill="#e8e8e8"/>
                <path id="Path_16120" data-name="Path 16120" d="M272.759,276.949a.917.917,0,0,1-.451-.111l-3-1.733a.447.447,0,0,1-.248-.379.442.442,0,0,1,.245-.379l3.044-1.769a.961.961,0,0,1,.9,0l3,1.733a.415.415,0,0,1,0,.758l-3.044,1.769A.912.912,0,0,1,272.759,276.949Zm-3.28-2.224a.212.212,0,0,0,.034.023l3,1.733a.565.565,0,0,0,.488,0l3.043-1.769a.152.152,0,0,0,.031-.022.172.172,0,0,0-.033-.023l-3-1.734a.563.563,0,0,0-.488,0L269.51,274.7A.2.2,0,0,0,269.479,274.725Z" transform="translate(-269.059 -272.466)" fill="#fff"/>
              </g>
            </g>
            <g id="Group_10036" data-name="Group 10036" transform="translate(22.108 9.861)">
              <g id="Group_10035" data-name="Group 10035">
                <path id="Path_16121" data-name="Path 16121" d="M284.651,276.175a.212.212,0,0,1,0,.4l-3.044,1.769a.767.767,0,0,1-.694,0l-3-1.733a.212.212,0,0,1,0-.4l3.043-1.768a.767.767,0,0,1,.694,0Z" transform="translate(-277.563 -274.153)" fill="#e8e8e8"/>
                <path id="Path_16122" data-name="Path 16122" d="M281.18,278.552a.915.915,0,0,1-.451-.111l-3-1.733a.414.414,0,0,1,0-.757l3.044-1.769a.965.965,0,0,1,.9,0l3,1.733a.415.415,0,0,1,0,.759l-3.044,1.768A.9.9,0,0,1,281.18,278.552Zm-3.28-2.224a.189.189,0,0,0,.033.023l3,1.734a.565.565,0,0,0,.488,0l3.043-1.769a.23.23,0,0,0,.032-.022.172.172,0,0,0-.033-.024l-3-1.733a.563.563,0,0,0-.488,0l-3.043,1.768A.171.171,0,0,0,277.9,276.328Z" transform="translate(-277.48 -274.069)" fill="#fff"/>
              </g>
            </g>
          </g>
          <g id="Group_10044" data-name="Group 10044" transform="translate(29.352 12.184)" style="isolation: isolate">
            <g id="Group_10039" data-name="Group 10039" transform="translate(4.193)">
              <g id="Group_10038" data-name="Group 10038">
                <path id="Path_16123" data-name="Path 16123" d="M246.282,273.319a.212.212,0,0,1,0,.4l-3.043,1.769a.765.765,0,0,1-.694,0l-1.578-.911a.212.212,0,0,1,0-.4l3.043-1.769a.765.765,0,0,1,.694,0Z" transform="translate(-240.617 -272.118)" fill="#e8e8e8"/>
                <path id="Path_16124" data-name="Path 16124" d="M242.81,275.7a.916.916,0,0,1-.45-.111l-1.578-.911a.415.415,0,0,1,0-.758l3.043-1.769a.963.963,0,0,1,.9,0l1.578.911a.414.414,0,0,1,0,.757l-3.043,1.769A.906.906,0,0,1,242.81,275.7Zm-1.855-1.4a.188.188,0,0,0,.033.023l1.578.911a.564.564,0,0,0,.488,0l3.043-1.768a.2.2,0,0,0,.031-.023.215.215,0,0,0-.033-.023l-1.578-.911a.562.562,0,0,0-.487,0l-3.044,1.768A.171.171,0,0,0,240.955,274.293Z" transform="translate(-240.534 -272.034)" fill="#fff"/>
              </g>
            </g>
            <g id="Group_10041" data-name="Group 10041" transform="translate(0 2.437)">
              <g id="Group_10040" data-name="Group 10040">
                <path id="Path_16125" data-name="Path 16125" d="M240.392,276.742a.213.213,0,0,1,0,.4l-3.044,1.768a.763.763,0,0,1-.693,0L235.078,278a.212.212,0,0,1,0-.4l3.043-1.769a.765.765,0,0,1,.694,0Z" transform="translate(-234.727 -275.541)" fill="#e8e8e8"/>
                <path id="Path_16126" data-name="Path 16126" d="M236.921,279.118a.91.91,0,0,1-.451-.112l-1.578-.911a.414.414,0,0,1,0-.757l3.044-1.769a.966.966,0,0,1,.9,0l1.578.911a.415.415,0,0,1,0,.758l-3.043,1.769A.905.905,0,0,1,236.921,279.118Zm-1.856-1.4a.212.212,0,0,0,.033.023l1.578.911a.564.564,0,0,0,.487,0l3.044-1.768a.173.173,0,0,0,.031-.023.186.186,0,0,0-.033-.023l-1.578-.911a.567.567,0,0,0-.488,0l-3.043,1.769A.163.163,0,0,0,235.065,277.716Z" transform="translate(-234.644 -275.457)" fill="#fff"/>
              </g>
            </g>
            <g id="Group_10043" data-name="Group 10043" transform="translate(5.42 2.227)">
              <g id="Group_10042" data-name="Group 10042">
                <path id="Path_16127" data-name="Path 16127" d="M249.429,277.268a.212.212,0,0,1,0,.4l-3.043,1.769a.762.762,0,0,1-.694,0l-3-1.733a.212.212,0,0,1,0-.4l3.044-1.769a.765.765,0,0,1,.694,0Z" transform="translate(-242.341 -275.246)" fill="#e8e8e8"/>
                <path id="Path_16128" data-name="Path 16128" d="M245.958,279.645a.918.918,0,0,1-.451-.111l-3-1.733a.414.414,0,0,1,0-.757l3.044-1.769a.965.965,0,0,1,.9,0l3,1.733a.415.415,0,0,1,0,.758l-3.043,1.769A.91.91,0,0,1,245.958,279.645Zm-3.28-2.224a.235.235,0,0,0,.033.023l3,1.733a.567.567,0,0,0,.488,0l3.043-1.769a.232.232,0,0,0,.032-.022.211.211,0,0,0-.034-.024l-3-1.733a.563.563,0,0,0-.488,0l-3.044,1.768A.161.161,0,0,0,242.679,277.421Z" transform="translate(-242.258 -275.162)" fill="#fff"/>
              </g>
            </g>
          </g>
          <g id="Group_10046" data-name="Group 10046" transform="translate(30.743 16.752)">
            <g id="Group_10045" data-name="Group 10045">
              <path id="Path_16129" data-name="Path 16129" d="M243.769,280.557a.212.212,0,0,1,0,.4l-3.043,1.769a.765.765,0,0,1-.694,0l-3-1.733a.212.212,0,0,1,0-.4l3.044-1.769a.765.765,0,0,1,.694,0Z" transform="translate(-236.681 -278.535)" fill="#e8e8e8"/>
              <path id="Path_16130" data-name="Path 16130" d="M240.3,282.934a.917.917,0,0,1-.451-.111l-3-1.733a.415.415,0,0,1,0-.758l3.043-1.769a.964.964,0,0,1,.9,0l3,1.733a.415.415,0,0,1,0,.758l-3.044,1.769A.909.909,0,0,1,240.3,282.934Zm-3.279-2.224a.2.2,0,0,0,.033.023l3,1.733a.565.565,0,0,0,.488,0l3.043-1.768a.181.181,0,0,0,.032-.023.234.234,0,0,0-.033-.023l-3-1.733a.565.565,0,0,0-.488,0l-3.043,1.769A.151.151,0,0,0,237.019,280.71Z" transform="translate(-236.598 -278.451)" fill="#fff"/>
            </g>
          </g>
          <g id="Group_10048" data-name="Group 10048" transform="translate(50.318 2.437)">
            <g id="Group_10047" data-name="Group 10047">
              <path id="Path_16131" data-name="Path 16131" d="M269.843,259.627a.212.212,0,0,1,0,.4L266.8,261.8a.763.763,0,0,1-.693,0l-1.579-.911a.212.212,0,0,1,0-.4l3.044-1.769a.765.765,0,0,1,.694,0Z" transform="translate(-264.178 -258.426)" fill="#e8e8e8"/>
              <path id="Path_16132" data-name="Path 16132" d="M266.371,262a.916.916,0,0,1-.45-.111l-1.578-.911a.415.415,0,0,1,0-.758l3.043-1.769a.964.964,0,0,1,.9,0l1.578.911a.415.415,0,0,1,0,.758l-3.043,1.768A.9.9,0,0,1,266.371,262Zm-1.855-1.4a.145.145,0,0,0,.033.023l1.578.911a.565.565,0,0,0,.488,0l3.043-1.769a.171.171,0,0,0,.031-.023.149.149,0,0,0-.033-.023l-1.578-.912a.566.566,0,0,0-.488,0l-3.043,1.769A.151.151,0,0,0,264.516,260.6Z" transform="translate(-264.095 -258.342)" fill="#fff"/>
            </g>
          </g>
          <g id="Group_10050" data-name="Group 10050" transform="translate(54.511 0)">
            <g id="Group_10049" data-name="Group 10049">
              <path id="Path_16133" data-name="Path 16133" d="M275.733,256.2a.213.213,0,0,1,0,.4l-3.044,1.768a.767.767,0,0,1-.694,0l-1.578-.911a.212.212,0,0,1,0-.4l3.043-1.769a.763.763,0,0,1,.693,0Z" transform="translate(-270.068 -255.003)" fill="#e8e8e8"/>
              <path id="Path_16134" data-name="Path 16134" d="M272.261,258.581a.912.912,0,0,1-.45-.111l-1.578-.911a.415.415,0,0,1,0-.758l3.044-1.769a.965.965,0,0,1,.9,0l1.578.911a.415.415,0,0,1,0,.758l-3.043,1.768A.91.91,0,0,1,272.261,258.581Zm-1.856-1.4a.172.172,0,0,0,.033.023l1.578.911a.563.563,0,0,0,.488,0l3.043-1.768a.024.024,0,1,0,0-.046l-1.578-.911a.566.566,0,0,0-.488,0l-3.043,1.768A.3.3,0,0,0,270.405,257.178Z" transform="translate(-269.985 -254.92)" fill="#fff"/>
            </g>
          </g>
          <g id="Group_10052" data-name="Group 10052" transform="translate(54.994 1.507)">
            <g id="Group_10051" data-name="Group 10051">
              <path id="Path_16135" data-name="Path 16135" d="M279.817,259.142a.212.212,0,0,1,0,.4l-5.027,2.921a.765.765,0,0,1-.694,0l-3-1.733a.213.213,0,0,1,0-.4l5.027-2.921a.767.767,0,0,1,.694,0Z" transform="translate(-270.746 -257.12)" fill="#e8e8e8"/>
              <path id="Path_16136" data-name="Path 16136" d="M274.363,262.671a.91.91,0,0,1-.451-.112l-3-1.733a.415.415,0,0,1,0-.758l5.027-2.921a.965.965,0,0,1,.9,0l3,1.733a.415.415,0,0,1,0,.758l-5.027,2.921A.906.906,0,0,1,274.363,262.671Zm-3.28-2.225a.189.189,0,0,0,.033.023l3,1.734a.565.565,0,0,0,.488,0l5.027-2.922a.222.222,0,0,0,.031-.022.186.186,0,0,0-.033-.024l-3-1.733a.563.563,0,0,0-.488,0l-5.027,2.921A.163.163,0,0,0,271.084,260.447Z" transform="translate(-270.663 -257.036)" fill="#fff"/>
            </g>
          </g>
          <g id="Group_10054" data-name="Group 10054" transform="translate(48.811 10.796)">
            <g id="Group_10053" data-name="Group 10053">
              <path id="Path_16137" data-name="Path 16137" d="M269.15,272.191a.212.212,0,0,1,0,.4l-3.043,1.769a.765.765,0,0,1-.694,0l-3-1.733a.212.212,0,0,1,0-.4l3.043-1.769a.765.765,0,0,1,.694,0Z" transform="translate(-262.061 -270.168)" fill="#e8e8e8"/>
              <path id="Path_16138" data-name="Path 16138" d="M265.678,274.567a.907.907,0,0,1-.45-.111l-3-1.733a.448.448,0,0,1-.248-.379.444.444,0,0,1,.246-.379l3.043-1.769a.964.964,0,0,1,.9,0l3,1.733a.415.415,0,0,1,0,.758l-3.043,1.769A.913.913,0,0,1,265.678,274.567Zm-3.279-2.224a.173.173,0,0,0,.033.024l3,1.733a.57.57,0,0,0,.488,0l3.043-1.769a.024.024,0,1,0,0-.046l-3-1.733a.565.565,0,0,0-.488,0l-3.043,1.768A.168.168,0,0,0,262.4,272.343Z" transform="translate(-261.978 -270.084)" fill="#fff"/>
            </g>
          </g>
          <g id="Group_10056" data-name="Group 10056" transform="translate(23.506 34.751)">
            <g id="Group_10055" data-name="Group 10055">
              <path id="Path_16139" data-name="Path 16139" d="M233.6,305.84a.212.212,0,0,1,0,.4l-3.043,1.769a.766.766,0,0,1-.695,0l-3-1.733a.212.212,0,0,1,0-.4l3.044-1.769a.763.763,0,0,1,.693,0Z" transform="translate(-226.515 -303.818)" fill="#e8e8e8"/>
              <path id="Path_16140" data-name="Path 16140" d="M230.132,308.218a.918.918,0,0,1-.451-.112l-3-1.733a.414.414,0,0,1,0-.758l3.043-1.769a.964.964,0,0,1,.9,0l3,1.733a.449.449,0,0,1,.248.38.444.444,0,0,1-.245.378l-3.044,1.769A.913.913,0,0,1,230.132,308.218Zm-3.28-2.225a.174.174,0,0,0,.033.023l3,1.733a.567.567,0,0,0,.488,0l3.043-1.769a.127.127,0,0,0,.031-.022.173.173,0,0,0-.033-.023l-3-1.733a.561.561,0,0,0-.488,0l-3.043,1.768A.3.3,0,0,0,226.853,305.993Z" transform="translate(-226.432 -303.734)" fill="#fff"/>
            </g>
          </g>
          <g id="Group_10058" data-name="Group 10058" transform="translate(18.366 42.255)">
            <g id="Group_10057" data-name="Group 10057">
              <path id="Path_16141" data-name="Path 16141" d="M226.941,316.7a.213.213,0,0,1,0,.4l-3.044,1.768a.765.765,0,0,1-.694,0l-3.559-2.055a.213.213,0,0,1,0-.4l3.044-1.769a.765.765,0,0,1,.694,0Z" transform="translate(-219.296 -314.359)" fill="#e8e8e8"/>
              <path id="Path_16142" data-name="Path 16142" d="M223.469,319.08a.912.912,0,0,1-.45-.111l-3.559-2.055a.415.415,0,0,1,0-.758l3.043-1.769a.964.964,0,0,1,.9,0l3.559,2.055a.415.415,0,0,1,0,.758l-3.044,1.768A.905.905,0,0,1,223.469,319.08Zm-3.836-2.546a.172.172,0,0,0,.033.023l3.559,2.055a.565.565,0,0,0,.488,0l3.043-1.769a.219.219,0,0,0,.031-.022.229.229,0,0,0-.033-.024l-3.559-2.054a.561.561,0,0,0-.488,0l-3.043,1.768A.181.181,0,0,0,219.633,316.534Z" transform="translate(-219.213 -314.275)" fill="#fff"/>
            </g>
          </g>
          <g id="Group_10060" data-name="Group 10060" transform="translate(30.541 34.666)">
            <g id="Group_10059" data-name="Group 10059">
              <path id="Path_16143" data-name="Path 16143" d="M244.927,306.043a.212.212,0,0,1,0,.4L241,308.727a.763.763,0,0,1-.693,0l-3.559-2.055a.212.212,0,0,1,0-.4l3.928-2.282a.765.765,0,0,1,.694,0Z" transform="translate(-236.398 -303.699)" fill="#e8e8e8"/>
              <path id="Path_16144" data-name="Path 16144" d="M240.572,308.934a.918.918,0,0,1-.451-.112l-3.558-2.055a.415.415,0,0,1,0-.758l3.928-2.282a.964.964,0,0,1,.9,0l3.559,2.055a.415.415,0,0,1,0,.758l-3.928,2.282A.908.908,0,0,1,240.572,308.934Zm-3.837-2.546a.212.212,0,0,0,.034.023l3.558,2.055a.566.566,0,0,0,.488,0l3.928-2.282a.219.219,0,0,0,.031-.022.189.189,0,0,0-.033-.023l-3.559-2.055a.565.565,0,0,0-.488,0l-3.927,2.282A.183.183,0,0,0,236.735,306.387Z" transform="translate(-236.315 -303.615)" fill="#fff"/>
            </g>
          </g>
          <g id="Group_10062" data-name="Group 10062" transform="translate(26.483 37.538)">
            <g id="Group_10061" data-name="Group 10061">
              <path id="Path_16145" data-name="Path 16145" d="M238.342,310.077a.213.213,0,0,1,0,.4l-3.044,1.769a.763.763,0,0,1-.693,0l-3.559-2.055a.213.213,0,0,1,0-.4l3.044-1.769a.765.765,0,0,1,.694,0Z" transform="translate(-230.697 -307.733)" fill="#e8e8e8"/>
              <path id="Path_16146" data-name="Path 16146" d="M234.871,312.454a.917.917,0,0,1-.451-.112l-3.558-2.055a.415.415,0,0,1,0-.758l3.044-1.769a.964.964,0,0,1,.9,0l3.559,2.055a.447.447,0,0,1,.247.379.443.443,0,0,1-.245.379l-3.043,1.769A.913.913,0,0,1,234.871,312.454Zm-3.836-2.546a.173.173,0,0,0,.033.023l3.558,2.055a.563.563,0,0,0,.488,0l3.044-1.769a.268.268,0,0,0,.031-.022.184.184,0,0,0-.033-.023l-3.559-2.055a.565.565,0,0,0-.488,0l-3.043,1.769A.149.149,0,0,0,231.035,309.908Z" transform="translate(-230.614 -307.649)" fill="#fff"/>
            </g>
          </g>
          <g id="Group_10064" data-name="Group 10064" transform="translate(14.444 37.083)">
            <g id="Group_10063" data-name="Group 10063">
              <path id="Path_16147" data-name="Path 16147" d="M225.924,309.115a.213.213,0,0,1,0,.4l-8.094,4.7a.767.767,0,0,1-.694,0l-3-1.733a.212.212,0,0,1,0-.4l8.094-4.7a.767.767,0,0,1,.694,0Z" transform="translate(-213.786 -307.093)" fill="#e8e8e8"/>
              <path id="Path_16148" data-name="Path 16148" d="M217.4,314.427a.917.917,0,0,1-.451-.111l-3-1.733a.414.414,0,0,1,0-.757l8.094-4.7a.964.964,0,0,1,.9,0l3,1.733a.415.415,0,0,1,0,.759l-8.093,4.7A.905.905,0,0,1,217.4,314.427Zm-3.28-2.224a.238.238,0,0,0,.033.024l3,1.733a.565.565,0,0,0,.488,0l8.094-4.7a.17.17,0,0,0,.031-.023.186.186,0,0,0-.033-.024l-3-1.733a.561.561,0,0,0-.488,0l-8.094,4.7A.171.171,0,0,0,214.124,312.2Z" transform="translate(-213.703 -307.01)" fill="#fff"/>
            </g>
          </g>
          <g id="Group_10066" data-name="Group 10066" transform="translate(22.424 39.897)">
            <g id="Group_10065" data-name="Group 10065">
              <path id="Path_16149" data-name="Path 16149" d="M232.641,313.39a.212.212,0,0,1,0,.4L229.6,315.56a.762.762,0,0,1-.694,0l-3.559-2.055a.213.213,0,0,1,0-.4l3.043-1.769a.766.766,0,0,1,.695,0Z" transform="translate(-224.996 -311.046)" fill="#e8e8e8"/>
              <path id="Path_16150" data-name="Path 16150" d="M229.17,315.767a.912.912,0,0,1-.45-.111l-3.559-2.055a.414.414,0,0,1,0-.758l3.043-1.769a.964.964,0,0,1,.9,0l3.559,2.055a.415.415,0,0,1,0,.758l-3.044,1.768A.905.905,0,0,1,229.17,315.767Zm-3.836-2.546a.206.206,0,0,0,.033.024l3.559,2.055a.568.568,0,0,0,.488,0l3.043-1.769a.149.149,0,0,0,.031-.022.186.186,0,0,0-.033-.023L228.9,311.43a.561.561,0,0,0-.488,0l-3.044,1.768A.171.171,0,0,0,225.334,313.221Z" transform="translate(-224.913 -310.962)" fill="#fff"/>
            </g>
          </g>
          <g id="Group_10068" data-name="Group 10068" transform="translate(68.772 12.962)">
            <g id="Group_10067" data-name="Group 10067">
              <path id="Path_16151" data-name="Path 16151" d="M297.746,275.556a.212.212,0,0,1,0,.4l-3.043,1.769a.764.764,0,0,1-.694,0l-3.559-2.055a.212.212,0,0,1,0-.4l3.043-1.769a.766.766,0,0,1,.695,0Z" transform="translate(-290.101 -273.211)" fill="#e8e8e8"/>
              <path id="Path_16152" data-name="Path 16152" d="M294.275,277.932a.917.917,0,0,1-.451-.111l-3.558-2.055a.414.414,0,0,1,0-.758l3.043-1.769a.964.964,0,0,1,.9,0l3.559,2.055a.415.415,0,0,1,0,.758l-3.044,1.769A.912.912,0,0,1,294.275,277.932Zm-3.836-2.546a.207.207,0,0,0,.033.024l3.558,2.055a.568.568,0,0,0,.488,0l3.044-1.769a.218.218,0,0,0,.031-.022.192.192,0,0,0-.033-.023L294,273.6a.563.563,0,0,0-.488,0l-3.044,1.769A.2.2,0,0,0,290.439,275.386Z" transform="translate(-290.018 -273.127)" fill="#fff"/>
            </g>
          </g>
          <g id="Group_10070" data-name="Group 10070" transform="translate(66.849 16.5)">
            <g id="Group_10069" data-name="Group 10069">
              <path id="Path_16153" data-name="Path 16153" d="M292.956,279.319a.212.212,0,0,1,0,.4l-3.043,1.769a.765.765,0,0,1-.694,0l-1.47-.849a.212.212,0,0,1,0-.4l3.044-1.768a.765.765,0,0,1,.694,0Z" transform="translate(-287.399 -278.18)" fill="#e8e8e8"/>
              <path id="Path_16154" data-name="Path 16154" d="M289.484,281.7a.916.916,0,0,1-.45-.111l-1.469-.849a.415.415,0,0,1,0-.759l3.044-1.768a.96.96,0,0,1,.9,0l1.469.848a.448.448,0,0,1,.248.38.444.444,0,0,1-.246.378l-3.043,1.769A.906.906,0,0,1,289.484,281.7Zm-1.747-1.341a.17.17,0,0,0,.033.024l1.469.849a.567.567,0,0,0,.488,0l3.043-1.768a.173.173,0,0,0,.031-.023.232.232,0,0,0-.033-.023l-1.47-.849a.565.565,0,0,0-.488,0l-3.044,1.769A.264.264,0,0,0,287.737,280.355Z" transform="translate(-287.316 -278.096)" fill="#fff"/>
            </g>
          </g>
          <g id="Group_10072" data-name="Group 10072" transform="translate(55.809 15.979)">
            <g id="Group_10071" data-name="Group 10071">
              <path id="Path_16155" data-name="Path 16155" d="M278.979,279.471a.212.212,0,0,1,0,.4l-3.043,1.769a.767.767,0,0,1-.695,0l-3-1.733a.213.213,0,0,1,0-.4l3.043-1.768a.765.765,0,0,1,.694,0Z" transform="translate(-271.891 -277.449)" fill="#e8e8e8"/>
              <path id="Path_16156" data-name="Path 16156" d="M275.508,281.848a.917.917,0,0,1-.451-.111l-3-1.733a.415.415,0,0,1,0-.758l3.043-1.769a.965.965,0,0,1,.9,0l3,1.733a.415.415,0,0,1,0,.758l-3.043,1.768A.906.906,0,0,1,275.508,281.848Zm-3.279-2.224a.2.2,0,0,0,.033.023l3,1.733a.567.567,0,0,0,.488,0l3.043-1.769a.183.183,0,0,0,.032-.022.2.2,0,0,0-.033-.023l-3-1.733a.561.561,0,0,0-.488,0L272.26,279.6A.171.171,0,0,0,272.229,279.624Z" transform="translate(-271.808 -277.365)" fill="#fff"/>
            </g>
          </g>
          <g id="Group_10074" data-name="Group 10074" transform="translate(55.675 20.06)">
            <g id="Group_10073" data-name="Group 10073">
              <path id="Path_16157" data-name="Path 16157" d="M280.233,285.526a.212.212,0,0,1,0,.4l-3.928,2.282a.763.763,0,0,1-.694,0l-3.559-2.055a.213.213,0,0,1,0-.4l3.928-2.282a.762.762,0,0,1,.694,0Z" transform="translate(-271.703 -283.181)" fill="#e8e8e8"/>
              <path id="Path_16158" data-name="Path 16158" d="M275.877,288.416a.917.917,0,0,1-.451-.111l-3.558-2.055a.414.414,0,0,1,0-.758l3.928-2.282a.96.96,0,0,1,.9,0l3.559,2.054a.45.45,0,0,1,.248.379.444.444,0,0,1-.245.379l-3.928,2.282A.91.91,0,0,1,275.877,288.416Zm-3.836-2.546a.173.173,0,0,0,.033.023l3.558,2.055a.564.564,0,0,0,.488,0l3.928-2.282a.2.2,0,0,0,.031-.022.209.209,0,0,0-.033-.023l-3.558-2.055a.567.567,0,0,0-.488,0l-3.927,2.282A.179.179,0,0,0,272.041,285.87Z" transform="translate(-271.62 -283.098)" fill="#fff"/>
            </g>
          </g>
          <g id="Group_10076" data-name="Group 10076" transform="translate(60.749 17.625)">
            <g id="Group_10075" data-name="Group 10075">
              <path id="Path_16159" data-name="Path 16159" d="M286.475,282.106a.213.213,0,0,1,0,.4l-3.043,1.768a.764.764,0,0,1-.694,0l-3.558-2.055a.212.212,0,0,1,0-.4l3.043-1.768a.766.766,0,0,1,.695,0Z" transform="translate(-278.83 -279.761)" fill="#e8e8e8"/>
              <path id="Path_16160" data-name="Path 16160" d="M283,284.483a.914.914,0,0,1-.45-.111l-3.559-2.055a.415.415,0,0,1,0-.758l3.043-1.769a.964.964,0,0,1,.9,0l3.559,2.055a.415.415,0,0,1,0,.758l-3.043,1.769A.905.905,0,0,1,283,284.483Zm-3.836-2.546a.209.209,0,0,0,.033.023l3.559,2.055a.566.566,0,0,0,.488,0l3.043-1.769a.179.179,0,0,0,.032-.023.206.206,0,0,0-.033-.023l-3.559-2.055a.565.565,0,0,0-.488,0l-3.043,1.768A.2.2,0,0,0,279.167,281.937Z" transform="translate(-278.747 -279.678)" fill="#fff"/>
            </g>
          </g>
          <g id="Group_10078" data-name="Group 10078" transform="translate(39.658 25.365)">
            <g id="Group_10077" data-name="Group 10077">
              <path id="Path_16161" data-name="Path 16161" d="M256.292,292.656a.212.212,0,0,1,0,.4l-3.043,1.768a.766.766,0,0,1-.695,0l-3-1.733a.213.213,0,0,1,0-.4l3.043-1.768a.762.762,0,0,1,.694,0Z" transform="translate(-249.204 -290.633)" fill="#e8e8e8"/>
              <path id="Path_16162" data-name="Path 16162" d="M252.821,295.033a.91.91,0,0,1-.451-.112l-3-1.733a.415.415,0,0,1,0-.758l3.043-1.768a.966.966,0,0,1,.9,0l3,1.733a.415.415,0,0,1,0,.759l-3.043,1.768A.9.9,0,0,1,252.821,295.033Zm-3.28-2.225a.172.172,0,0,0,.033.024l3,1.733a.563.563,0,0,0,.488,0l3.044-1.768a.169.169,0,0,0,.031-.023.216.216,0,0,0-.033-.023l-3-1.733a.567.567,0,0,0-.488,0l-3.043,1.769A.271.271,0,0,0,249.541,292.808Z" transform="translate(-249.121 -290.55)" fill="#fff"/>
            </g>
          </g>
          <g id="Group_10080" data-name="Group 10080" transform="translate(35.537 22.954)">
            <g id="Group_10079" data-name="Group 10079">
              <path id="Path_16163" data-name="Path 16163" d="M267.1,289.591a.213.213,0,0,1,0,.4l-19.085,11.091a.763.763,0,0,1-.693,0l-3.559-2.055a.212.212,0,0,1,0-.4l19.085-11.091a.765.765,0,0,1,.694,0Z" transform="translate(-243.416 -287.247)" fill="#e8e8e8"/>
              <path id="Path_16164" data-name="Path 16164" d="M247.589,301.29a.917.917,0,0,1-.45-.111l-3.559-2.055a.415.415,0,0,1,0-.758l19.085-11.091a.963.963,0,0,1,.9,0l3.559,2.055a.415.415,0,0,1,0,.758l-19.085,11.091A.9.9,0,0,1,247.589,301.29Zm-3.836-2.546a.211.211,0,0,0,.033.023l3.559,2.055a.568.568,0,0,0,.488,0l19.085-11.091a.2.2,0,0,0,.031-.022.172.172,0,0,0-.033-.023l-3.559-2.055a.563.563,0,0,0-.488,0l-19.085,11.091A.2.2,0,0,0,243.753,298.744Z" transform="translate(-243.333 -287.163)" fill="#fff"/>
            </g>
          </g>
          <g id="Group_10082" data-name="Group 10082" transform="translate(27.544 32.405)">
            <g id="Group_10081" data-name="Group 10081">
              <path id="Path_16165" data-name="Path 16165" d="M239.276,302.544a.212.212,0,0,1,0,.4l-3.043,1.769a.763.763,0,0,1-.694,0l-3-1.733a.212.212,0,0,1,0-.4l3.043-1.769a.766.766,0,0,1,.695,0Z" transform="translate(-232.188 -300.522)" fill="#e8e8e8"/>
              <path id="Path_16166" data-name="Path 16166" d="M235.805,304.921a.911.911,0,0,1-.451-.112l-3-1.732a.415.415,0,0,1,0-.758l3.043-1.769a.966.966,0,0,1,.9,0l3,1.733a.415.415,0,0,1,0,.758l-3.043,1.769A.912.912,0,0,1,235.805,304.921Zm-3.28-2.224a.171.171,0,0,0,.033.023l3,1.733a.565.565,0,0,0,.488,0l3.043-1.769a.142.142,0,0,0,.031-.022.194.194,0,0,0-.033-.024l-3-1.733a.565.565,0,0,0-.488,0l-3.043,1.768A.148.148,0,0,0,232.526,302.7Z" transform="translate(-232.105 -300.438)" fill="#fff"/>
            </g>
          </g>
          <g id="Group_10084" data-name="Group 10084" transform="translate(10.451 35.971)">
            <g id="Group_10083" data-name="Group 10083">
              <path id="Path_16167" data-name="Path 16167" d="M218.264,307.553a.212.212,0,0,1,0,.4l-6.042,3.511a.765.765,0,0,1-.694,0l-3-1.733a.212.212,0,0,1,0-.4l6.041-3.511a.765.765,0,0,1,.694,0Z" transform="translate(-208.178 -305.531)" fill="#e8e8e8"/>
              <path id="Path_16168" data-name="Path 16168" d="M211.8,311.672a.917.917,0,0,1-.451-.111l-3-1.733a.45.45,0,0,1-.248-.379.445.445,0,0,1,.245-.379l6.042-3.511a.965.965,0,0,1,.9,0l3,1.733a.415.415,0,0,1,0,.758l-6.041,3.511A.912.912,0,0,1,211.8,311.672Zm-3.28-2.224a.212.212,0,0,0,.033.024l3,1.733a.566.566,0,0,0,.488,0l6.042-3.511a.2.2,0,0,0,.031-.022.173.173,0,0,0-.033-.023l-3-1.734a.563.563,0,0,0-.488,0l-6.041,3.511A.211.211,0,0,0,208.516,309.448Z" transform="translate(-208.095 -305.447)" fill="#fff"/>
            </g>
          </g>
          <g id="Group_10086" data-name="Group 10086" transform="translate(6.46 34.255)">
            <g id="Group_10085" data-name="Group 10085">
              <path id="Path_16169" data-name="Path 16169" d="M211.642,305.144a.213.213,0,0,1,0,.4l-5.027,2.921a.764.764,0,0,1-.694,0l-3-1.733a.212.212,0,0,1,0-.4l5.027-2.921a.762.762,0,0,1,.695,0Z" transform="translate(-202.571 -303.121)" fill="#e8e8e8"/>
              <path id="Path_16170" data-name="Path 16170" d="M206.188,308.673a.913.913,0,0,1-.45-.111l-3-1.733a.415.415,0,0,1,0-.758l5.026-2.921a.966.966,0,0,1,.9,0l3,1.733a.415.415,0,0,1,0,.758l-5.027,2.921A.9.9,0,0,1,206.188,308.673Zm-3.28-2.225a.245.245,0,0,0,.033.024l3,1.733a.568.568,0,0,0,.488,0l5.026-2.922a.18.18,0,0,0,.032-.023.239.239,0,0,0-.033-.023l-3-1.733a.565.565,0,0,0-.488,0l-5.027,2.922A.205.205,0,0,0,202.908,306.449Z" transform="translate(-202.488 -303.038)" fill="#fff"/>
            </g>
          </g>
          <g id="Group_10088" data-name="Group 10088" transform="translate(16.772 21.931)">
            <g id="Group_10087" data-name="Group 10087">
              <path id="Path_16171" data-name="Path 16171" d="M222.722,287.011a.212.212,0,0,1,0,.4l-3.043,1.769a.766.766,0,0,1-.695,0l-1.578-.911a.212.212,0,0,1,0-.4l3.043-1.768a.765.765,0,0,1,.694,0Z" transform="translate(-217.057 -285.81)" fill="#e8e8e8"/>
              <path id="Path_16172" data-name="Path 16172" d="M219.25,289.387a.907.907,0,0,1-.45-.112l-1.578-.911a.415.415,0,0,1,0-.759l3.043-1.768a.965.965,0,0,1,.9,0l1.578.911a.415.415,0,0,1,0,.758l-3.043,1.769A.914.914,0,0,1,219.25,289.387Zm-1.855-1.4a.169.169,0,0,0,.033.023l1.578.911a.567.567,0,0,0,.488,0l3.043-1.769a.151.151,0,0,0,.031-.022.171.171,0,0,0-.033-.024l-1.578-.911a.566.566,0,0,0-.488,0l-3.043,1.769A.17.17,0,0,0,217.395,287.985Z" transform="translate(-216.974 -285.726)" fill="#fff"/>
            </g>
          </g>
        </g>
      </g>
    </g>
    <g id="Group_10096" data-name="Group 10096" transform="translate(240.536 196.205)">
      <g id="Group_10094" data-name="Group 10094">
        <path id="Path_16173" data-name="Path 16173" d="M315.342,256.175c-1.058-6.611-14.772-13.62-22.122-11.553a11.964,11.964,0,0,0-2.88,1.491c-2.451,1.5-2.231,4.169.641,5.828l12.354,7.133c2.873,1.658,7.217,1.838,9.7.4l.672-.388A2.724,2.724,0,0,0,315.342,256.175Z" transform="translate(-288.63 -242.662)" fill="#e8e8e8"/>
        <g id="Group_10093" data-name="Group 10093">
          <path id="Path_16174" data-name="Path 16174" d="M315.4,256.385a2.926,2.926,0,0,1-1.677,2.334l-.672.388c-2.487,1.436-6.832,1.256-9.7-.4L291,251.571c-1.526-.881-2.33-2-2.374-3.076h0v1.051c.026,1.085.829,2.223,2.374,3.115l12.354,7.133c2.873,1.659,7.217,1.839,9.7.4l.672-.387a2.907,2.907,0,0,0,1.677-2.372l0-1.051Z" transform="translate(-288.621 -243.884)" fill="#fa3535"/>
          <g id="Group_10092" data-name="Group 10092" transform="translate(0.003 4.851)">
            <path id="Path_16175" data-name="Path 16175" d="M315.4,256.27c-.005.11.3,1.576-2.351,2.934h0c-2.49,1.436-6.838,1.256-9.712-.4l-12.364-7.133a4.274,4.274,0,0,1-2.352-2.837c.046,1.072.846,2.193,2.371,3.073l12.354,7.133c2.873,1.659,7.217,1.839,9.7.4l.672-.387a2.908,2.908,0,0,0,1.677-2.372Z" transform="translate(-288.625 -248.831)" fill="#dedede"/>
          </g>
          <path id="Path_16176" data-name="Path 16176" d="M315.373,253.939c-1.057-6.611-14.772-13.619-22.122-11.553a11.945,11.945,0,0,0-2.879,1.492c-2.452,1.5-2.232,4.169.641,5.827l12.354,7.133c2.872,1.659,7.217,1.839,9.7.4l.672-.388A2.725,2.725,0,0,0,315.373,253.939Z" transform="translate(-288.639 -242.018)" fill="#fff"/>
        </g>
      </g>
      <g id="Group_10095" data-name="Group 10095" transform="translate(2.568 0)">
        <path id="Path_16177" data-name="Path 16177" d="M316.394,253.939c-1.057-6.611-14.772-13.619-22.122-11.553a8.378,8.378,0,0,0-2.045.971,31.046,31.046,0,0,1,23.049,13.15A2.527,2.527,0,0,0,316.394,253.939Z" transform="translate(-292.228 -242.018)" fill="#e8e8e8"/>
      </g>
    </g>
    <g id="Group_10135" data-name="Group 10135" transform="translate(240.536 154.28)">
      <g id="Group_10136" data-name="Group 10136" transform="translate(0 4.592)">
        <path id="Path_16281" data-name="Path 16281" d="M117.851,371.089,92.526,385.711,54.638,363.888h0v.419l37.888,21.822,25.325-14.621a1.4,1.4,0,0,0,.8-1.133l.012-.483S118.738,370.565,117.851,371.089Z" transform="translate(-54.638 -348.797)" fill="#86909a"/>
        <g id="Group_10135-2" data-name="Group 10135">
          <path id="Path_16282" data-name="Path 16282" d="M117.851,358.7,92.526,373.325,54.638,351.5l25.325-14.621a5.234,5.234,0,0,1,4.708.195l32.842,18.909C118.906,356.79,119.057,358.007,117.851,358.7Z" transform="translate(-54.638 -336.411)" fill="#bdc9d6"/>
        </g>
      </g>
      <g id="Group_10139" data-name="Group 10139" transform="translate(0)">
        <path id="Path_16283" data-name="Path 16283" d="M117.851,362.73,92.526,377.352,54.638,355.529h0v.419L92.526,377.77l25.325-14.621a1.4,1.4,0,0,0,.8-1.133l.012-.482S118.738,362.206,117.851,362.73Z" transform="translate(-54.638 -340.437)" fill="#86909a"/>
        <g id="Group_10138" data-name="Group 10138">
          <g id="Group_10137" data-name="Group 10137">
            <path id="Path_16284" data-name="Path 16284" d="M117.851,350.344,92.526,364.966,54.638,343.143l25.325-14.621a5.231,5.231,0,0,1,4.708.195l32.842,18.909C118.906,348.431,119.057,349.648,117.851,350.344Z" transform="translate(-54.638 -328.051)" fill="#bdc9d6"/>
          </g>
        </g>
      </g>
      <g id="Group_10140" data-name="Group 10140" transform="translate(0 15.092)">
        <path id="Path_16285" data-name="Path 16285" d="M92.526,382.362v-5.01L54.638,355.529v5.01Z" transform="translate(-54.638 -355.529)" fill="#86909a"/>
        <path id="Path_16286" data-name="Path 16286" d="M123.62,400.106l.35-.2v-5.009l-.35.2Z" transform="translate(-85.732 -373.273)" fill="#86909a"/>
      </g>
      <g id="Group_10141" data-name="Group 10141" transform="translate(38.237 22.712)">
        <path id="Path_16287" data-name="Path 16287" d="M124.256,387.394l24.975-14.42V369.4l-24.975,14.42Z" transform="translate(-124.256 -369.403)" fill="#fff"/>
        <path id="Path_16288" data-name="Path 16288" d="M149.232,369.928l-24.975,14.42v-.525l24.975-14.42Z" transform="translate(-124.256 -369.403)" fill="#e8e8e8"/>
      </g>
      <g id="Group_10143" data-name="Group 10143" transform="translate(20.868 1.592)">
        <path id="Path_16289" data-name="Path 16289" d="M132.78,352.8l-2.407,1.4L92.632,332.35l2.407-1.4Z" transform="translate(-92.632 -330.949)" fill="#fa3535"/>
        <g id="Group_10142" data-name="Group 10142" transform="translate(37.74 21.858)">
          <path id="Path_16290" data-name="Path 16290" d="M163.753,375.1l-2.407,1.4v-4.358l2.407-1.4Z" transform="translate(-161.346 -370.745)" fill="#c62020"/>
        </g>
      </g>
      <path id="Path_16291" data-name="Path 16291" d="M113.879,394.055l-.549-.316V387.99h.549Z" transform="translate(-81.094 -355.069)" fill="#bdc9d6"/>
      <path id="Path_16292" data-name="Path 16292" d="M109.578,391.7l-.549-.316v-5.6h.549Z" transform="translate(-79.155 -354.074)" fill="#bdc9d6"/>
    </g>
    <g id="Group_10146" data-name="Group 10146" transform="translate(-27.091 -70.061)">
      <g id="Group_10158" data-name="Group 10158" transform="translate(133.231 317.723)">
        <g id="Group_10147" data-name="Group 10147" transform="translate(0.104 0.841)">
          <g id="Group_10146-2" data-name="Group 10146">
            <path id="Path_16293" data-name="Path 16293" d="M133.4,327.463l15.635-8.392,17.757,11.069-15.635,8.392Z" transform="translate(-133.398 -319.071)" fill="#fa3535"/>
          </g>
        </g>
        <path id="Path_16294" data-name="Path 16294" d="M151.092,343.589,133.335,332.52l-.1,2.834,17.757,11.069,15.635-8.392.1-2.834Z" transform="translate(-133.231 -323.287)" fill="#c62020"/>
        <g id="Group_10151" data-name="Group 10151" transform="translate(0.121 0.915)">
          <g id="Group_10150" data-name="Group 10150">
            <path id="Path_16295" data-name="Path 16295" d="M159.777,322.8l-15.635,8.392a3.182,3.182,0,0,1-.334.154c-2.37.931-6.015-.917-8.3-2.338-1.229-.766-2.062-1.409-2.086-1.428l15.635-8.392c.024.018.857.661,2.086,1.427,2.281,1.422,5.927,3.269,8.3,2.338A3.1,3.1,0,0,0,159.777,322.8Z" transform="translate(-133.426 -319.19)" fill="#fa3535"/>
          </g>
        </g>
        <g id="Group_10154" data-name="Group 10154" transform="translate(10.94 0.095)">
          <path id="Path_16315" data-name="Path 16315" d="M166.4,322.5l-15.636,8.392c1.289-.692,1.988-2.245,2.075-4.625l15.635-8.392C168.386,320.256,167.688,321.809,166.4,322.5Z" transform="translate(-150.763 -317.875)" fill="#c62020"/>
        </g>
        <g id="Group_10156" data-name="Group 10156" transform="translate(12.863)">
          <g id="Group_10155" data-name="Group 10155">
            <path id="Path_16328" data-name="Path 16328" d="M153.844,326.115l15.635-8.392.153.1L154,326.21Z" transform="translate(-153.844 -317.723)" fill="#c62020"/>
          </g>
        </g>
        <g id="Group_10157" data-name="Group 10157" transform="translate(0.096 8.392)">
          <path id="Path_16329" data-name="Path 16329" d="M146.3,331.267c-.095,2.582-.909,4.191-2.416,4.782-2.409.944-6.1-.928-8.408-2.365-1.236-.771-2.071-1.415-2.1-1.433l.026-.164c.024.019.857.661,2.086,1.428,2.281,1.421,5.926,3.269,8.3,2.338,1.473-.577,2.266-2.153,2.359-4.681Z" transform="translate(-133.385 -331.172)" fill="#c62020"/>
        </g>
      </g>
    </g>
  </g>
</svg>
