<svg xmlns="http://www.w3.org/2000/svg" width="211.196" height="188.581" viewBox="0 0 211.196 188.581">
  <g id="Group_10437" data-name="Group 10437" transform="translate(-1065 -1966.45)">
    <g id="Group_10443" data-name="Group 10443" transform="translate(13.574 30.292)">
      <g id="Group_10437-2" data-name="Group 10437" transform="translate(1051.426 1963.496)">
        <g id="Group_10273" data-name="Group 10273" transform="translate(0.601 0)">
          <g id="Group_10272" data-name="Group 10272">
            <g id="Group_10267" data-name="Group 10267">
              <path id="Path_21266" data-name="Path 21266" d="M318.036,112.791c.393-2.321.781-4.712.781-4.712l-5.46-3.48a3.509,3.509,0,0,1-.361-.184,2.912,2.912,0,0,0-2.7.253c-11.054,6.382-12.211,62.707-12.211,62.707s-.273-3.289-.916-7.554l.392-.73-1.728-14.575-2.78-1.725c-.8-.5-1.544-1.077-2.321-1.61a2.822,2.822,0,0,0-3.316,0c-8.1,4.972-11.311,43.488-11.311,43.488l5.81,3.606,5.351-9.981,36.911-21.082S322.761,127.806,318.036,112.791Z" transform="translate(-276.101 -104.19)" fill="#c62020"/>
            </g>
            <g id="Group_10268" data-name="Group 10268" transform="translate(5.81 3.6)">
              <path id="Path_21270" data-name="Path 21270" d="M282.97,188.928s3.213-38.515,11.311-43.487,10.669,26.2,10.669,26.2,1.157-56.326,12.211-62.707,13.882,52.541,13.882,52.541Z" transform="translate(-282.97 -108.446)" fill="#f43232"/>
            </g>
            <g id="Group_10271" data-name="Group 10271" transform="translate(7.763 42.378)">
              <g id="Group_10269" data-name="Group 10269">
                <path id="Path_21272" data-name="Path 21272" d="M330.569,158.928l1.008-1.552-4.508-2.3s-.423-.257-.434-.248a5.9,5.9,0,0,0-5.777.523c-9.9,5.717-9.523,19.445-19.815,27.644s-14.591,5.416-14.591,5.416l-1.173,8.349,5.077,2.617,14.675-10.418L334,168.926A35,35,0,0,0,330.569,158.928Z" transform="translate(-285.279 -154.294)" fill="#c62020"/>
              </g>
              <path id="Path_21275" data-name="Path 21275" d="M340.045,171.885S336.8,152.591,326.9,158.307s-9.523,19.445-19.815,27.644-14.591,5.416-14.591,5.416l-1.172,8.349Z" transform="translate(-286.211 -154.75)" fill="#fa3535"/>
              <g id="Group_10270" data-name="Group 10270" transform="translate(0 34.112)">
                <path id="Path_21276" data-name="Path 21276" d="M286.452,194.626l5.109,2.5-1.2,8.461-5.077-2.617Z" transform="translate(-285.279 -194.626)" fill="#c62020"/>
              </g>
            </g>
          </g>
          <path id="Path_21278" data-name="Path 21278" d="M342.435,174.527s-3.244-19.294-13.146-13.578-9.523,19.445-19.815,27.643-14.591,5.416-14.591,5.416l-1.173,8.35Z" transform="translate(-278.816 -112.779)" fill="#bdc9d6"/>
        </g>
        <g id="Group_10274" data-name="Group 10274" transform="translate(0 63.387)">
          <path id="Path_21279" data-name="Path 21279" d="M298.628,214.9a.358.358,0,0,1,0,.678,1.3,1.3,0,0,1-1.175,0,.358.358,0,0,1,0-.678A1.3,1.3,0,0,1,298.628,214.9Z" transform="translate(-278.755 -184.626)" fill="#a7a7a7"/>
          <ellipse id="Ellipse_348" data-name="Ellipse 348" cx="0.831" cy="0.48" rx="0.831" ry="0.48" transform="translate(21.525 28.356)" fill="#a7a7a7"/>
          <path id="Path_21280" data-name="Path 21280" d="M305.89,210.7a.358.358,0,0,1,0,.678,1.3,1.3,0,0,1-1.174,0,.358.358,0,0,1,0-.678A1.294,1.294,0,0,1,305.89,210.7Z" transform="translate(-279.875 -183.98)" fill="#a7a7a7"/>
          <path id="Path_21281" data-name="Path 21281" d="M309.521,208.606a.358.358,0,0,1,0,.678,1.3,1.3,0,0,1-1.175,0,.358.358,0,0,1,0-.678A1.3,1.3,0,0,1,309.521,208.606Z" transform="translate(-280.435 -183.656)" fill="#a7a7a7"/>
          <ellipse id="Ellipse_349" data-name="Ellipse 349" cx="0.831" cy="0.48" rx="0.831" ry="0.48" transform="translate(30.739 23.037)" fill="#a7a7a7"/>
          <ellipse id="Ellipse_350" data-name="Ellipse 350" cx="0.831" cy="0.48" rx="0.831" ry="0.48" transform="translate(12.312 30.129)" fill="#a7a7a7"/>
          <path id="Path_21282" data-name="Path 21282" d="M295,212.8a.358.358,0,0,1,0,.678,1.3,1.3,0,0,1-1.175,0,.358.358,0,0,1,0-.678A1.3,1.3,0,0,1,295,212.8Z" transform="translate(-278.195 -184.303)" fill="#a7a7a7"/>
          <path id="Path_21283" data-name="Path 21283" d="M298.628,210.7a.358.358,0,0,1,0,.678,1.3,1.3,0,0,1-1.175,0,.358.358,0,0,1,0-.678A1.3,1.3,0,0,1,298.628,210.7Z" transform="translate(-278.755 -183.98)" fill="#a7a7a7"/>
          <path id="Path_21284" data-name="Path 21284" d="M302.258,208.606a.358.358,0,0,1,0,.678,1.3,1.3,0,0,1-1.175,0,.358.358,0,0,1,0-.678A1.3,1.3,0,0,1,302.258,208.606Z" transform="translate(-279.315 -183.656)" fill="#a7a7a7"/>
          <path id="Path_21285" data-name="Path 21285" d="M305.89,206.51a.358.358,0,0,1,0,.678,1.3,1.3,0,0,1-1.174,0,.358.358,0,0,1,0-.678A1.294,1.294,0,0,1,305.89,206.51Z" transform="translate(-279.875 -183.333)" fill="#a7a7a7"/>
          <path id="Path_21286" data-name="Path 21286" d="M309.521,204.413a.358.358,0,0,1,0,.678,1.3,1.3,0,0,1-1.175,0,.358.358,0,0,1,0-.678A1.3,1.3,0,0,1,309.521,204.413Z" transform="translate(-280.435 -183.01)" fill="#a7a7a7"/>
          <ellipse id="Ellipse_351" data-name="Ellipse 351" cx="0.831" cy="0.48" rx="0.831" ry="0.48" transform="translate(9.214 28.338)" fill="#a7a7a7"/>
          <ellipse id="Ellipse_352" data-name="Ellipse 352" cx="0.831" cy="0.48" rx="0.831" ry="0.48" transform="translate(12.285 26.564)" fill="#a7a7a7"/>
          <path id="Path_21287" data-name="Path 21287" d="M284.071,210.681a.358.358,0,0,1,0,.677,1.3,1.3,0,0,1-1.175,0,.357.357,0,0,1,0-.677A1.3,1.3,0,0,1,284.071,210.681Z" transform="translate(-276.511 -183.976)" fill="#a7a7a7"/>
          <ellipse id="Ellipse_353" data-name="Ellipse 353" cx="0.831" cy="0.48" rx="0.831" ry="0.48" transform="translate(9.214 24.791)" fill="#a7a7a7"/>
          <path id="Path_21288" data-name="Path 21288" d="M280.44,208.584a.358.358,0,0,1,0,.678,1.3,1.3,0,0,1-1.175,0,.358.358,0,0,1,0-.678A1.3,1.3,0,0,1,280.44,208.584Z" transform="translate(-275.951 -183.653)" fill="#a7a7a7"/>
          <path id="Path_21289" data-name="Path 21289" d="M284.071,206.488a.358.358,0,0,1,0,.678,1.3,1.3,0,0,1-1.175,0,.358.358,0,0,1,0-.678A1.3,1.3,0,0,1,284.071,206.488Z" transform="translate(-276.511 -183.33)" fill="#a7a7a7"/>
          <path id="Path_21290" data-name="Path 21290" d="M276.809,206.488a.358.358,0,0,1,0,.678,1.3,1.3,0,0,1-1.174,0,.358.358,0,0,1,0-.678A1.294,1.294,0,0,1,276.809,206.488Z" transform="translate(-275.391 -183.33)" fill="#a7a7a7"/>
          <path id="Path_21291" data-name="Path 21291" d="M280.44,204.391a.358.358,0,0,1,0,.678,1.3,1.3,0,0,1-1.175,0,.358.358,0,0,1,0-.678A1.3,1.3,0,0,1,280.44,204.391Z" transform="translate(-275.951 -183.007)" fill="#a7a7a7"/>
          <path id="Path_21292" data-name="Path 21292" d="M276.809,202.3a.358.358,0,0,1,0,.678,1.3,1.3,0,0,1-1.174,0,.358.358,0,0,1,0-.678A1.294,1.294,0,0,1,276.809,202.3Z" transform="translate(-275.391 -182.683)" fill="#a7a7a7"/>
          <path id="Path_21293" data-name="Path 21293" d="M315.634,204.434a1.3,1.3,0,0,1,1.175,0,.358.358,0,0,1,0,.678,1.3,1.3,0,0,1-1.175,0A.358.358,0,0,1,315.634,204.434Z" transform="translate(-281.559 -183.013)" fill="#a7a7a7"/>
          <path id="Path_21294" data-name="Path 21294" d="M320.444,202.335a.358.358,0,0,1,0,.677,1.3,1.3,0,0,1-1.175,0,.357.357,0,0,1,0-.677A1.3,1.3,0,0,1,320.444,202.335Z" transform="translate(-282.12 -182.689)" fill="#a7a7a7"/>
          <path id="Path_21295" data-name="Path 21295" d="M324.075,200.238a.358.358,0,0,1,0,.678,1.3,1.3,0,0,1-1.175,0,.358.358,0,0,1,0-.678A1.3,1.3,0,0,1,324.075,200.238Z" transform="translate(-282.679 -182.366)" fill="#a7a7a7"/>
          <path id="Path_21296" data-name="Path 21296" d="M327.707,198.142a.358.358,0,0,1,0,.677,1.3,1.3,0,0,1-1.175,0,.358.358,0,0,1,0-.677A1.3,1.3,0,0,1,327.707,198.142Z" transform="translate(-283.24 -182.043)" fill="#a7a7a7"/>
          <ellipse id="Ellipse_354" data-name="Ellipse 354" cx="0.831" cy="0.48" rx="0.831" ry="0.48" transform="translate(46.12 14.186)" fill="#a7a7a7"/>
          <path id="Path_21297" data-name="Path 21297" d="M334.969,193.949a.357.357,0,0,1,0,.677,1.294,1.294,0,0,1-1.174,0,.357.357,0,0,1,0-.677A1.294,1.294,0,0,1,334.969,193.949Z" transform="translate(-284.359 -181.396)" fill="#a7a7a7"/>
          <ellipse id="Ellipse_355" data-name="Ellipse 355" cx="0.831" cy="0.48" rx="0.831" ry="0.48" transform="translate(52.263 10.639)" fill="#a7a7a7"/>
          <ellipse id="Ellipse_356" data-name="Ellipse 356" cx="0.831" cy="0.48" rx="0.831" ry="0.48" transform="translate(55.334 8.866)" fill="#a7a7a7"/>
          <path id="Path_21298" data-name="Path 21298" d="M345.863,187.659a.358.358,0,0,1,0,.678,1.3,1.3,0,0,1-1.175,0,.358.358,0,0,1,0-.678A1.3,1.3,0,0,1,345.863,187.659Z" transform="translate(-286.039 -180.426)" fill="#a7a7a7"/>
          <path id="Path_21299" data-name="Path 21299" d="M349.494,185.563a.358.358,0,0,1,0,.678,1.3,1.3,0,0,1-1.175,0,.358.358,0,0,1,0-.678A1.3,1.3,0,0,1,349.494,185.563Z" transform="translate(-286.599 -180.103)" fill="#a7a7a7"/>
          <path id="Path_21300" data-name="Path 21300" d="M353.125,183.466a.358.358,0,0,1,0,.678,1.294,1.294,0,0,1-1.174,0,.358.358,0,0,1,0-.678A1.3,1.3,0,0,1,353.125,183.466Z" transform="translate(-287.159 -179.78)" fill="#a7a7a7"/>
          <path id="Path_21301" data-name="Path 21301" d="M312,202.337a1.3,1.3,0,0,1,1.175,0,.358.358,0,0,1,0,.678,1.3,1.3,0,0,1-1.175,0A.358.358,0,0,1,312,202.337Z" transform="translate(-280.999 -182.69)" fill="#a7a7a7"/>
          <path id="Path_21302" data-name="Path 21302" d="M316.813,200.238a.358.358,0,0,1,0,.678,1.3,1.3,0,0,1-1.174,0,.358.358,0,0,1,0-.678A1.3,1.3,0,0,1,316.813,200.238Z" transform="translate(-281.56 -182.366)" fill="#a7a7a7"/>
          <path id="Path_21303" data-name="Path 21303" d="M320.444,198.142a.358.358,0,0,1,0,.677,1.3,1.3,0,0,1-1.175,0,.357.357,0,0,1,0-.677A1.3,1.3,0,0,1,320.444,198.142Z" transform="translate(-282.12 -182.043)" fill="#a7a7a7"/>
          <path id="Path_21304" data-name="Path 21304" d="M324.075,196.045a.358.358,0,0,1,0,.678,1.3,1.3,0,0,1-1.175,0,.358.358,0,0,1,0-.678A1.3,1.3,0,0,1,324.075,196.045Z" transform="translate(-282.679 -181.72)" fill="#a7a7a7"/>
          <path id="Path_21305" data-name="Path 21305" d="M327.707,193.949a.358.358,0,0,1,0,.677,1.3,1.3,0,0,1-1.175,0,.358.358,0,0,1,0-.677A1.3,1.3,0,0,1,327.707,193.949Z" transform="translate(-283.24 -181.396)" fill="#a7a7a7"/>
          <path id="Path_21306" data-name="Path 21306" d="M331.337,191.852a.358.358,0,0,1,0,.678,1.3,1.3,0,0,1-1.175,0,.358.358,0,0,1,0-.678A1.3,1.3,0,0,1,331.337,191.852Z" transform="translate(-283.799 -181.073)" fill="#a7a7a7"/>
          <path id="Path_21307" data-name="Path 21307" d="M334.969,189.756a.358.358,0,0,1,0,.678,1.3,1.3,0,0,1-1.174,0,.358.358,0,0,1,0-.678A1.294,1.294,0,0,1,334.969,189.756Z" transform="translate(-284.359 -180.75)" fill="#a7a7a7"/>
          <path id="Path_21308" data-name="Path 21308" d="M338.6,187.659a.358.358,0,0,1,0,.678,1.3,1.3,0,0,1-1.175,0,.358.358,0,0,1,0-.678A1.3,1.3,0,0,1,338.6,187.659Z" transform="translate(-284.919 -180.426)" fill="#a7a7a7"/>
          <path id="Path_21309" data-name="Path 21309" d="M342.231,185.563a.358.358,0,0,1,0,.678,1.3,1.3,0,0,1-1.175,0,.358.358,0,0,1,0-.678A1.3,1.3,0,0,1,342.231,185.563Z" transform="translate(-285.479 -180.103)" fill="#a7a7a7"/>
          <ellipse id="Ellipse_357" data-name="Ellipse 357" cx="0.831" cy="0.48" rx="0.831" ry="0.48" transform="translate(58.405 3.546)" fill="#a7a7a7"/>
          <path id="Path_21310" data-name="Path 21310" d="M349.494,181.37a.358.358,0,0,1,0,.678,1.3,1.3,0,0,1-1.175,0,.358.358,0,0,1,0-.678A1.3,1.3,0,0,1,349.494,181.37Z" transform="translate(-286.599 -179.456)" fill="#a7a7a7"/>
          <path id="Path_21311" data-name="Path 21311" d="M353.125,179.273a.358.358,0,0,1,0,.678,1.294,1.294,0,0,1-1.174,0,.358.358,0,0,1,0-.678A1.3,1.3,0,0,1,353.125,179.273Z" transform="translate(-287.159 -179.133)" fill="#a7a7a7"/>
        </g>
      </g>
      <g id="Group_10438" data-name="Group 10438" transform="translate(1203.025 2011.756)">
        <g id="Group_10387" data-name="Group 10387" transform="translate(1.43 0)">
          <path id="Path_21677" data-name="Path 21677" d="M532.771,114.2,490.033,89.527a2.906,2.906,0,0,0-2.7-.347h0a1.961,1.961,0,0,0-.288.169l-8.3,4.843a.249.249,0,0,0,.026.444l4.127,1.8,3.1,4.274v18.364a8.918,8.918,0,0,0,4.025,7l7.9,4.56a3.491,3.491,0,0,1,1.574,2.726v5.453c0,1.234,1.281,2.6,2.038,2.167l5.9-3.345a3.192,3.192,0,0,1,3.169.322l4.2,2.425,11.593,15.963,9.406-5.459.073-.059a2.85,2.85,0,0,0,.909-2.426V121.2A8.921,8.921,0,0,0,532.771,114.2Z" transform="translate(-478.628 -88.983)" fill="#e8e8e8"/>
          <path id="Path_21679" data-name="Path 21679" d="M534.624,137.611c-1.713.681-13.627,2.851-29.064,4.982a3.535,3.535,0,0,1,1.123,2.38v5.453c0,1.234,1.281,2.6,2.038,2.167l5.9-3.345a3.192,3.192,0,0,1,3.169.322l4.2,2.425,11.593,15.963,9.406-5.459.073-.059a2.85,2.85,0,0,0,.909-2.426v-27.2c0-.2-.015-.4-.035-.606Z" transform="translate(-485.806 -100.503)" fill="#86909a"/>
        </g>
        <g id="Group_10388" data-name="Group 10388" transform="translate(0 5.149)">
          <path id="Path_21681" data-name="Path 21681" d="M480.7,96.55l42.738,24.675a8.921,8.921,0,0,1,4.025,7v27.2c0,2.58-1.8,3.631-4.025,2.348l-22.155-12.792a3.193,3.193,0,0,0-3.169-.321l-5.9,3.345c-.757.428-2.038-.934-2.038-2.167v-5.444a3.488,3.488,0,0,0-1.574-2.736l-7.9-4.56a8.918,8.918,0,0,1-4.025-7V98.9C476.679,96.318,478.48,95.267,480.7,96.55Z" transform="translate(-476.679 -96.003)" fill="#fa3535"/>
        </g>
        <g id="Group_10392" data-name="Group 10392" transform="translate(9.459 18.812)">
          <g id="Group_10389" data-name="Group 10389" transform="translate(0.65 0)">
            <path id="Path_21683" data-name="Path 21683" d="M519.518,131.212a3.709,3.709,0,0,0-1.548-2.96l-23.277-13.439a.965.965,0,0,0-1.056-.048h0l-.01.006c-.011.007-.023.012-.034.021l-3.114,1.865a.034.034,0,0,0-.01.049l2.676,3.56V131.75a3.71,3.71,0,0,0,1.549,2.96l16.44,9.491,4.319,5.746a.366.366,0,0,0,.482.094l3.186-1.922a1.508,1.508,0,0,0,.4-1.141Z" transform="translate(-490.461 -114.631)" fill="#bdc9d6"/>
            <path id="Path_21685" data-name="Path 21685" d="M517.335,138.512a.365.365,0,0,1-.481-.093l-22.7-2.641v1.515a3.709,3.709,0,0,0,1.549,2.96l16.439,9.491,4.319,5.746a.366.366,0,0,0,.482.094l3.186-1.922a1.508,1.508,0,0,0,.4-1.141V136.756c0-.054-.009-.109-.012-.164Z" transform="translate(-491.446 -120.267)" fill="#86909a"/>
          </g>
          <g id="Group_10390" data-name="Group 10390" transform="translate(0 1.985)">
            <path id="Path_21687" data-name="Path 21687" d="M514.4,150.858l-23.277-13.439a3.71,3.71,0,0,1-1.549-2.96V118.695c0-1.141.694-1.665,1.549-1.171L514.4,130.962a3.71,3.71,0,0,1,1.549,2.96v15.765C515.95,150.827,515.256,151.351,514.4,150.858Z" transform="translate(-489.575 -117.338)" fill="#fff"/>
          </g>
          <g id="Group_10391" data-name="Group 10391" transform="translate(0.293 2.079)">
            <path id="Path_21689" data-name="Path 21689" d="M501.871,132.938a2.29,2.29,0,0,0,1.973,1.1l11.5-2.213a2.67,2.67,0,0,0-.95-.895l-23.045-13.305a1.3,1.3,0,0,0-1.372.068Z" transform="translate(-489.975 -117.465)" fill="#e8e8e8"/>
          </g>
        </g>
      </g>
      <g id="Group_10439" data-name="Group 10439" transform="translate(1127.841 1936.157)">
        <g id="Group_10396" data-name="Group 10396" transform="translate(0 0)">
          <g id="Group_10394" data-name="Group 10394" transform="translate(1.303)">
            <path id="Path_21691" data-name="Path 21691" d="M378.634,81.563,330.381,53.7a3.384,3.384,0,0,0-2.928-.453h0a2.161,2.161,0,0,0-.557.324l-9.412,5.463,8.355,6.7V86.879a10.081,10.081,0,0,0,4.543,7.87L353.163,107.9l.978,1.7,3.452,21.02a.388.388,0,0,0,.579.272l7.643-4.479-.761-3.036.584,1c.855,1.465,2.3,1.6,2.3.216v-.651l4.15,4.659,9.507-5.563a2.15,2.15,0,0,0,.512-.3h0a3.389,3.389,0,0,0,1.069-2.76V89.433A10.079,10.079,0,0,0,378.634,81.563Z" transform="translate(-317.483 -53.086)" fill="#e8e8e8"/>
            <path id="Path_21693" data-name="Path 21693" d="M386.586,99.34h0a2.159,2.159,0,0,1-.512.3l-9.508,5.562-4.15-4.658v.65c0,1.386-1.447,1.25-2.3-.216l-.584-1,.762,3.035-7.644,4.479a.388.388,0,0,1-.579-.271l-21.11-12.2-.979-1.7-10.61-6.643v10.1a10.081,10.081,0,0,0,4.543,7.87L356.7,117.8l.978,1.7,3.452,21.02a.388.388,0,0,0,.579.271l7.643-4.478-.761-3.036.584,1c.855,1.465,2.3,1.6,2.3.216v-.651l4.15,4.658,9.507-5.562a2.128,2.128,0,0,0,.512-.3h0a3.386,3.386,0,0,0,1.069-2.759V99.328c0-.037,0-.076,0-.114C386.663,99.253,386.63,99.305,386.586,99.34Z" transform="translate(-321.015 -63.067)" fill="#86909a"/>
          </g>
          <g id="Group_10395" data-name="Group 10395" transform="translate(0 5.632)">
            <path id="Path_21695" data-name="Path 21695" d="M368.426,89.577,320.173,61.719c-2.509-1.449-4.544-.274-4.544,2.623V94.894a10.043,10.043,0,0,0,4.544,7.869l25.014,14.442a10.4,10.4,0,0,1,3.577,3.758L355.43,132.4c.855,1.466,2.3,1.6,2.3.216V126.5c0-1.133.8-1.593,1.777-1.025l8.918,5.148c2.509,1.449,4.543.274,4.543-2.624V97.447A10.043,10.043,0,0,0,368.426,89.577Z" transform="translate(-315.629 -61.098)" fill="#fa3535"/>
          </g>
        </g>
        <g id="Group_10400" data-name="Group 10400" transform="translate(18.678 25.411)">
          <g id="Group_10399" data-name="Group 10399">
            <g id="Group_10397" data-name="Group 10397" transform="translate(0.697)">
              <path id="Path_21697" data-name="Path 21697" d="M363.516,108.1l-14.664-17.65c-.906-1.09-1.948-1.423-2.6-1.075h0l-2.984,1.807a.139.139,0,0,0-.051.186l1.64,3.013v15.279c0,1.933,1.789,4.2,3.261,4.124l11.231-.548,1.726.983,2.964-1.792.064-.039C365.018,111.75,364.826,109.673,363.516,108.1Z" transform="translate(-343.196 -89.24)" fill="#e8e8e8"/>
            </g>
            <g id="Group_10398" data-name="Group 10398" transform="translate(0 1.864)">
              <path id="Path_21700" data-name="Path 21700" d="M342.2,93.468v18.366c0,1.932,1.789,4.2,3.261,4.124l14.664-.717c1.541-.075,1.541-2.628,0-4.482L345.465,93.109C343.993,91.338,342.2,91.535,342.2,93.468Z" transform="translate(-342.204 -91.892)" fill="#fff"/>
            </g>
          </g>
          <path id="Path_21702" data-name="Path 21702" d="M372.175,118.509l-3.068,1.859.172,1.926.269.148,2.421-1.425.4-1.269Z" transform="translate(-350.198 -97.937)" fill="#86909a"/>
        </g>
      </g>
      <g id="Group_10440" data-name="Group 10440" transform="translate(1146.519 2075.437)">
        <g id="Group_10408" data-name="Group 10408" transform="translate(0 0)">
          <g id="Group_10407" data-name="Group 10407">
            <g id="Group_10402" data-name="Group 10402" transform="translate(0 2.325)">
              <path id="Path_21703" data-name="Path 21703" d="M435.979,249.767l.005-.013c1.224-2.488-.005-3.859-.005-3.859l-2.106.653-20.666-11.931a8.127,8.127,0,0,0-7.312.3l-46.2,26.674c-1.339-.863-2.588-1.16-3.353-.137-2.358,3.154,0,5.158,0,5.16a3.245,3.245,0,0,0,.63.468l21.689,12.522a8.129,8.129,0,0,0,7.313-.3l48.4-27.944a3.772,3.772,0,0,0,1.608-1.594Z" transform="translate(-355.029 -233.623)" fill="#fff"/>
              <path id="Path_21704" data-name="Path 21704" d="M381.809,280.575a6.752,6.752,0,0,1-3.309-.761l-21.689-12.522a3.524,3.524,0,0,1-.682-.507c-.014-.011-2.506-2.2-.029-5.514.523-.7,1.564-1.257,3.574-.015l46.061-26.594a8.432,8.432,0,0,1,7.581-.3l20.565,11.873,2.158-.668.114.128c.056.061,1.336,1.535.047,4.155l-.246-.1.244.111a4.05,4.05,0,0,1-1.718,1.714l-48.4,27.944A8.777,8.777,0,0,1,381.809,280.575Zm-24.232-19.528a1.21,1.21,0,0,0-1.048.544c-2.174,2.907-.129,4.721-.04,4.8a3.026,3.026,0,0,0,.59.44l21.689,12.523a7.852,7.852,0,0,0,7.045-.3l48.4-27.944a3.514,3.514,0,0,0,1.5-1.473h0l0,0c.932-1.9.384-3.066.14-3.445l-2.036.631-20.767-11.99a7.845,7.845,0,0,0-7.046.3L359.66,261.881l-.137-.089A3.768,3.768,0,0,0,357.577,261.047Z" transform="translate(-355.004 -233.598)" fill="#140f0c"/>
            </g>
            <g id="Group_10405" data-name="Group 10405" transform="translate(0.408)">
              <g id="Group_10403" data-name="Group 10403">
                <path id="Path_21705" data-name="Path 21705" d="M378.7,277.06l-21.689-12.523c-1.875-1.082-1.639-2.972.525-4.222l48.4-27.944a8.13,8.13,0,0,1,7.312-.3l21.689,12.523c1.875,1.082,1.639,2.972-.525,4.222l-48.4,27.943A8.129,8.129,0,0,1,378.7,277.06Z" transform="translate(-355.477 -231.076)" fill="#fa3535"/>
                <path id="Path_21706" data-name="Path 21706" d="M378.672,278.068l-21.689-12.522c-1.875-1.082-1.639-2.973.525-4.223l48.4-27.943a8.129,8.129,0,0,1,7.313-.3L434.909,245.6c1.875,1.082,1.639,2.972-.525,4.222l-48.4,27.944A8.132,8.132,0,0,1,378.672,278.068Z" transform="translate(-355.474 -231.164)" fill="#fa3535"/>
                <path id="Path_21707" data-name="Path 21707" d="M381.848,278.027a6.742,6.742,0,0,1-3.308-.761L356.85,264.743a2.436,2.436,0,0,1-1.4-2.065,3.278,3.278,0,0,1,1.924-2.62l48.4-27.944a8.438,8.438,0,0,1,7.581-.3l21.688,12.522a2.44,2.44,0,0,1,1.4,2.066,3.28,3.28,0,0,1-1.924,2.62l-48.4,27.943A8.775,8.775,0,0,1,381.848,278.027Zm28.2-46.449a8.239,8.239,0,0,0-4,1l-48.4,27.944a2.78,2.78,0,0,0-1.657,2.157,1.93,1.93,0,0,0,1.132,1.6L378.806,276.8a7.846,7.846,0,0,0,7.045-.3l48.4-27.943a2.78,2.78,0,0,0,1.657-2.157,1.934,1.934,0,0,0-1.132-1.6l-21.688-12.522A6.207,6.207,0,0,0,410.046,231.578Z" transform="translate(-355.451 -231.051)" fill="#140f0c"/>
              </g>
            </g>
            <g id="Group_10406" data-name="Group 10406" transform="translate(11.485 39.768)">
              <path id="Path_21710" data-name="Path 21710" d="M370.492,277.17l-2.511-1.45a.942.942,0,0,1-.393-.752h0c0-.289.176-.423.393-.3l2.511,1.45a.94.94,0,0,1,.394.752h0C370.886,277.162,370.71,277.3,370.492,277.17Z" transform="translate(-367.588 -274.624)" fill="#140f0c"/>
            </g>
          </g>
          <path id="Path_21711" data-name="Path 21711" d="M438.636,247.868l-.536,1.445-1.522.944-48.166,27.5-1.485,1.283c-1.992,3.248-6.361,1.615-6.361,1.615l1.436.639,1.967.2.863-.078-.261.141,1.651-.266,2.3-.9,47.291-27.455,1.813-1.154,1.015-2.054.063-1.354Z" transform="translate(-357.236 -232.519)" fill="#bdc9d6"/>
        </g>
        <g id="Group_10411" data-name="Group 10411" transform="translate(16.076 9.599)">
          <g id="Group_10409" data-name="Group 10409" transform="translate(1.414)">
            <path id="Path_21712" data-name="Path 21712" d="M375.7,268.217a4.963,4.963,0,0,1-1.218-.881,1.2,1.2,0,0,1-.308-.566c-.033-.325.2-.635.7-.929a2.864,2.864,0,0,1,2.31-.251,7.471,7.471,0,0,1,1.605.722l.91.526-.947.547-.914-.528a6.487,6.487,0,0,0-1.153-.565,1.634,1.634,0,0,0-.576-.093.945.945,0,0,0-.4.125q-.387.223-.168.52a3.586,3.586,0,0,0,1.008.751l3.556,2.053a6.789,6.789,0,0,0,1.437.676,1.119,1.119,0,0,0,.885-.081q.379-.22.135-.509a5.113,5.113,0,0,0-1.178-.829l-.91-.526.956-.552.9.52a3.8,3.8,0,0,1,1.55,1.3q.257.556-.62,1.061a2.839,2.839,0,0,1-1.879.361,6.586,6.586,0,0,1-2.264-.877Z" transform="translate(-374.167 -243.654)" fill="#fff"/>
            <path id="Path_21713" data-name="Path 21713" d="M380.245,265.423q-1.4-.808-1.417-1.4-.015-.465.741-.9a2.882,2.882,0,0,1,2.315-.29,7.263,7.263,0,0,1,1.61.719l3.621,2.09a3.532,3.532,0,0,1,1.51,1.287q.226.545-.671,1.064a2.871,2.871,0,0,1-1.853.391,6.35,6.35,0,0,1-2.234-.867Zm2.227-1.35a5.477,5.477,0,0,0-1.245-.572,1.076,1.076,0,0,0-.837.1q-.382.22-.2.5a3.092,3.092,0,0,0,.957.725l3.69,2.131a6.381,6.381,0,0,0,1.407.662,1.116,1.116,0,0,0,.866-.109q.4-.229.183-.5a4.563,4.563,0,0,0-1.141-.81Z" transform="translate(-374.574 -243.414)" fill="#fff"/>
            <path id="Path_21714" data-name="Path 21714" d="M385.4,259.777l.853-.493,8.213,4.741-.709.409-7.479-2.19,2.127,1.164,3.565,2.058-.891.515-8.213-4.741.727-.421,7.494,2.128-2.472-1.314Z" transform="translate(-374.926 -243.115)" fill="#fff"/>
            <path id="Path_21715" data-name="Path 21715" d="M390.448,256.843l.909-.525,6.967,5.46-1.125.65-9.58-3.952.92-.531,4.023,1.692,3.521,1.495.019-.011-2.65-2Z" transform="translate(-375.341 -242.856)" fill="#fff"/>
            <path id="Path_21716" data-name="Path 21716" d="M392.758,255.579l2.455-1.416.8.464-1.49.859,2.809,1.622,1.409-.814.8.464-1.409.814,3,1.729,1.506-.87.8.464-2.473,1.427Z" transform="translate(-375.79 -242.668)" fill="#fff"/>
            <path id="Path_21717" data-name="Path 21717" d="M396.7,253.3l1.722-.994a2.858,2.858,0,0,1,1.358-.434,3.2,3.2,0,0,1,1.419.372c.217.1.538.278.958.521a3.034,3.034,0,0,1,.9.709.459.459,0,0,1-.029.658,1.466,1.466,0,0,1,.791-.082,4.309,4.309,0,0,1,1.091.371q.66.307,1.835.984a9.378,9.378,0,0,0,1.444.747l-.962.555a30.683,30.683,0,0,1-2.841-1.554,2.883,2.883,0,0,0-1.2-.491,1.518,1.518,0,0,0-.665.219l-.606.313,3.966,2.289-.966.559Zm4.248-.13a3.229,3.229,0,0,0-1.267-.534,1.376,1.376,0,0,0-.643.2l-.606.35,2.772,1.6.615-.356c.187-.108.287-.207.3-.3s-.06-.207-.225-.345a6.9,6.9,0,0,0-.9-.582Z" transform="translate(-376.134 -242.468)" fill="#fff"/>
            <path id="Path_21718" data-name="Path 21718" d="M404.073,252.028a4.055,4.055,0,0,1-.788-.358,2.389,2.389,0,0,1-1.088-1.008q-.2-.493.733-1.029a2.807,2.807,0,0,1,2.556-.152,10.209,10.209,0,0,1,1.34.665l.485.28-.924.534-.55-.319a6.87,6.87,0,0,0-1.134-.563,1.569,1.569,0,0,0-.556-.094.921.921,0,0,0-.392.124q-.35.2-.247.439a1.412,1.412,0,0,0,.607.528,2.549,2.549,0,0,0,.877.344,5.841,5.841,0,0,0,.791.058c.277,0,.434,0,.467.006l1.153.019a6.869,6.869,0,0,1,3.37.781,3.07,3.07,0,0,1,1.3,1.129q.234.513-.69,1.048a2.9,2.9,0,0,1-2.394.25,7.819,7.819,0,0,1-1.614-.733l-.047-.026-.8-.461.938-.541.835.482a6.389,6.389,0,0,0,1.385.649,1.07,1.07,0,0,0,.837-.078c.235-.137.343-.262.324-.378s-.138-.244-.35-.382-.462-.291-.746-.454a4.725,4.725,0,0,0-2.356-.493h-1.073A7.786,7.786,0,0,1,404.073,252.028Z" transform="translate(-376.611 -242.238)" fill="#fff"/>
            <path id="Path_21719" data-name="Path 21719" d="M406.111,247.953l.967-.558,8.212,4.741-.966.558Z" transform="translate(-376.956 -242.077)" fill="#fff"/>
            <path id="Path_21720" data-name="Path 21720" d="M410.93,247.707q-1.4-.808-1.419-1.4-.014-.467.742-.9a2.878,2.878,0,0,1,2.315-.291,7.247,7.247,0,0,1,1.609.719l3.621,2.09a3.527,3.527,0,0,1,1.51,1.287q.229.546-.671,1.064a2.857,2.857,0,0,1-1.852.391,6.324,6.324,0,0,1-2.233-.866Zm2.226-1.349a5.469,5.469,0,0,0-1.244-.572,1.078,1.078,0,0,0-.838.1q-.382.22-.2.5a3.094,3.094,0,0,0,.957.725l3.69,2.131a6.467,6.467,0,0,0,1.407.662,1.118,1.118,0,0,0,.865-.109c.266-.152.326-.319.184-.5a4.586,4.586,0,0,0-1.14-.81Z" transform="translate(-377.253 -241.867)" fill="#fff"/>
            <path id="Path_21721" data-name="Path 21721" d="M416.084,242.062l.854-.494,8.213,4.741-.71.41-7.479-2.19,2.128,1.164,3.564,2.058-.892.515-8.212-4.741.728-.42,7.493,2.128-2.472-1.315Z" transform="translate(-377.606 -241.568)" fill="#fff"/>
          </g>
          <g id="Group_10410" data-name="Group 10410" transform="translate(0 0.001)">
            <path id="Path_21722" data-name="Path 21722" d="M374.147,268.218a4.932,4.932,0,0,1-1.217-.881,1.2,1.2,0,0,1-.309-.566q-.049-.487.706-.929a2.862,2.862,0,0,1,2.309-.251,7.453,7.453,0,0,1,1.605.722l.91.526-.947.547-.914-.529a6.427,6.427,0,0,0-1.153-.565,1.635,1.635,0,0,0-.576-.094.938.938,0,0,0-.4.126q-.389.223-.168.52A3.558,3.558,0,0,0,375,267.6l3.556,2.053a6.79,6.79,0,0,0,1.437.676,1.121,1.121,0,0,0,.884-.082c.253-.147.3-.317.136-.509a5.138,5.138,0,0,0-1.178-.828l-.911-.526.956-.552.9.52a3.816,3.816,0,0,1,1.55,1.3c.172.371-.036.724-.621,1.061a2.835,2.835,0,0,1-1.878.36,6.584,6.584,0,0,1-2.265-.876Z" transform="translate(-372.618 -243.655)"/>
            <path id="Path_21723" data-name="Path 21723" d="M378.7,265.424q-1.4-.808-1.417-1.4-.015-.465.742-.9a2.879,2.879,0,0,1,2.314-.29,7.241,7.241,0,0,1,1.61.719l3.621,2.09a3.521,3.521,0,0,1,1.51,1.286q.226.545-.671,1.064a2.869,2.869,0,0,1-1.853.391,6.351,6.351,0,0,1-2.234-.866Zm2.227-1.35a5.461,5.461,0,0,0-1.244-.573,1.075,1.075,0,0,0-.837.1q-.383.22-.2.5a3.091,3.091,0,0,0,.957.725l3.691,2.131a6.347,6.347,0,0,0,1.407.661,1.114,1.114,0,0,0,.865-.109q.4-.229.184-.5a4.6,4.6,0,0,0-1.142-.809Z" transform="translate(-373.025 -243.415)"/>
            <path id="Path_21724" data-name="Path 21724" d="M383.851,259.778l.854-.493,8.212,4.741-.709.409-7.479-2.19,2.127,1.164,3.565,2.058-.891.514-8.212-4.74.727-.421,7.493,2.128-2.472-1.314Z" transform="translate(-373.377 -243.116)"/>
            <path id="Path_21725" data-name="Path 21725" d="M388.9,256.844l.91-.526,6.967,5.461-1.124.65-9.58-3.952.919-.531,4.023,1.692,3.522,1.495.018-.011-2.649-2Z" transform="translate(-373.792 -242.857)"/>
            <path id="Path_21726" data-name="Path 21726" d="M391.209,255.58l2.455-1.416.8.464-1.489.859,2.808,1.622,1.409-.814.8.464-1.408.814,3,1.729,1.507-.87.8.464-2.472,1.427Z" transform="translate(-374.241 -242.669)"/>
            <path id="Path_21727" data-name="Path 21727" d="M395.151,253.3l1.722-.994a2.851,2.851,0,0,1,1.357-.434,3.193,3.193,0,0,1,1.419.372q.326.156.959.52a3.046,3.046,0,0,1,.9.709.459.459,0,0,1-.03.659,1.465,1.465,0,0,1,.791-.083,4.3,4.3,0,0,1,1.091.371q.66.307,1.835.984a9.471,9.471,0,0,0,1.444.748l-.961.555a30.419,30.419,0,0,1-2.841-1.554,2.877,2.877,0,0,0-1.2-.492,1.52,1.52,0,0,0-.665.22l-.606.313,3.967,2.289-.967.558Zm4.248-.13a3.237,3.237,0,0,0-1.268-.535,1.372,1.372,0,0,0-.642.2l-.606.35,2.771,1.6.616-.356q.279-.162.3-.3c.016-.092-.06-.207-.225-.345a6.879,6.879,0,0,0-.894-.582Z" transform="translate(-374.585 -242.469)"/>
            <path id="Path_21728" data-name="Path 21728" d="M402.524,252.029a4.053,4.053,0,0,1-.788-.358,2.386,2.386,0,0,1-1.087-1.008q-.2-.493.732-1.029a2.809,2.809,0,0,1,2.557-.151,10.267,10.267,0,0,1,1.339.665l.486.28-.925.534-.55-.319a6.864,6.864,0,0,0-1.133-.563,1.572,1.572,0,0,0-.556-.094.913.913,0,0,0-.392.124q-.35.2-.248.439a1.418,1.418,0,0,0,.607.528,2.557,2.557,0,0,0,.877.344,5.856,5.856,0,0,0,.791.057c.277,0,.434.005.468.007l1.152.019a6.87,6.87,0,0,1,3.37.781,3.064,3.064,0,0,1,1.3,1.129q.234.513-.689,1.048a2.9,2.9,0,0,1-2.394.25,7.774,7.774,0,0,1-1.614-.733l-.047-.026-.8-.461.937-.541.835.482a6.4,6.4,0,0,0,1.385.648,1.074,1.074,0,0,0,.837-.077q.355-.205.324-.379t-.35-.382c-.214-.14-.461-.29-.745-.454a4.731,4.731,0,0,0-2.357-.493h-1.073A7.785,7.785,0,0,1,402.524,252.029Z" transform="translate(-375.062 -242.239)"/>
            <path id="Path_21729" data-name="Path 21729" d="M404.562,247.954l.967-.558,8.213,4.741-.967.558Z" transform="translate(-375.407 -242.078)"/>
            <path id="Path_21730" data-name="Path 21730" d="M409.381,247.708q-1.4-.808-1.418-1.4-.014-.467.741-.9a2.88,2.88,0,0,1,2.315-.291,7.266,7.266,0,0,1,1.609.719l3.621,2.09a3.539,3.539,0,0,1,1.51,1.286q.227.546-.671,1.064a2.859,2.859,0,0,1-1.853.391A6.325,6.325,0,0,1,413,249.8Zm2.226-1.349a5.476,5.476,0,0,0-1.243-.573,1.077,1.077,0,0,0-.838.1c-.256.147-.32.314-.2.5a3.106,3.106,0,0,0,.957.725l3.691,2.131a6.433,6.433,0,0,0,1.406.661,1.119,1.119,0,0,0,.866-.109c.265-.152.325-.32.183-.5a4.57,4.57,0,0,0-1.14-.81Z" transform="translate(-375.704 -241.868)"/>
            <path id="Path_21731" data-name="Path 21731" d="M414.535,242.063l.855-.494,8.212,4.741-.709.41-7.48-2.19,2.128,1.164,3.565,2.058-.892.515L412,243.525l.728-.42,7.494,2.128-2.472-1.315Z" transform="translate(-376.057 -241.569)"/>
          </g>
        </g>
      </g>
      <g id="Group_10441" data-name="Group 10441" transform="translate(1064.599 2076.687)">
        <g id="Group_10434" data-name="Group 10434" transform="translate(1.821 0)">
          <path id="Path_21745" data-name="Path 21745" d="M318.667,256.621l-29.649,17.118L259.37,256.621,289.019,239.5Z" transform="translate(-259.157 -238.247)" fill="#86909a"/>
          <path id="Path_21746" data-name="Path 21746" d="M259.37,259.742V266.7l29.649,17.118v-6.954Z" transform="translate(-259.157 -241.368)" fill="#bdc9d6"/>
          <g id="Group_10422" data-name="Group 10422" transform="translate(29.861 18.374)">
            <path id="Path_21747" data-name="Path 21747" d="M324.073,259.741V266.7l-29.649,17.118v-6.954Z" transform="translate(-294.424 -259.741)" fill="#86909a"/>
          </g>
          <g id="Group_10423" data-name="Group 10423" transform="translate(1.855 1.256)">
            <path id="Path_21749" data-name="Path 21749" d="M289.318,239.5l-18.681,10.786h0a8.659,8.659,0,0,1-9.289-.266c-.546,5.454,5.119,10.1,7.488,11.792a6.844,6.844,0,0,0,.862.6l19.62,11.328,29.649-17.117Z" transform="translate(-261.311 -239.503)" fill="#bdc9d6"/>
          </g>
          <g id="Group_10424" data-name="Group 10424" transform="translate(29.961)">
            <path id="Path_21752" data-name="Path 21752" d="M297.542,245.849a4.145,4.145,0,0,1-2.034-.493,1.527,1.527,0,0,1,0-2.84l6.685-3.859a5.728,5.728,0,0,1,5.257,0,1.888,1.888,0,0,1,0,3.528l-4.268,2.464-.427-.738,4.268-2.464a1.061,1.061,0,0,0,0-2.051,4.954,4.954,0,0,0-4.4,0l-6.685,3.859c-.343.2-.54.447-.54.681s.2.483.54.683a3.619,3.619,0,0,0,3.213,0l5.99-3.458.426.738-5.99,3.458A4.139,4.139,0,0,1,297.542,245.849Z" transform="translate(-294.542 -238.018)" fill="#fa3535"/>
          </g>
          <g id="Group_10425" data-name="Group 10425" transform="translate(0.003 20.689)">
            <path id="Path_21753" data-name="Path 21753" d="M288.77,279.678l-29.648-16.727.42-.473,29.648,16.727Z" transform="translate(-259.121 -262.478)" fill="#fa3535"/>
          </g>
          <g id="Group_10426" data-name="Group 10426" transform="translate(0 23.089)">
            <path id="Path_21754" data-name="Path 21754" d="M288.767,282.827l-29.648-17.041.425-.47,29.649,17.041Z" transform="translate(-259.118 -265.316)" fill="#fa3535"/>
          </g>
          <g id="Group_10427" data-name="Group 10427" transform="translate(30.072 20.651)">
            <path id="Path_21755" data-name="Path 21755" d="M294.673,279.907v-.749L323.9,262.433l-.031.747Z" transform="translate(-294.673 -262.433)" fill="#fa3535"/>
          </g>
          <g id="Group_10428" data-name="Group 10428" transform="translate(30.072 22.926)">
            <path id="Path_21756" data-name="Path 21756" d="M294.673,282.6v-.749L323.9,265.123l-.031.747Z" transform="translate(-294.673 -265.123)" fill="#fa3535"/>
          </g>
          <g id="Group_10433" data-name="Group 10433" transform="translate(17.106 10.77)">
            <g id="Group_10431" data-name="Group 10431">
              <path id="Path_21759" data-name="Path 21759" d="M292.1,265.821a18.251,18.251,0,0,1-8.931-2.132c-2.466-1.423-3.825-3.342-3.825-5.4s1.358-3.978,3.825-5.4c4.923-2.844,12.937-2.844,17.862,0,2.466,1.423,3.824,3.342,3.824,5.4s-1.358,3.979-3.824,5.4A18.27,18.27,0,0,1,292.1,265.821Zm0-14.228a17.4,17.4,0,0,0-8.5,2.03c-2.191,1.264-3.4,2.921-3.4,4.663s1.207,3.4,3.4,4.665c4.69,2.707,12.319,2.707,17.009,0,2.191-1.265,3.4-2.921,3.4-4.665s-1.207-3.4-3.4-4.663h0A17.4,17.4,0,0,0,292.1,251.593Z" transform="translate(-279.343 -250.751)" fill="#fff"/>
            </g>
            <g id="Group_10432" data-name="Group 10432" transform="translate(9.75 2.18)">
              <path id="Path_21760" data-name="Path 21760" d="M293.645,259.17l-2.774-5.455.76-.387,2.476,4.868,5.394-1.168.18.833Z" transform="translate(-290.871 -253.328)" fill="#fff"/>
            </g>
          </g>
        </g>
        <g id="Group_10435" data-name="Group 10435" transform="translate(0 27.408)">
          <path id="Path_21761" data-name="Path 21761" d="M287.464,291.836a.358.358,0,0,1,0,.678,1.3,1.3,0,0,1-1.175,0,.358.358,0,0,1,0-.678A1.3,1.3,0,0,1,287.464,291.836Z" transform="translate(-261.45 -273.703)" fill="#a7a7a7"/>
          <ellipse id="Ellipse_386" data-name="Ellipse 386" cx="0.831" cy="0.48" rx="0.831" ry="0.48" transform="translate(21.525 16.22)" fill="#a7a7a7"/>
          <path id="Path_21762" data-name="Path 21762" d="M280.2,287.643a.358.358,0,0,1,0,.678,1.3,1.3,0,0,1-1.175,0,.358.358,0,0,1,0-.678A1.3,1.3,0,0,1,280.2,287.643Z" transform="translate(-260.33 -273.056)" fill="#a7a7a7"/>
          <path id="Path_21763" data-name="Path 21763" d="M276.571,285.547a.357.357,0,0,1,0,.677,1.3,1.3,0,0,1-1.175,0,.358.358,0,0,1,0-.677A1.3,1.3,0,0,1,276.571,285.547Z" transform="translate(-259.77 -272.733)" fill="#a7a7a7"/>
          <ellipse id="Ellipse_387" data-name="Ellipse 387" cx="0.831" cy="0.48" rx="0.831" ry="0.48" transform="translate(12.312 10.9)" fill="#a7a7a7"/>
          <path id="Path_21764" data-name="Path 21764" d="M269.277,281.332a.357.357,0,0,1,0,.677,1.294,1.294,0,0,1-1.174,0,.357.357,0,0,1,0-.677A1.294,1.294,0,0,1,269.277,281.332Z" transform="translate(-258.645 -272.083)" fill="#a7a7a7"/>
          <ellipse id="Ellipse_388" data-name="Ellipse 388" cx="0.831" cy="0.48" rx="0.831" ry="0.48" transform="translate(6.143 7.335)" fill="#a7a7a7"/>
          <path id="Path_21765" data-name="Path 21765" d="M262.015,277.139a.357.357,0,0,1,0,.677,1.3,1.3,0,0,1-1.175,0,.358.358,0,0,1,0-.677A1.3,1.3,0,0,1,262.015,277.139Z" transform="translate(-257.525 -271.436)" fill="#a7a7a7"/>
          <ellipse id="Ellipse_389" data-name="Ellipse 389" cx="0.831" cy="0.48" rx="0.831" ry="0.48" transform="translate(0 3.789)" fill="#a7a7a7"/>
          <path id="Path_21766" data-name="Path 21766" d="M291.238,293.6a.358.358,0,0,1,0,.678,1.3,1.3,0,0,1-1.175,0,.358.358,0,0,1,0-.678A1.3,1.3,0,0,1,291.238,293.6Z" transform="translate(-262.032 -273.974)" fill="#a7a7a7"/>
          <ellipse id="Ellipse_390" data-name="Ellipse 390" cx="0.831" cy="0.48" rx="0.831" ry="0.48" transform="translate(27.677 16.243)" fill="#a7a7a7"/>
          <path id="Path_21767" data-name="Path 21767" d="M286.3,287.673a1.3,1.3,0,0,1,1.174,0,.358.358,0,0,1,0,.678,1.3,1.3,0,0,1-1.175,0A.358.358,0,0,1,286.3,287.673Z" transform="translate(-261.451 -273.061)" fill="#a7a7a7"/>
          <path id="Path_21768" data-name="Path 21768" d="M282.665,285.576a1.3,1.3,0,0,1,1.175,0,.358.358,0,0,1,0,.678,1.3,1.3,0,0,1-1.175,0A.358.358,0,0,1,282.665,285.576Z" transform="translate(-260.891 -272.738)" fill="#a7a7a7"/>
          <path id="Path_21769" data-name="Path 21769" d="M279.034,283.48a1.3,1.3,0,0,1,1.175,0,.358.358,0,0,1,0,.678,1.3,1.3,0,0,1-1.175,0A.358.358,0,0,1,279.034,283.48Z" transform="translate(-260.331 -272.414)" fill="#a7a7a7"/>
          <path id="Path_21770" data-name="Path 21770" d="M275.4,281.383a1.3,1.3,0,0,1,1.175,0,.358.358,0,0,1,0,.678,1.3,1.3,0,0,1-1.174,0A.358.358,0,0,1,275.4,281.383Z" transform="translate(-259.771 -272.091)" fill="#a7a7a7"/>
          <path id="Path_21771" data-name="Path 21771" d="M271.74,279.265a1.3,1.3,0,0,1,1.175,0,.358.358,0,0,1,0,.678,1.3,1.3,0,0,1-1.175,0A.358.358,0,0,1,271.74,279.265Z" transform="translate(-259.206 -271.764)" fill="#a7a7a7"/>
          <path id="Path_21772" data-name="Path 21772" d="M268.109,277.168a1.3,1.3,0,0,1,1.175,0,.358.358,0,0,1,0,.678,1.3,1.3,0,0,1-1.175,0A.358.358,0,0,1,268.109,277.168Z" transform="translate(-258.646 -271.441)" fill="#a7a7a7"/>
          <path id="Path_21773" data-name="Path 21773" d="M264.478,275.072a1.3,1.3,0,0,1,1.175,0,.358.358,0,0,1,0,.678,1.3,1.3,0,0,1-1.174,0A.358.358,0,0,1,264.478,275.072Z" transform="translate(-258.087 -271.118)" fill="#a7a7a7"/>
          <path id="Path_21774" data-name="Path 21774" d="M260.847,272.976a1.3,1.3,0,0,1,1.175,0,.358.358,0,0,1,0,.678,1.3,1.3,0,0,1-1.175,0A.357.357,0,0,1,260.847,272.976Z" transform="translate(-257.527 -270.794)" fill="#a7a7a7"/>
          <path id="Path_21775" data-name="Path 21775" d="M257.216,270.879a1.3,1.3,0,0,1,1.174,0,.357.357,0,0,1,0,.677,1.3,1.3,0,0,1-1.175,0A.358.358,0,0,1,257.216,270.879Z" transform="translate(-256.967 -270.471)" fill="#a7a7a7"/>
          <path id="Path_21776" data-name="Path 21776" d="M297.332,293.627a1.3,1.3,0,0,1,1.175,0,.358.358,0,0,1,0,.678,1.3,1.3,0,0,1-1.175,0A.358.358,0,0,1,297.332,293.627Z" transform="translate(-263.153 -273.979)" fill="#a7a7a7"/>
          <path id="Path_21777" data-name="Path 21777" d="M302.143,291.527a.358.358,0,0,1,0,.678,1.3,1.3,0,0,1-1.175,0,.358.358,0,0,1,0-.678A1.3,1.3,0,0,1,302.143,291.527Z" transform="translate(-263.713 -273.655)" fill="#a7a7a7"/>
          <path id="Path_21778" data-name="Path 21778" d="M305.774,289.431a.358.358,0,0,1,0,.678,1.3,1.3,0,0,1-1.175,0,.358.358,0,0,1,0-.678A1.3,1.3,0,0,1,305.774,289.431Z" transform="translate(-264.273 -273.332)" fill="#a7a7a7"/>
          <path id="Path_21779" data-name="Path 21779" d="M309.4,287.335a.357.357,0,0,1,0,.677,1.293,1.293,0,0,1-1.174,0,.357.357,0,0,1,0-.677A1.294,1.294,0,0,1,309.4,287.335Z" transform="translate(-264.833 -273.009)" fill="#a7a7a7"/>
          <ellipse id="Ellipse_391" data-name="Ellipse 391" cx="0.831" cy="0.48" rx="0.831" ry="0.48" transform="translate(46.225 12.412)" fill="#a7a7a7"/>
          <path id="Path_21780" data-name="Path 21780" d="M316.667,283.142a.358.358,0,0,1,0,.678,1.3,1.3,0,0,1-1.175,0,.358.358,0,0,1,0-.678A1.3,1.3,0,0,1,316.667,283.142Z" transform="translate(-265.953 -272.362)" fill="#a7a7a7"/>
          <path id="Path_21781" data-name="Path 21781" d="M320.3,281.045a.358.358,0,0,1,0,.678,1.3,1.3,0,0,1-1.175,0,.358.358,0,0,1,0-.678A1.3,1.3,0,0,1,320.3,281.045Z" transform="translate(-266.513 -272.039)" fill="#a7a7a7"/>
          <path id="Path_21782" data-name="Path 21782" d="M323.93,278.949a.357.357,0,0,1,0,.677,1.3,1.3,0,0,1-1.175,0,.358.358,0,0,1,0-.677A1.3,1.3,0,0,1,323.93,278.949Z" transform="translate(-267.073 -271.716)" fill="#a7a7a7"/>
          <path id="Path_21783" data-name="Path 21783" d="M327.561,276.852a.358.358,0,0,1,0,.678,1.3,1.3,0,0,1-1.175,0,.358.358,0,0,1,0-.678A1.3,1.3,0,0,1,327.561,276.852Z" transform="translate(-267.633 -271.392)" fill="#a7a7a7"/>
          <path id="Path_21784" data-name="Path 21784" d="M331.192,274.756a.358.358,0,0,1,0,.678,1.3,1.3,0,0,1-1.175,0,.358.358,0,0,1,0-.678A1.3,1.3,0,0,1,331.192,274.756Z" transform="translate(-268.193 -271.069)" fill="#a7a7a7"/>
          <path id="Path_21785" data-name="Path 21785" d="M293.7,291.53a1.3,1.3,0,0,1,1.175,0,.358.358,0,0,1,0,.677,1.3,1.3,0,0,1-1.175,0A.358.358,0,0,1,293.7,291.53Z" transform="translate(-262.593 -273.656)" fill="#a7a7a7"/>
          <path id="Path_21786" data-name="Path 21786" d="M298.512,289.431a.358.358,0,0,1,0,.678,1.3,1.3,0,0,1-1.175,0,.358.358,0,0,1,0-.678A1.3,1.3,0,0,1,298.512,289.431Z" transform="translate(-263.153 -273.332)" fill="#a7a7a7"/>
          <path id="Path_21787" data-name="Path 21787" d="M302.143,287.335a.357.357,0,0,1,0,.677,1.3,1.3,0,0,1-1.175,0,.358.358,0,0,1,0-.677A1.3,1.3,0,0,1,302.143,287.335Z" transform="translate(-263.713 -273.009)" fill="#a7a7a7"/>
          <path id="Path_21788" data-name="Path 21788" d="M305.774,285.238a.358.358,0,0,1,0,.678,1.3,1.3,0,0,1-1.175,0,.358.358,0,0,1,0-.678A1.3,1.3,0,0,1,305.774,285.238Z" transform="translate(-264.273 -272.685)" fill="#a7a7a7"/>
          <path id="Path_21789" data-name="Path 21789" d="M309.4,283.142a.358.358,0,0,1,0,.678,1.3,1.3,0,0,1-1.174,0,.358.358,0,0,1,0-.678A1.294,1.294,0,0,1,309.4,283.142Z" transform="translate(-264.833 -272.362)" fill="#a7a7a7"/>
          <path id="Path_21790" data-name="Path 21790" d="M313.036,281.045a.358.358,0,0,1,0,.678,1.3,1.3,0,0,1-1.175,0,.358.358,0,0,1,0-.678A1.3,1.3,0,0,1,313.036,281.045Z" transform="translate(-265.393 -272.039)" fill="#a7a7a7"/>
          <path id="Path_21791" data-name="Path 21791" d="M316.667,278.949a.358.358,0,0,1,0,.678,1.3,1.3,0,0,1-1.175,0,.358.358,0,0,1,0-.678A1.3,1.3,0,0,1,316.667,278.949Z" transform="translate(-265.953 -271.716)" fill="#a7a7a7"/>
          <ellipse id="Ellipse_392" data-name="Ellipse 392" cx="0.831" cy="0.479" rx="0.831" ry="0.479" transform="translate(52.368 5.32)" fill="#a7a7a7"/>
          <path id="Path_21792" data-name="Path 21792" d="M323.93,274.756a.358.358,0,0,1,0,.678,1.3,1.3,0,0,1-1.175,0,.358.358,0,0,1,0-.678A1.3,1.3,0,0,1,323.93,274.756Z" transform="translate(-267.073 -271.069)" fill="#a7a7a7"/>
          <path id="Path_21793" data-name="Path 21793" d="M327.561,272.659a.358.358,0,0,1,0,.678,1.3,1.3,0,0,1-1.175,0,.358.358,0,0,1,0-.678A1.3,1.3,0,0,1,327.561,272.659Z" transform="translate(-267.633 -270.746)" fill="#a7a7a7"/>
          <path id="Path_21794" data-name="Path 21794" d="M331.192,270.563a.358.358,0,0,1,0,.678,1.3,1.3,0,0,1-1.175,0,.358.358,0,0,1,0-.678A1.3,1.3,0,0,1,331.192,270.563Z" transform="translate(-268.193 -270.422)" fill="#a7a7a7"/>
        </g>
      </g>
      <g id="Group_10442" data-name="Group 10442" transform="translate(1121.076 2016.938)">
        <g id="Group_10415" data-name="Group 10415" transform="translate(0 31.003)">
          <g id="Group_10413" data-name="Group 10413">
            <path id="Path_21732" data-name="Path 21732" d="M430.839,173.77l-16.974.743s9.42,9.945,8.037,17.49,2.647,13.209,5.614,14.982l14.726-4.036s-4.654-4.316-4.41-10.644S435.309,179.566,430.839,173.77Z" transform="translate(-412.804 -173.285)" fill="#bdc9d6"/>
            <path id="Path_21734" data-name="Path 21734" d="M426.878,207.153c-2.991-2.016-6.9-7.678-5.506-15.265,1.323-7.219-7.823-16.98-7.916-17.077l-.716-.755,18.26-.8.151.194c4.871,6.316,7.323,12.832,7.091,18.844s4.215,10.237,4.259,10.277l.624.582-15.743,4.315-.174-.1C427.1,207.3,426.989,207.228,426.878,207.153Zm-12.049-32.239c2.183,2.5,8.678,10.585,7.477,17.144-1.329,7.25,2.417,12.571,5.22,14.385l13.755-3.769a15.173,15.173,0,0,1-3.987-10.416c.22-5.725-2.111-11.956-6.745-18.032Z" transform="translate(-412.74 -173.256)" fill="#fa3535"/>
          </g>
          <g id="Group_10414" data-name="Group 10414" transform="translate(6.985 2.76)">
            <path id="Path_21735" data-name="Path 21735" d="M430.883,204.187l-.16-.378c-.016-.037-1.6-3.7-4.389-3.143l-.361.072-.159-.33a14.6,14.6,0,0,1-.776-8.944c1.031-4.574-4.263-11.528-4.317-11.6l-.572-.744.939-.02a1.6,1.6,0,0,0,1.155-.52,1.479,1.479,0,0,0-.027-1.332l-.222-.6,7.343-.469.053.449a2.911,2.911,0,0,0,2.759,2.6l.256.01.133.22A22.371,22.371,0,0,1,435.1,189.1a22.009,22.009,0,0,0,2.089,8.832l.36.638-.73.067a2.141,2.141,0,0,0-1.472.889,3.309,3.309,0,0,0,.166,2.9l.2.5Zm-1.729-3.825a7.438,7.438,0,0,1,2.267,2.7l3.027-.789a3.805,3.805,0,0,1,.1-3.249,2.85,2.85,0,0,1,1.544-1.184,24.489,24.489,0,0,1-1.933-8.689,22.5,22.5,0,0,0-2.313-8.989,3.768,3.768,0,0,1-3.313-2.978l-5.247.335a2.033,2.033,0,0,1-.253,1.6,2.1,2.1,0,0,1-1.105.781c1.32,1.869,4.993,7.554,4.042,11.772a14.06,14.06,0,0,0,.569,8A3.877,3.877,0,0,1,429.153,200.361Z" transform="translate(-420.148 -176.183)" fill="#fff"/>
          </g>
        </g>
        <g id="Group_10420" data-name="Group 10420" transform="translate(4.798 0)">
          <g id="Group_10416" data-name="Group 10416" transform="translate(3.75 14.04)">
            <path id="Path_21736" data-name="Path 21736" d="M436.679,157.05s-2.935,10.152-8.343,10.342c-3.754.133-5.3-.173-5.887-.372a.1.1,0,0,0-.12.159l8,11.605a15.822,15.822,0,0,0,10.8-2.686c5.288-3.649,8.108-9.882,7.832-14.8s-.547-5.4-1.278-5.525S436.679,157.05,436.679,157.05Z" transform="translate(-421.835 -155.294)" fill="#bdc9d6"/>
            <path id="Path_21738" data-name="Path 21738" d="M430.024,179.191l-.113-.163-8-11.606a.58.58,0,0,1,.666-.879c.441.15,1.889.482,5.718.346,5-.175,7.874-9.9,7.9-10l.086-.3.306-.041c2.428-.334,10.407-1.408,11.154-1.276,1.146.2,1.395,1.095,1.668,5.967.31,5.482-2.995,11.74-8.034,15.218a16.157,16.157,0,0,1-11.151,2.764Zm-6.793-11.524,7.343,10.649a15.59,15.59,0,0,0,10.258-2.636c4.782-3.3,7.918-9.215,7.627-14.383-.26-4.631-.52-5.02-.886-5.085-.582-.066-6.657.708-10.557,1.24-.549,1.742-3.481,10.2-8.691,10.388A27.411,27.411,0,0,1,423.232,167.667Z" transform="translate(-421.806 -155.265)" fill="#fa3535"/>
          </g>
          <g id="Group_10417" data-name="Group 10417">
            <path id="Path_21739" data-name="Path 21739" d="M432.158,140.93,419,151.681s13.5,2.333,16.9,9.2,10.024,9,13.462,8.646l9.384-12.045s-6.311-.672-9.9-5.889S439.208,142.9,432.158,140.93Z" transform="translate(-417.896 -140.407)" fill="#bdc9d6"/>
            <path id="Path_21742" data-name="Path 21742" d="M446.681,169.836a15.872,15.872,0,0,1-11.267-8.772c-3.24-6.537-16.252-8.893-16.555-8.947h0l-1.026-.177,14.153-11.564.239.065c7.682,2.146,13.545,5.9,16.956,10.855,3.427,4.978,9.5,5.682,9.562,5.687l.849.091-10.033,12.879-.2.02A9.81,9.81,0,0,1,446.681,169.836Zm-26.664-18.458c3.243.695,13.286,3.289,16.249,9.264,3.275,6.6,9.485,8.641,12.789,8.4l8.765-11.25a15.183,15.183,0,0,1-9.427-5.961c-3.248-4.719-8.845-8.316-16.193-10.411Z" transform="translate(-417.829 -140.375)" fill="#fa3535"/>
          </g>
          <g id="Group_10418" data-name="Group 10418" transform="translate(7.973 3.144)">
            <path id="Path_21743" data-name="Path 21743" d="M445.926,166.357l-.34-.11a10.318,10.318,0,0,1-6.065-6.008c-1.434-3.9-8.7-6.931-10.894-7.768-.98-.373-.968-.928-.88-1.418.063-.354.128-.718-.931-1.415l-.532-.35,6.622-5.578.309.307c.08.078,1.967,1.921,3.746.337l.24-.213.287.141A28.214,28.214,0,0,1,444.7,149.7c.744.786,1.423,1.544,2.064,2.259,2.136,2.383,3.822,4.264,6.072,5.177l.679.276-.528.507a1.745,1.745,0,0,0-.5,1.222,1.9,1.9,0,0,0,.958,1.306l.4.276-4.161,5.761-.389-.3a3.638,3.638,0,0,0-2.253-.757,1.344,1.344,0,0,0-.919.629Zm-17.27-14.931a1.151,1.151,0,0,0,.309.157c2.932,1.119,9.917,4.171,11.447,8.327a9.514,9.514,0,0,0,5.161,5.316,2.2,2.2,0,0,1,1.321-.731,4.06,4.06,0,0,1,2.575.669l3.053-4.228a2.537,2.537,0,0,1-.98-1.723,2.421,2.421,0,0,1,.376-1.446c-2.167-1.053-3.816-2.893-5.86-5.173-.636-.71-1.31-1.461-2.047-2.241a27.913,27.913,0,0,0-6.676-5.08,3.548,3.548,0,0,1-4.466-.293l-5.025,4.234a1.881,1.881,0,0,1,.836,2.006,1.081,1.081,0,0,0-.025.206Z" transform="translate(-426.285 -143.709)" fill="#fff"/>
          </g>
          <g id="Group_10419" data-name="Group 10419" transform="translate(9.306 21.948)">
            <path id="Path_21744" data-name="Path 21744" d="M430.96,176.809l-3.261-5.027.719-.117c.419-.068.829-.262.7-1.2a1.265,1.265,0,0,1,.257-.951,1.4,1.4,0,0,1,.936-.523,9.738,9.738,0,0,0,2.76-.871,7.625,7.625,0,0,0,3.781-4.469l.915.257a8.463,8.463,0,0,1-4.308,5.079,10.943,10.943,0,0,1-3.038.949.439.439,0,0,0-.3.161.318.318,0,0,0-.067.239,1.838,1.838,0,0,1-.832,2.053l2.005,3.091a3.844,3.844,0,0,1,4.443.448c1.1-.244,6.048-1.592,7.85-6.459l.891.331c-2.22,5.993-8.543,7.067-8.811,7.11l-.235.038-.172-.167a2.965,2.965,0,0,0-3.832-.27Z" transform="translate(-427.699 -163.653)" fill="#fff"/>
          </g>
        </g>
      </g>
    </g>
  </g>
</svg>
